<svg viewBox="0 0 612 612" xmlns="http://www.w3.org/2000/svg" xmlns:xlink="http://www.w3.org/1999/xlink"><pattern id="a" height="511.61" patternTransform="matrix(1.29 0 0 -1.29 2274.24 -1835.5)" patternUnits="userSpaceOnUse" viewBox="0 0 443.1 511.61" width="443.1"><path d="m0 0h443.1v511.61h-443.1z" fill="none"/><path d="m0 0h443.1v511.61h-443.1z" fill="none"/><path d="m126.09 207.85 5.53 3.2v103.93l-5.53 3.19z" fill="none"/><path d="m138.07 214.78 5.53 3.2v90.1l-5.53 3.19z" fill="none"/><path d="m114.11 200.92 5.53 3.2v117.77l-5.53 3.19z" fill="none"/><path d="m328.78 200.84-5.53 3.19v-138.1l5.53 3.2z" fill="none"/><path d="m102.13 194 5.53 3.19v131.61l-5.53 3.18z" fill="none"/><path d="m150.05 221.71 5.53 3.2v76.26l-5.53 3.19z" fill="none"/><path d="m42.23 159.35 5.53 3.2v200.78l-5.53 3.18z" fill="none"/><path d="m54.21 166.28 5.53 3.2v186.94l-5.53 3.19z" fill="none"/><path d="m174.01 235.57 5.53 3.2v48.59l-5.53 3.19z" fill="none"/><path d="m90.15 187.07 5.53 3.2v145.43l-5.53 3.19z" fill="none"/><path d="m30.25 152.42 5.53 3.2v214.61l-5.53 3.19z" fill="none"/><path d="m78.17 180.14 5.53 3.2v159.27l-5.53 3.18z" fill="none"/><path d="m66.19 173.21 5.53 3.2v173.1l-5.53 3.19z" fill="none"/><path d="m162.03 228.64 5.53 3.2v62.43l-5.53 3.18z" fill="none"/><path d="m412.64 152.5-5.53 3.19v-41.26l5.53 3.2z" fill="none"/><path d="m388.68 166.31-5.53 3.19v-68.92l5.53 3.19z" fill="none"/><path d="m424.62 145.59-5.53 3.19v-27.42l5.53 3.2z" fill="none"/><path d="m400.66 159.41-5.53 3.18v-55.09l5.53 3.2z" fill="none"/><path d="m209.95 256.35 5.53 3.2v7.09l-5.53 3.19z" fill="none"/><path d="m436.6 138.69-5.53 3.19v-13.59l5.53 3.2z" fill="none"/><path d="m352.74 187.03-5.53 3.19v-110.43l5.53 3.2z" fill="none"/><path d="m376.7 173.22-5.53 3.19v-82.76l5.53 3.19z" fill="none"/><path d="m197.97 249.43 5.53 3.19v20.93l-5.53 3.19z" fill="none"/><path d="m340.76 193.94-5.53 3.18v-124.26l5.53 3.2z" fill="none"/><path d="m185.99 242.5 5.53 3.2v34.75l-5.53 3.19z" fill="none"/><path d="m364.72 180.12-5.53 3.19v-96.59l5.53 3.2z" fill="none"/><path d="m18.27 145.49 5.53 3.2v228.45l-5.53 3.18z" fill="none"/><path d="m.26 391 .5.29z" fill="none"/><path d="m6.29 385.25v-241.01-5.67l5.53 3.19v2.48 239.8l-5.53 3.19z" fill="none"/><path d="m268.88 34.49v200.88l-5.53 3.19v-207.27l-6.45-3.72v214.71l-5.53 3.18v-221.08l-6.45-3.73v228.53l-5.52 3.19v-234.91l-6.46-3.73v2.53 239.83l-5.52 3.19v-243.02-5.72l-5.49-3.17v-.04l45.12 26.1z" fill="none"/><path d="m316.8 207.75-5.53 3.18v-151.93l5.53 3.2z" fill="none"/><path d="m304.82 214.65-5.53 3.19v-165.77l5.53 3.2z" fill="none"/><path d="m280.86 228.46-5.53 3.19v-193.43l5.53 3.19z" fill="none"/><path d="m292.84 221.56-5.53 3.19v-179.6l5.53 3.19z" fill="none"/><path d="m227.42 0h-6.29v.17l-5.56 3.21h-.08v.1h-.08.08v7.1.15l.13-.08 5.52 3.19v6.39l-11-6.39-.13-.08v-13.54h.08l.3-.17h-6.86v17.48.16l.14-.08 17.49 10.12v6.39l-23-13.31-.14-.08v-20.73h-6.45v24.44.16l.14-.08 29.46 17v6.48l-35-20.24-.14-.08v-27.68h-6.45v31.34.17l.15-.08 41.44 24v6.39l-47-27.16-.15-.09v-34.57h-6.45v38.24.18l.15-.09 53.41 30.89v6.39l-58.96-34.07-.15-.09v-41.45h-6.45v45.15.18l.16-.09 65.39 37.86v6.39l-70.91-41-.16-.09v-48.4h-6.45v52.05.19l.16-.09 77.36 44.74v6.39l-82.89-47.9-.16-.1v-55.28h-6.45v59 .19l.17-.1 89.34 51.67v6.39l-94.86-54.87-.17-.1v-62.18h-6.45v65.86h-.05.05v.2l.17-.1 101.31 58.6v6.44l-106.84-61.8-.18-.1v-69.1h-6.45v72.77.23l.18-.1 113.29 65.52v6.39l-118.82-68.69-.18-.1v-76.02h-6.45v79.67h-.06.06v.21l.18-.11 125.26 72.45v6.39l-130.78-75.61-.19-.11v-82.89h-6.45v86.57h-.06.06v.22l.19-.11 137.23 79.37v6.39l-142.76-82.44-.19-.11v-89.89h-6.45v93.48h-.07.07v.22l.19-.11 149.21 86.41v6.39l-154.73-89.53-.2-.11v-96.75h-6.45v100.38h-.07.07v.23l.2-.12 161.18 93.22v6.39l-166.71-96.33-.2-.12v-103.65h-6.45v107.29h-.08.08v.24l.2-.12 173.16 100.23v6.36l-178.68-103.31-.21-.12v-110.57h-6.45v114.19h-.08l.08.05v.24l.21-.12 185.13 107.13v6.39l-190.66-110.28-.21-.12v-117.48h-6.45v121.1l-.09.05h.09v.25l.21-.12 197.11 114v6.39l-202.63-117.16-.22-.13v-124.38h-6.45v128l-.09.05h.09v.25l.22-.13 209.08 120.98v6.39l-214.61-124.11-.22-.13v-131.3h-6.29v390.86 120.75h6.29v-117.11l214.88-123.87v6.37l-209.34 120.69v113.92h6.45v-110.19l202.89-117v6.38l-197.36 113.8v107h6.45v-103.24l190.91-110v6.38l-185.38 106.78v100.09h6.45v-96.35l178.94-103.15v6.38l-173.4 99.95v93.14h6.45v-89.39l166.94-96.19v6.38l-161.41 93v86.21h6.45v-82.49l155-89.33v6.38l-149.46 86.13v79.28h6.45v-75.56l143-82.42v6.42l-137.47 79.2v72.35h6.45v-68.55l131-75.51v6.38l-125.46 72.25v65.43h6.45v-61.69l119-68.6v6.38l-113.47 65.36v.05 58.5h6.45v-54.76l107-61.69v6.38l-101.47 58.52h-.05v51.6h6.45v-47.9l95-54.78v6.38l-89.5 51.59v.06h-.05.05v44.64h6.45v-41h.05l83-47.87v6.38l-77.52 44.69v.06h-.06.06v37.75h6.44v-34.06h.06l71.07-41v6.38l-65.49 37.78h-.06v.07h-.06.06v30.83h6.42v-27.13h.06l59.08-34.06v6.38l-53.55 30.87h-.06v.07h-.06.06v23.86h6.47v-20.21h.07l47.1-27.15v6.38l-41.57 24h-.07v.08h-.07.07v16.94h6.47v-13.33h.07l35.1-20.3v6.38l-29.58 17.05h-.07v.08h-.07.07v10h6.48v-6.37h.08l23.13-13.33v6.38l-17.6 10.14h-.08v.09h-.08l.08.05v3.08h7.41l10.26-5.92v5.92h6.29v-245.06l215.61-124.29v-7.26l-.1.06v-7.08l-215.29-124.52-.25-.14h-.05v-3.26zm-226.66 391.3-.5-.3zm11.06-7.3-5.53 3.19v-248.62l5.53 3.2zm12-6.9-5.53 3.19v-234.79l5.53 3.2zm12-6.91-5.53 3.19v-221l5.53 3.2zm12-6.9-5.53 3.19v-207.12l5.53 3.2zm12-6.91-5.53 3.19v-193.29l5.53 3.2zm12-6.91-5.53 3.19v-179.45l5.53 3.2zm12-6.9-5.53 3.19v-165.62l5.53 3.2zm12-6.91-5.53 3.19v-151.78l5.53 3.2zm12-6.9-5.69 3.24v-138l5.53 3.2zm12-6.91-5.53 3.19v-124.11l5.53 3.2zm12-6.91-5.53 3.19v-110.28l5.53 3.2zm12-6.9-5.53 3.19v-96.44l5.53 3.2zm12-6.91-5.53 3.19v-82.61l5.53 3.2zm12-6.9-5.82 3.23v-68.81l5.53 3.2zm12-6.91-5.82 3.23v-55l5.53 3.2zm12-6.91-5.82 3.23v-41.14l5.53 3.2zm12-6.9-5.82 3.23v-27.31l5.53 3.2zm12-6.91-5.82 3.23v-13.48l5.53 3.2zm215.25-138.31 5.53 3.2v7.2l-5.53 3.19zm-12-6.93 5.53 3.2v21l-5.53 3.19zm-12-6.93 5.53 3.2v34.87l-5.53 3.19zm-12-6.93 5.53 3.2v48.7l-5.53 3.19zm-12-6.92 5.53 3.2v62.54l-5.53 3.19zm-12-6.93 5.53 3.2v76.37l-5.53 3.19zm-12-6.93 5.53 3.2v90.21l-5.53 3.19zm-12-6.93 5.53 3.2v104.01l-5.53 3.19zm-12-6.93 5.53 3.2v117.88l-5.53 3.19zm-12-6.93 5.53 3.2v131.71l-5.35 3.16zm-12-6.93 5.53 3.2v145.55l-5.53 3.19zm-12-6.93 5.53 3.2v159.38l-5.53 3.19zm-12-6.92 5.53 3.2v173.21l-5.53 3.19zm-12-6.93 5.53 3.2v187.05l-5.53 3.19zm-53.14-30.89 45.12 26.1 1.83 1.06v200.88l-5.53 3.19v-207.27l-6.45-3.72v214.71l-5.53 3.19v-221.09l-6.45-3.72v228.53l-5.53 3.19v-234.91l-6.45-3.72v242.36l-5.53 3.19v-248.73l-5.49-3.17v-.07z" fill="#12284c"/><path d="m400.36 0h12.89l29.84 17.26-.01 7.45z" fill="#12284c"/><path d="m443.09 10.87-18.8-10.87h12.89l5.92 3.42-.01 3.64z" fill="#12284c"/><path d="m352.51 0h12.88l77.67 44.92v7.45z" fill="#12284c"/><path d="m376.44 0h12.88l53.76 31.09-.01 7.45z" fill="#12284c"/><path d="m304.65 0h12.89l125.5 72.59v7.45z" fill="#12284c"/><path d="m328.58 0h12.88l101.59 58.76v7.45z" fill="#12284c"/><path d="m256.8 0h12.88l173.34 100.26v7.44z" fill="#12284c"/><path d="m280.72 0h12.89l149.42 86.42v7.45z" fill="#12284c"/><path d="m233.23.21-.29.17v-.28-.1h12.81l197.26 114.09v7.45z" fill="#12284c"/><path d="m443.1 391.01-.01 7.3-6.31-3.66-.13.08v-.15-7.11l-.08-.05.08-.04v-.1l.08.05 6.29-3.63-.01 7.21.09-.05z" fill="#12284c"/><path d="m412.83 408.48-.14.08v-.16l-.01-.01.01-.01v-34.76l-.07-.05.07-.04v-.08l.07.04 30.28-17.45-.01 7.45-23.81 13.73-.08.04v.09 27.32.01l.14.08 23.8 13.76-.01 7.45z" fill="#12284c"/><path d="m431.12 397.76v.01l.13.07 11.84 6.85-.01 7.45-18.27-10.57-.14.08v-.16l-.01-.01h.01v-20.94l-.08-.04.08-.05v-.09l.08.05 18.28-10.54-.01 7.45-11.82 6.82-.08.04v.1z" fill="#12284c"/><path d="m388.88 422.31-.15.09v-.18l-.02-.01.02-.02v-62.43l-.06-.03.06-.04v-.08l.06.04 54.27-31.28-.01 7.45-47.8 27.56-.07.04v.07 54.99.02l.15.09 47.73 27.6-.01 7.45z" fill="#12284c"/><path d="m400.86 415.39-.15.09v-.17l-.02-.01.02-.01v-48.6l-.07-.04.07-.04v-.08l.07.04 42.27-24.36-.01 7.44-35.81 20.65-.07.04v.08 41.15.02l.14.08 35.77 20.69-.01 7.45z" fill="#12284c"/><path d="m364.93 436.14-.16.09v-.19l-.03-.02.03-.02v-90.09l-.05-.03.05-.03v-.07l.06.03 78.24-45.1v7.44l-71.79 41.39-.06.03v.07 82.64.04l.16.09 71.66 41.45-.01 7.44z" fill="#12284c"/><path d="m376.91 429.22-.16.09v-.18l-.03-.02.03-.01v-76.26l-.06-.04.06-.03v-.07l.06.03 66.26-38.19-.01 7.45-59.8 34.47-.06.03v.08 68.81.03l.16.09 59.69 34.52-.01 7.45z" fill="#12284c"/><path d="m340.86 331.98 102.23-58.94v7.45l-95.78 55.21-.05.03v.05 110.31.05l.17.1 95.59 55.28-.01 7.45-102.03-59.01-.17.1v-.2l-.04-.02.04-.03v-117.76l-.04-.02.04-.03v-.05z" fill="#12284c"/><path d="m352.96 443.05-.17.1v-.2l-.04-.02.04-.02v-103.93l-.05-.03.05-.03v-.05l.05.02 90.24-52.02v7.45l-83.79 48.3-.05.03v.06 96.48.04l.17.1 83.62 48.36-.01 7.45z" fill="#12284c"/><path d="m323.3 321.88v.05 137.97.06l.18.11 89.12 51.54h-12.88l-82.69-47.82-.18.1v-.21l-.05-.03.05-.03v-145.42l-.04-.02.04-.02v-.04l.04.02 126.21-72.76v7.44l-119.76 69.04z" fill="#12284c"/><path d="m328.83 456.98v-.21l-.05-.03.05-.03v-131.58l-.04-.03.04-.02v-.05l.04.03 114.23-65.85v3.81 3.64l-107.77 62.12-.05.03v.05 124.14.05l.18.1 101.07 58.46h-12.89l-94.63-54.73z" fill="#12284c"/><path d="m299.34 308.04v.04 165.63.07l.19.11 65.21 37.72h-12.88l-58.77-33.99-.2.11v-.23l-.06-.03.06-.04v-173.08l-.03-.02.03-.02v-.03l.03.02 150.18-86.58v7.45l-143.73 82.85z" fill="#12284c"/><path d="m311.32 314.96v.04 151.81.06l.19.11 77.16 44.63h-12.88l-70.73-40.91-.19.11v-.22l-.06-.03.06-.04v-159.25l-.03-.02.03-.01v-.04l.03.02 138.2-79.67v7.45l-131.74 75.94z" fill="#12284c"/><path d="m275.4 294.19-.02.01v.02 193.3.08l.2.12 41.31 23.89h-12.88l-34.87-20.17-.21.12v-.24l-.07-.04.07-.04v-200.75l-.02-.01.02-.01v-.02l.02.01 174.15-100.39v7.44z" fill="#12284c"/><path d="m287.39 301.11-.03.01v.03 179.46.08l.2.12 53.26 30.8h-12.89l-46.82-27.08-.2.11v-.23l-.07-.04.07-.04v-186.91l-.02-.01.02-.02v-.02l.02.01 162.17-93.48v7.44z" fill="#12284c"/><path d="m251.43 280.35h-.01v.02 220.96.09l.22.13 17.39 10.06h-12.88l-10.96-6.34-.22.12v-.24l-.08-.06.08-.05v-228.4l-.01-.01h.01v-.01h.01l198.12-114.21v7.45z" fill="#12284c"/><path d="m263.42 287.27-.02.01v.01 207.13.09l.21.12 29.35 16.98h-12.88l-22.92-13.25-.21.12v-.24l-.08-.05.08-.05v-214.58h-.01l.01-.01v-.02l.02.01 186.13-107.3v7.45z" fill="#12284c"/><path d="m233 269.7 210.1-121.11v7.44l-203.65 117.4h-.01v.01 234.79.11l.22.12 5.45 3.15h-12.12v-241.9-.01z" fill="#12284c"/></pattern><path d="m0 0h612v612h-612z" fill="url(#a)"/></svg>