<?xml version="1.0" encoding="utf-8"?>
<!-- Generator: Adobe Illustrator 16.0.0, SVG Export Plug-In . SVG Version: 6.00 Build 0)  -->
<!DOCTYPE svg PUBLIC "-//W3C//DTD SVG 1.1//EN" "http://www.w3.org/Graphics/SVG/1.1/DTD/svg11.dtd">
<svg version="1.1" id="Layer_1" xmlns="http://www.w3.org/2000/svg" xmlns:xlink="http://www.w3.org/1999/xlink" x="0px" y="0px"
	 width="1920px" height="1080px" viewBox="0 0 1920 1080" enable-background="new 0 0 1920 1080" xml:space="preserve">
<pattern  x="0.5" y="1080.5" width="781.941" height="902.841" patternUnits="userSpaceOnUse" id="a" viewBox="0 -902.841 781.941 902.841" overflow="visible">
	<g>
		<polygon fill="none" points="0,0 781.941,0 781.941,-902.841 0,-902.841 		"/>
		<path fill="none" d="M0,0h781.941v-902.841H0V0z"/>
		<path fill="none" d="M0,0h781.941v-902.841H0V0z"/>
		<path fill="none" d="M222.512-366.794l9.759-5.647v-183.405l-9.759-5.63V-366.794z"/>
		<path fill="none" d="M243.653-379.023l9.759-5.647v-159l-9.759-5.629V-379.023z"/>
		<path fill="none" d="M201.371-354.564l9.758-5.647v-207.829l-9.758-5.63V-354.564z"/>
		<path fill="none" d="M580.2-354.424l-9.759-5.629v243.705l9.759-5.646V-354.424z"/>
		<path fill="none" d="M180.229-342.353l9.759-5.63v-232.253l-9.759-5.611V-342.353z"/>
		<path fill="none" d="M264.794-391.253l9.759-5.647v-134.576l-9.759-5.629V-391.253z"/>
		<path fill="none" d="M74.523-281.206l9.759-5.647v-354.317l-9.759-5.611V-281.206z"/>
		<path fill="none" d="M95.665-293.436l9.759-5.646v-329.895l-9.759-5.629V-293.436z"/>
		<path fill="none" d="M307.076-415.712l9.759-5.646v-85.747l-9.759-5.63V-415.712z"/>
		<path fill="none" d="M159.088-330.123l9.759-5.647v-256.642l-9.759-5.629V-330.123z"/>
		<path fill="none" d="M53.383-268.977l9.758-5.646v-378.724l-9.758-5.63V-268.977z"/>
		<path fill="none" d="M137.947-317.895l9.759-5.646v-281.064l-9.759-5.612V-317.895z"/>
		<path fill="none" d="M116.806-305.664l9.759-5.647v-305.471l-9.759-5.63V-305.664z"/>
		<path fill="none" d="M285.936-403.482l9.759-5.646V-519.3l-9.759-5.612V-403.482z"/>
		<path fill="none" d="M728.188-269.117l-9.759-5.63v72.812l9.759-5.646V-269.117z"/>
		<path fill="none" d="M685.906-293.488l-9.76-5.629v121.623l9.76-5.629V-293.488z"/>
		<path fill="none" d="M749.329-256.924l-9.759-5.629v48.389l9.759-5.647V-256.924z"/>
		<path fill="none" d="M707.047-281.312l-9.759-5.612v97.218l9.759-5.647V-281.312z"/>
		<path fill="none" d="M370.5-452.383l9.759-5.646v-12.512l-9.759-5.63V-452.383z"/>
		<path fill="none" d="M770.471-244.747l-9.759-5.63v23.982l9.759-5.646V-244.747z"/>
		<path fill="none" d="M622.482-330.053l-9.759-5.63v194.877l9.759-5.647V-330.053z"/>
		<path fill="none" d="M664.765-305.683l-9.759-5.629v146.047l9.759-5.63V-305.683z"/>
		<path fill="none" d="M349.359-440.171l9.758-5.629v-36.936l-9.758-5.629V-440.171z"/>
		<path fill="none" d="M601.341-342.247l-9.759-5.611v219.282l9.759-5.647V-342.247z"/>
		<path fill="none" d="M328.218-427.941l9.759-5.646v-61.324l-9.759-5.629V-427.941z"/>
		<path fill="none" d="M643.623-317.858l-9.758-5.63v170.453l9.758-5.647V-317.858z"/>
		<path fill="none" d="M32.241-256.747L42-262.395v-403.146l-9.759-5.612V-256.747z"/>
		<path fill="none" d="M0.459-690l0.882-0.512L0.459-690z"/>
		<path fill="none" d="M11.1-679.853v425.312v10.006l9.759-5.629v-4.377v-423.177l-9.759-5.629V-679.853z"/>
		<path fill="none" d="M474.494-60.865v-354.493l-9.759-5.63v365.771l-11.383,6.565v-378.9l-9.759-5.612v390.142l-11.382,6.582
			v-403.288l-9.741-5.629v414.547l-11.4,6.582v-4.465v-423.229l-9.741-5.629v428.858V-18.6l-9.688,5.594v0.07l79.624-46.059
			L474.494-60.865z"/>
		<path fill="none" d="M559.059-366.617l-9.759-5.612v268.112l9.759-5.647V-366.617z"/>
		<path fill="none" d="M537.918-378.794l-9.759-5.63v292.535l9.759-5.646V-378.794z"/>
		<path fill="none" d="M495.635-403.165l-9.758-5.629v341.347l9.758-5.629V-403.165z"/>
		<path fill="none" d="M516.776-390.988l-9.759-5.629v316.941l9.759-5.63V-390.988z"/>
		<path fill="#12284C" d="M401.329,0h-11.1v-0.3l-9.812-5.665h-0.142v-0.176h-0.142h0.142V-18.67v-0.266l0.229,0.142l9.741-5.63
			V-35.7l-19.412,11.276l-0.229,0.142v23.894h0.142l0.529,0.301h-12.105v-30.848v-0.282l0.247,0.142l30.864-17.859v-11.276
			l-40.588,23.488l-0.247,0.142V0h-11.383v-43.129v-0.283l0.247,0.142l51.988-30v-11.436l-61.765,35.718l-0.247,0.141V0h-11.382
			v-55.306v-0.3l0.265,0.141L390.3-97.817v-11.276l-82.94,47.93l-0.266,0.158V0h-11.382v-67.482V-67.8l0.265,0.159l94.253-54.512
			v-11.277L286.183-73.306l-0.265,0.159V0h-11.383v-79.676v-0.318l0.282,0.158l115.395-66.811v-11.277L265.076-85.57l-0.282,0.158V0
			h-11.382v-91.854v-0.335l0.282,0.159l136.518-78.953v-11.276L243.936-97.729l-0.282,0.177V0h-11.383v-104.117v-0.336l0.3,0.177
			l157.659-91.183v-11.276l-167.4,96.829l-0.3,0.177V0h-11.382v-116.224h-0.089h0.089v-0.353l0.3,0.176l178.782-103.411v-11.364
			L201.688-122.117l-0.317,0.176V0h-11.383v-128.418v-0.406l0.317,0.178l199.924-115.624v-11.276L180.547-134.33l-0.317,0.178V0
			h-11.382v-140.594h-0.106h0.106v-0.371l0.317,0.194l221.047-127.853V-279.9l-230.788,133.43l-0.336,0.194V0h-11.382v-152.771
			H147.6h0.106v-0.388l0.335,0.193l242.171-140.064v-11.276l-251.93,145.481l-0.335,0.195V0h-11.383v-164.965h-0.123h0.123v-0.389
			l0.336,0.195l263.312-152.489v-11.276L117.159-170.93l-0.354,0.194V0h-11.382v-177.141H105.3h0.124v-0.406l0.353,0.211
			l284.436-164.505v-11.276L96.018-183.123l-0.353,0.211V0H84.282v-189.336h-0.141h0.141v-0.423l0.354,0.212l305.576-176.877
			v-11.224L74.895-195.336l-0.371,0.213V0H63.142v-201.512H63l0.142-0.088v-0.424l0.37,0.212l326.7-189.053v-11.277L53.753-207.529
			l-0.37,0.212V0H42v-213.706l-0.158-0.088H42v-0.441l0.371,0.212L390.212-415.2v-11.276L32.63-219.724l-0.389,0.229V0H20.859
			v-225.883l-0.159-0.088h0.159v-0.441l0.388,0.23l368.965-213.495v-11.276L11.488-231.936l-0.389,0.229V0H0v-689.753v-213.088h11.1
			v206.664l379.2,218.595v-11.241L20.877-701.806v-201.035h11.382v194.452L390.3-501.918v-11.259L42.018-714v-188.823H53.4v182.188
			L390.3-526.518v-11.259L63.159-726.212v-176.629h11.382v170.029l315.776,182.029v-11.259l-306-176.383v-164.364H95.7v157.747
			l294.6,169.747v-11.259L105.459-750.671v-152.135h11.383v145.57l273.529,157.642v-11.259L126.618-762.847v-139.906H138v133.341
			l252.354,145.447v-11.329L147.759-775.059v-127.677h11.383v120.971l231.176,133.253v-11.259l-221.399-127.5v-115.465H180.3
			v108.865l210,121.059v-11.259L190.059-799.412v-0.088v-103.235h11.383v96.636l188.823,108.864v-11.259L211.2-811.765h-0.089
			v-91.059h11.383v84.529l167.647,96.671v-11.26L232.2-823.924v-0.105h-0.089h0.089v-78.776h11.382v72.353h0.089l146.471,84.477
			v-11.259L253.341-836.1v-0.106h-0.105h0.105v-66.617h11.365v60.105h0.105l125.418,72.354v-11.259l-115.57-66.671h-0.106v-0.124
			h-0.105h0.105v-54.405h11.33v47.876h0.105l104.259,60.106V-806.1l-94.5-54.477h-0.105v-0.124h-0.106h0.106v-42.105h11.417v35.665
			h0.124l83.117,47.911v-11.259l-73.358-42.353h-0.124v-0.142h-0.123h0.123v-29.894h11.418v23.523h0.124l61.94,35.823v-11.259
			l-52.2-30.089h-0.123v-0.141h-0.123h0.123v-17.647h11.436v11.241h0.141l40.818,23.523v-11.259l-31.06-17.894h-0.141v-0.159h-0.142
			l0.142-0.088v-5.436h13.076l18.106,10.447v-10.447h11.1v432.459l380.488,219.335v12.813l-0.177-0.106v12.494L401.842-6
			L401.4-5.753h-0.089V0H401.329z M1.341-690.529L0.459-690L1.341-690.529z M20.858-677.647l-9.759-5.629v438.741l9.759-5.647
			V-677.647z M42.035-665.471l-9.759-5.629v414.335l9.759-5.647V-665.471z M63.212-653.276l-9.759-5.63v390l9.759-5.646V-653.276z
			 M84.389-641.1l-9.76-5.63v365.506l9.76-5.647V-641.1z M105.564-628.906l-9.759-5.629v341.1l9.759-5.646V-628.906z
			 M126.741-616.712l-9.759-5.629v316.677l9.759-5.647V-616.712z M147.918-604.535l-9.759-5.63v292.271l9.759-5.646V-604.535z
			 M169.094-592.341l-9.759-5.63v267.848l9.759-5.647V-592.341z M190.271-580.165l-10.041-5.718v243.53l9.759-5.647L190.271-580.165
			z M211.447-567.971l-9.759-5.629v219.018l9.759-5.647V-567.971z M232.623-555.776l-9.758-5.63v194.612l9.758-5.647V-555.776z
			 M253.8-543.6l-9.759-5.63v170.188l9.759-5.647V-543.6z M274.977-531.406l-9.759-5.629v145.782l9.759-5.647V-531.406z
			 M296.153-519.229l-10.271-5.7v121.43l9.758-5.647L296.153-519.229z M317.329-507.035l-10.271-5.7v97.059l9.759-5.646
			L317.329-507.035z M338.506-494.841l-10.271-5.7v72.6l9.759-5.646L338.506-494.841z M359.683-482.665l-10.271-5.7v48.194
			l9.759-5.646L359.683-482.665z M380.859-470.471l-10.271-5.7v23.788l9.759-5.646L380.859-470.471z M760.712-226.395l9.759-5.646
			v-12.706l-9.759-5.63V-226.395z M739.535-214.164l9.759-5.647v-37.06l-9.759-5.629V-214.164z M718.359-201.936l9.758-5.646
			v-61.535l-9.758-5.63V-201.936z M697.183-189.706l9.759-5.647v-85.94l-9.759-5.63V-189.706z M676.006-177.494l9.759-5.646
			v-110.365l-9.759-5.629V-177.494z M654.829-165.265l9.759-5.647v-134.771l-9.759-5.629V-165.265z M633.653-153.035l9.759-5.647
			v-159.194l-9.759-5.629V-153.035z M612.477-140.806l9.759-5.647V-330l-9.759-5.63V-140.806z M591.3-128.576l9.759-5.647v-208.023
			l-9.759-5.63V-128.576z M570.123-116.348l9.76-5.646v-232.43L570.441-360L570.123-116.348z M548.947-104.117l9.759-5.647v-256.853
			l-9.759-5.63V-104.117z M527.771-91.889l9.759-5.646v-281.259l-9.759-5.63V-91.889z M506.594-79.677l9.76-5.647v-305.664
			l-9.76-5.629V-79.677z M485.418-67.447l9.759-5.646v-330.089l-9.759-5.629V-67.447z M391.642-12.936l79.623-46.059l3.229-1.871
			v-354.493l-9.759-5.63v365.771l-11.383,6.565v-378.9l-9.759-5.63v390.159l-11.382,6.564v-403.288l-9.759-5.63V-30.83
			l-11.383,6.565v-427.694l-9.759-5.629v438.936l-9.688,5.594v0.123H391.642z"/>
		<path fill="#12284C" d="M706.518,0h22.747l52.659-30.459l-0.018-13.146L706.518,0z"/>
		<path fill="#12284C" d="M781.924-19.183L748.747,0h22.747l10.447-6.035l-0.018-6.424V-19.183z"/>
		<path fill="#12284C" d="M622.076,0h22.729l137.065-79.271v-13.147L622.076,0z"/>
		<path fill="#12284C" d="M664.306,0h22.729l94.871-54.865l-0.018-13.146L664.306,0z"/>
		<path fill="#12284C" d="M537.617,0h22.748l221.47-128.1v-13.147L537.617,0z"/>
		<path fill="#12284C" d="M579.847,0h22.729l179.276-103.694v-13.147L579.847,0z"/>
		<path fill="#12284C" d="M453.177,0h22.729L781.8-176.93v-13.129L453.177,0z"/>
		<path fill="#12284C" d="M495.389,0h22.746l263.683-152.506v-13.146L495.389,0z"/>
		<path fill="#12284C" d="M411.582-0.371L411.07-0.67v0.494V0h22.606l348.105-201.336v-13.146L411.582-0.371z"/>
		<path fill="#12284C" d="M781.941-690.018l-0.018-12.883l-11.136,6.459l-0.229-0.141v0.265v12.547l-0.141,0.088l0.141,0.071v0.176
			l0.142-0.088l11.1,6.406l-0.018-12.724l0.159,0.088V-690.018z"/>
		<path fill="#12284C" d="M728.523-720.847l-0.247-0.142v0.282l-0.018,0.018l0.018,0.018v61.342l-0.124,0.088l0.124,0.07v0.142
			l0.124-0.07l53.435,30.794l-0.018-13.147L739.8-665.683l-0.141-0.07v-0.159v-48.211v-0.019l0.247-0.141l42-24.282l-0.018-13.147
			L728.523-720.847z"/>
		<path fill="#12284C" d="M760.8-701.93v-0.018l0.229-0.123l20.895-12.089l-0.018-13.146l-32.241,18.652l-0.247-0.141v0.282
			l-0.018,0.018h0.018v36.953l-0.142,0.07l0.142,0.088v0.159l0.141-0.088l32.259,18.6l-0.018-13.146l-20.858-12.036l-0.142-0.07
			v-0.177V-701.93z"/>
		<path fill="#12284C" d="M686.259-745.253l-0.265-0.159v0.318l-0.035,0.018l0.035,0.035v110.17l-0.105,0.054l0.105,0.07v0.142
			l0.105-0.071l95.771,55.2l-0.019-13.147L697.5-641.259l-0.123-0.07v-0.124v-97.041v-0.035l0.264-0.159l84.23-48.706l-0.019-13.146
			L686.259-745.253z"/>
		<path fill="#12284C" d="M707.4-733.041l-0.266-0.159v0.3l-0.035,0.018l0.035,0.019v85.765l-0.123,0.07l0.123,0.07v0.142
			l0.124-0.071l74.594,42.988l-0.018-13.129l-63.194-36.441l-0.123-0.07v-0.142V-726.3v-0.035l0.247-0.142l63.124-36.512
			l-0.018-13.146L707.4-733.041z"/>
		<path fill="#12284C" d="M643.994-769.659l-0.282-0.158v0.335l-0.053,0.035l0.053,0.035v158.982l-0.089,0.053l0.089,0.054v0.123
			l0.105-0.053l138.071,79.588v-13.129L655.2-616.835l-0.106-0.054v-0.123v-145.835v-0.071l0.283-0.158l126.458-73.147l-0.018-13.13
			L643.994-769.659z"/>
		<path fill="#12284C" d="M665.135-757.447l-0.281-0.158v0.317l-0.054,0.035l0.054,0.018v134.576l-0.106,0.071l0.106,0.053v0.123
			l0.105-0.053l116.93,67.395l-0.018-13.147l-105.53-60.829l-0.105-0.053v-0.142v-121.43v-0.053l0.282-0.159L781.854-811.8
			l-0.019-13.147L665.135-757.447z"/>
		<path fill="#12284C" d="M601.518-585.847l180.406,104.012v-13.147L612.9-592.412l-0.089-0.053v-0.088v-194.665v-0.088l0.3-0.177
			L781.8-885.035l-0.018-13.147L601.729-794.047l-0.3-0.177v0.354l-0.07,0.035l0.07,0.053v207.812l-0.07,0.035l0.07,0.053v0.089
			L601.518-585.847z"/>
		<path fill="#12284C" d="M622.871-781.853l-0.301-0.177v0.353l-0.07,0.035l0.07,0.036V-598.2l-0.088,0.053l0.088,0.054v0.088
			l0.088-0.035l159.248,91.8v-13.147l-147.865-85.235l-0.088-0.053v-0.105v-170.259v-0.07l0.3-0.177l147.564-85.342l-0.018-13.146
			L622.871-781.853z"/>
		<path fill="#12284C" d="M570.529-568.023v-0.088v-243.477v-0.106l0.317-0.194l157.271-90.952h-22.729l-145.924,84.388
			l-0.318-0.176v0.37l-0.088,0.053l0.088,0.053v256.624l-0.07,0.035l0.07,0.035v0.07l0.071-0.035l222.724,128.4v-13.13
			L570.6-567.988L570.529-568.023z"/>
		<path fill="#12284C" d="M580.288-806.436v0.371l-0.088,0.053l0.088,0.053v232.2l-0.07,0.053l0.07,0.035v0.089l0.071-0.054
			L781.941-457.43v-6.724v-6.423L591.759-580.2l-0.088-0.053v-0.088v-219.071v-0.088l0.317-0.177l178.359-103.164H747.6
			l-166.994,96.582L580.288-806.436z"/>
		<path fill="#12284C" d="M528.247-543.6v-0.071v-292.288v-0.123l0.335-0.194l115.077-66.564H620.93l-103.712,59.981l-0.353-0.193
			v0.405l-0.106,0.054l0.106,0.07v305.436l-0.054,0.035l0.054,0.035v0.053l0.053-0.035l265.023,152.788v-13.146L528.3-543.564
			L528.247-543.6z"/>
		<path fill="#12284C" d="M549.389-555.812v-0.071v-267.899v-0.106l0.335-0.193l136.165-78.759h-22.729l-124.818,72.193
			l-0.335-0.193v0.388L537.9-830.4l0.105,0.071V-549.3l-0.053,0.035l0.053,0.018v0.07l0.053-0.035l243.883,140.595v-13.147
			L549.459-555.776L549.389-555.812z"/>
		<path fill="#12284C" d="M486-519.159l-0.035-0.018v-0.035v-341.117v-0.142l0.353-0.212l72.9-42.158h-22.729l-61.535,35.594
			l-0.371-0.212v0.424l-0.123,0.07l0.123,0.07v354.266l-0.035,0.018l0.035,0.018v0.035l0.035-0.018l307.324,177.158v-13.129
			L486-519.159z"/>
		<path fill="#12284C" d="M507.159-531.37l-0.054-0.019v-0.053v-316.693v-0.142l0.354-0.212l93.988-54.353H578.7l-82.624,47.788
			l-0.353-0.194v0.406l-0.124,0.07l0.124,0.07v329.842l-0.035,0.018l0.035,0.035v0.035l0.035-0.018l286.183,164.965v-13.13
			L507.159-531.37z"/>
		<path fill="#12284C" d="M443.7-494.735h-0.018v-0.035V-884.7v-0.158l0.388-0.229l30.688-17.753h-22.729l-19.341,11.188
			l-0.389-0.212v0.424l-0.141,0.106l0.141,0.088v403.059l-0.018,0.018h0.018v0.018h0.018l349.624,201.548v-13.147L443.7-494.735z"/>
		<path fill="#12284C" d="M464.859-506.947l-0.036-0.018v-0.018v-365.523v-0.159l0.371-0.212l51.794-29.964h-22.729l-40.447,23.382
			l-0.37-0.212v0.424l-0.142,0.088l0.142,0.089v378.67h-0.018l0.018,0.018v0.035l0.035-0.018l328.465,189.354v-13.147
			L464.859-506.947z"/>
		<path fill="#12284C" d="M411.177-475.941l370.765,213.724v-13.13L422.559-482.523h-0.018v-0.018v-414.336v-0.193l0.389-0.212
			l9.617-5.559h-21.388v426.882v0.018H411.177z"/>
	</g>
</pattern>
<pattern  id="SVGID_1_" xlink:href="#a" patternTransform="matrix(2.2765 0 0 2.2765 13664.9375 16149.8447)">
</pattern>
<path fill="url(#SVGID_1_)" d="M1920,1500L0,1499.998V-419.999L1920-420V1500z"/>
</svg>
