<svg version="1.0" xmlns="http://www.w3.org/2000/svg" width="1024.000000pt" height="1024.000000pt" viewBox="0 0 1024.000000 1024.000000"><path d="M0 5120 l0 -5120 5120 0 5120 0 0 5120 0 5120 -5120 0 -5120 0 0 -5120z m2452 2903 l3 -128 2658 -3 2657 -2 0 130 0 130 140 0 140 0 0 -129 0 -129 133 -4 c119 -3 137 -6 183 -30 71 -37 107 -70 160 -145 113 -158 135 -382 53 -551 -43 -89 -135 -184 -217 -224 -62 -31 -74 -33 -189 -37 l-123 -3 0 -313 0 -313 124 -4 c114 -4 128 -6 189 -36 247 -122 345 -499 192 -742 -98 -155 -220 -220 -412 -220 l-93 0 0 -369 0 -369 128 -4 c112 -3 134 -6 183 -29 152 -71 269 -276 269 -474 0 -211 -132 -407 -314 -468 -34 -12 -84 -17 -158 -17 l-108 0 0 -445 0 -445 140 0 140 0 0 250 0 250 140 0 140 0 0 -415 0 -415 -277 -2 -278 -3 -3 -118 -3 -117 -139 0 -139 0 -3 117 -3 118 -2655 0 -2655 0 -3 -118 -3 -117 -134 0 -134 0 -3 117 -3 118 -267 3 -268 2 0 165 0 165 270 0 270 0 -2 443 -3 442 -115 5 c-129 6 -180 23 -256 85 -56 46 -127 154 -154 234 -48 144 -34 321 36 437 52 86 136 168 208 200 51 23 80 29 171 33 l110 6 3 368 2 367 -93 0 c-152 0 -236 35 -328 138 -111 123 -160 305 -129 473 15 79 70 186 127 249 88 96 194 140 341 140 l82 0 -2 313 -3 312 -115 5 c-100 5 -123 9 -172 33 -117 57 -223 202 -253 344 -40 189 8 363 136 493 85 87 147 113 289 119 l115 6 3 128 3 127 134 0 134 0 3 -127z" transform="translate(0.000000,1024.000000) scale(0.100000,-0.100000)"/><path d="M1974 7541 c-17 -11 -41 -39 -53 -63 -37 -78 -23 -155 38 -213 30 -28 38 -30 127 -33 l94 -4 0 166 0 166 -87 0 c-69 0 -95 -4 -119 -19z" transform="translate(0.000000,1024.000000) scale(0.100000,-0.100000)"/><path d="M2452 7398 l3 -163 2658 -3 2657 -2 0 165 0 165 -2660 0 -2660 0 2 -162z" transform="translate(0.000000,1024.000000) scale(0.100000,-0.100000)"/><path d="M8050 7394 l0 -166 104 4 c100 3 106 4 137 33 61 58 75 135 38 213 -33 67 -65 82 -181 82 l-98 0 0 -166z" transform="translate(0.000000,1024.000000) scale(0.100000,-0.100000)"/><path d="M2455 6888 c-3 -7 -4 -299 -3 -648 l3 -635 2658 -3 2657 -2 0 650 0 650 -2655 0 c-2115 0 -2657 -3 -2660 -12z" transform="translate(0.000000,1024.000000) scale(0.100000,-0.100000)"/><path d="M1961 5905 c-66 -56 -79 -172 -26 -241 38 -50 81 -65 168 -62 l72 3 3 163 2 162 -94 0 c-86 0 -97 -2 -125 -25z" transform="translate(0.000000,1024.000000) scale(0.100000,-0.100000)"/><path d="M8050 5765 l0 -165 85 0 c102 0 142 14 180 64 53 69 40 185 -26 241 -28 23 -38 25 -135 25 l-104 0 0 -165z" transform="translate(0.000000,1024.000000) scale(0.100000,-0.100000)"/><path d="M2452 4903 l3 -368 2658 -3 2657 -2 0 370 0 370 -2660 0 -2660 0 2 -367z" transform="translate(0.000000,1024.000000) scale(0.100000,-0.100000)"/><path d="M1979 4184 c-71 -45 -98 -148 -59 -228 32 -68 69 -86 174 -86 l86 0 0 165 0 165 -87 0 c-63 0 -95 -5 -114 -16z" transform="translate(0.000000,1024.000000) scale(0.100000,-0.100000)"/><path d="M2457 4193 c-4 -3 -7 -78 -7 -165 l0 -158 2660 0 2660 0 0 165 0 165 -2653 0 c-1460 0 -2657 -3 -2660 -7z" transform="translate(0.000000,1024.000000) scale(0.100000,-0.100000)"/><path d="M8050 4035 l0 -165 96 0 c116 0 151 16 184 86 28 57 24 128 -11 178 -38 56 -65 66 -173 66 l-96 0 0 -165z" transform="translate(0.000000,1024.000000) scale(0.100000,-0.100000)"/><path d="M2457 3533 c-4 -3 -7 -204 -7 -445 l0 -438 2660 0 2660 0 0 445 0 445 -2653 0 c-1460 0 -2657 -3 -2660 -7z" transform="translate(0.000000,1024.000000) scale(0.100000,-0.100000)"/></svg>