<svg xmlns="http://www.w3.org/2000/svg" xmlns:xlink="http://www.w3.org/1999/xlink" width="1315" height="742" viewBox="0 0 1315 742">
    <defs>
        <path id="b" d="M5.192.81h1192.616c1.805 0 2.46.188 3.12.54a3.68 3.68 0 0 1 1.531 1.532c.353.66.541 1.314.541 3.12v790.806c0 1.805-.188 2.46-.54 3.12a3.68 3.68 0 0 1-1.532 1.531c-.66.353-1.315.541-3.12.541H5.192c-1.805 0-2.46-.188-3.12-.54a3.68 3.68 0 0 1-1.531-1.532c-.353-.66-.541-1.315-.541-3.12V6.002c0-1.806.188-2.46.54-3.12A3.68 3.68 0 0 1 2.073 1.35C2.732.998 3.387.81 5.192.81z"/>
        <filter id="a" width="116.2%" height="124.3%" x="-8.1%" y="-9.2%" filterUnits="objectBoundingBox">
            <feOffset dy="24" in="SourceAlpha" result="shadowOffsetOuter1"/>
            <feGaussianBlur in="shadowOffsetOuter1" result="shadowBlurOuter1" stdDeviation="28.5"/>
            <feColorMatrix in="shadowBlurOuter1" values="0 0 0 0 0.149019608 0 0 0 0 0.176470588 0 0 0 0 0.254901961 0 0 0 0.1 0"/>
        </filter>
    </defs>
    <g fill="none" fill-rule="evenodd" transform="translate(56 32)">
        <use fill="#000" filter="url(#a)" xlink:href="#b"/>
        <use fill="#FFF" xlink:href="#b"/>
        <path fill="#EAEEF4" d="M5.192 0h1192.616c1.805 0 2.46.188 3.12.54a3.68 3.68 0 0 1 1.531 1.532c.353.66.541 1.315.541 3.12v23.961H0V5.192c0-1.805.188-2.46.54-3.12A3.68 3.68 0 0 1 2.073.54C2.732.188 3.387 0 5.192 0z"/>
        <ellipse cx="17.018" cy="14.577" fill="#99A1B8" rx="4.052" ry="4.049"/>
        <ellipse cx="31.604" cy="14.577" fill="#D9DBE6" rx="4.052" ry="4.049"/>
        <ellipse cx="46.191" cy="14.577" fill="#FEFEFF" rx="4.052" ry="4.049"/>
    </g>
</svg>
