<?xml version="1.0" encoding="utf-8"?>
<!-- Generator: Adobe Illustrator 16.0.0, SVG Export Plug-In . SVG Version: 6.00 Build 0)  -->
<!DOCTYPE svg PUBLIC "-//W3C//DTD SVG 1.1//EN" "http://www.w3.org/Graphics/SVG/1.1/DTD/svg11.dtd">
<svg version="1.1" id="Layer_1" xmlns="http://www.w3.org/2000/svg" xmlns:xlink="http://www.w3.org/1999/xlink" x="0px" y="0px"
	 width="125px" height="37px" viewBox="62.5 19 125 37" enable-background="new 62.5 19 125 37" xml:space="preserve">
<g display="none">
	<g display="inline">
		<defs>
			<rect id="SVGID_1_" x="-59.587" y="-257.138" width="411.003" height="581.276"/>
		</defs>
		<clipPath id="SVGID_2_">
			<use xlink:href="#SVGID_1_"  overflow="visible"/>
		</clipPath>
		<path clip-path="url(#SVGID_2_)" d="M41.022,43.948c0.045,0.254,0.052,0.587,0.017,1.002c-0.035,0.414-0.074,0.735-0.121,0.966
			c-0.046,0.23-0.093,0.449-0.138,0.656c-0.046,0.207-0.104,0.402-0.173,0.587c-0.483,1.151-1.231,2.095-2.244,2.831
			c-0.392,0.275-0.811,0.513-1.26,0.708c-0.449,0.194-0.927,0.374-1.433,0.534c-0.254,0.093-0.518,0.156-0.794,0.189
			c-0.276,0.034-0.542,0.075-0.794,0.121c-0.115,0.021-0.225,0.034-0.328,0.034c-0.104,0-0.213,0.012-0.329,0.034
			c-0.092,0.022-0.189,0.022-0.293,0s-0.213-0.012-0.328,0.035c-0.093,0.022-0.19,0.027-0.293,0.017
			c-0.104-0.011-0.213-0.017-0.328-0.017H22.104c-0.391,0-0.719-0.019-0.983-0.053c-0.264-0.033-0.454-0.189-0.57-0.467
			c-0.069-0.184-0.098-0.466-0.086-0.846c0.011-0.381,0.018-0.696,0.018-0.949V29.069c0-0.276-0.006-0.569-0.018-0.88
			c-0.012-0.311,0.041-0.559,0.156-0.743c0.092-0.16,0.264-0.275,0.518-0.345c0.046-0.022,0.092-0.029,0.138-0.017
			c0.045,0.011,0.092,0.006,0.138-0.018h10.288c0.161,0,0.321-0.006,0.483-0.018c0.161-0.012,0.311-0.005,0.448,0.018
			c0.116,0.046,0.23,0.057,0.346,0.034s0.229-0.022,0.345,0h0.207c0.138,0.046,0.281,0.063,0.432,0.053
			c0.149-0.013,0.304,0.005,0.466,0.051c0.184,0.046,0.363,0.081,0.535,0.104c0.172,0.022,0.351,0.058,0.535,0.103
			c0.438,0.161,0.852,0.317,1.243,0.467c0.391,0.149,0.748,0.339,1.07,0.569c0.46,0.322,0.839,0.725,1.139,1.208
			c0.299,0.483,0.541,1.036,0.725,1.657c0.046,0.161,0.075,0.322,0.086,0.483c0.011,0.161,0.04,0.334,0.086,0.518
			c0.022,0.092,0.028,0.185,0.018,0.276c-0.012,0.092-0.006,0.185,0.017,0.275c0.022,0.069,0.029,0.156,0.017,0.26
			c-0.012,0.104-0.029,0.179-0.052,0.224v0.311c0,0.069-0.005,0.15-0.017,0.242c-0.012,0.093-0.018,0.161-0.018,0.207
			c-0.046,0.162-0.074,0.306-0.086,0.432c-0.011,0.127-0.041,0.248-0.086,0.363c-0.3,0.827-0.69,1.507-1.174,2.036
			c-0.162,0.162-0.334,0.3-0.518,0.415c-0.184,0.114-0.345,0.265-0.483,0.447c-0.046,0.047-0.098,0.11-0.155,0.191
			c-0.058,0.08-0.063,0.178-0.018,0.292c0.046,0.187,0.195,0.341,0.449,0.467c0.252,0.126,0.471,0.248,0.656,0.363
			c0.622,0.413,1.127,0.896,1.519,1.448c0.369,0.53,0.656,1.151,0.863,1.864c0.069,0.185,0.115,0.374,0.138,0.569
			c0.022,0.195,0.057,0.386,0.104,0.57L41.022,43.948L41.022,43.948z M26.005,31.589c-0.115,0.162-0.173,0.363-0.173,0.604v0.742
			V34.8c0,0.16-0.006,0.327-0.017,0.5c-0.012,0.173-0.006,0.316,0.017,0.431v0.347c0.046,0.137,0.081,0.258,0.104,0.362
			s0.057,0.201,0.104,0.293c0.092,0.116,0.236,0.196,0.432,0.242c0.196,0.046,0.414,0.074,0.656,0.086
			c0.242,0.012,0.489,0.012,0.743,0c0.252-0.012,0.483-0.017,0.69-0.017c0.345,0,0.708,0.005,1.087,0.017s0.76,0.017,1.139,0.017
			c0.38,0,0.742-0.017,1.087-0.051c0.345-0.035,0.645-0.098,0.897-0.19c0.69-0.229,1.208-0.633,1.554-1.208
			c0.161-0.299,0.265-0.69,0.311-1.174c0.045-0.782-0.069-1.398-0.346-1.848c-0.276-0.448-0.679-0.8-1.208-1.052
			c-0.139-0.046-0.288-0.087-0.449-0.122c-0.161-0.034-0.333-0.074-0.518-0.12c-0.093-0.022-0.23-0.034-0.414-0.034
			c-0.276-0.069-0.592-0.099-0.95-0.087c-0.357,0.012-0.696,0.018-1.018,0.018h-2.935c-0.046,0.023-0.098,0.034-0.156,0.034
			s-0.108,0.012-0.155,0.035C26.257,31.348,26.097,31.452,26.005,31.589 M35.671,44.501c0.045-0.321,0.029-0.667-0.053-1.036
			c-0.08-0.367-0.167-0.645-0.258-0.828c-0.323-0.828-0.955-1.402-1.899-1.727c-0.391-0.114-0.823-0.184-1.294-0.206
			c-0.472-0.022-0.961-0.035-1.467-0.035h-3.901c-0.046,0.047-0.086,0.063-0.121,0.054c-0.035-0.014-0.075-0.019-0.121-0.019
			c-0.276,0.067-0.46,0.185-0.552,0.345c-0.115,0.186-0.173,0.42-0.173,0.708v0.812v3.072c0,0.275,0.005,0.559,0.017,0.846
			c0.012,0.287,0.075,0.513,0.19,0.674c0.092,0.115,0.242,0.201,0.449,0.26c0.207,0.057,0.442,0.092,0.708,0.104
			c0.264,0.012,0.535,0.012,0.811,0c0.276-0.012,0.518-0.018,0.726-0.018c0.69,0,1.357,0.006,2.002,0.018
			c0.644,0.012,1.254-0.022,1.83-0.104c0.575-0.081,1.088-0.219,1.536-0.415c0.449-0.194,0.812-0.501,1.087-0.915
			c0.115-0.184,0.208-0.396,0.276-0.639c0.069-0.241,0.138-0.489,0.208-0.742L35.671,44.501L35.671,44.501z"/>
	</g>
	<g display="inline">
		<defs>
			<rect id="SVGID_3_" x="-59.587" y="-257.138" width="411.003" height="581.276"/>
		</defs>
		<clipPath id="SVGID_4_">
			<use xlink:href="#SVGID_3_"  overflow="visible"/>
		</clipPath>
		<path clip-path="url(#SVGID_4_)" d="M54.347,33.419c0.253,0,0.477,0.023,0.674,0.069c0.194,0.046,0.351,0.149,0.465,0.311
			c0.139,0.185,0.208,0.501,0.208,0.949v1.192c0,0.253,0.005,0.54,0.018,0.863c0.011,0.321-0.03,0.575-0.122,0.758
			c-0.091,0.162-0.224,0.266-0.396,0.312c-0.172,0.047-0.37,0.068-0.587,0.068c-0.219,0-0.449-0.011-0.691-0.034
			c-0.242-0.022-0.465-0.012-0.673,0.034c-0.161,0.047-0.322,0.075-0.483,0.086c-0.162,0.013-0.311,0.041-0.449,0.087
			c-0.368,0.114-0.736,0.28-1.104,0.501c-0.368,0.219-0.656,0.466-0.863,0.742c-0.116,0.184-0.236,0.375-0.363,0.568
			c-0.127,0.195-0.249,0.396-0.363,0.604c-0.069,0.186-0.132,0.375-0.189,0.57c-0.058,0.195-0.11,0.385-0.156,0.569
			c-0.046,0.16-0.069,0.327-0.069,0.5c0,0.172-0.023,0.339-0.069,0.501c-0.023,0.092-0.029,0.178-0.017,0.26
			c0.011,0.08,0.005,0.153-0.017,0.223v0.554c-0.046,0.161-0.058,0.341-0.034,0.535c0.022,0.194,0.034,0.386,0.034,0.567v2.211
			v2.936c0,0.299-0.012,0.574-0.034,0.828c-0.024,0.253-0.093,0.461-0.208,0.621c-0.046,0.07-0.121,0.119-0.224,0.156
			c-0.104,0.033-0.213,0.063-0.328,0.086h-0.173c-0.115,0.022-0.242,0.033-0.379,0.033h-0.38H45.89
			c-0.138-0.022-0.283-0.033-0.432-0.033h-0.466c-0.115-0.047-0.23-0.086-0.345-0.123c-0.116-0.032-0.196-0.107-0.242-0.224
			c-0.093-0.114-0.145-0.28-0.156-0.501c-0.012-0.218-0.017-0.443-0.017-0.672v-2.348v-9.734v-2.556v-0.671
			c0-0.22,0.046-0.397,0.138-0.537c0.115-0.184,0.288-0.298,0.518-0.344s0.506-0.069,0.829-0.069h1.761
			c0.276,0,0.518,0.017,0.725,0.052c0.207,0.034,0.368,0.145,0.483,0.328c0.069,0.115,0.109,0.275,0.121,0.483
			c0.011,0.207,0.028,0.408,0.052,0.604c0.022,0.195,0.063,0.374,0.121,0.534c0.057,0.162,0.167,0.242,0.329,0.242
			c0.045-0.047,0.091-0.069,0.137-0.069c0.046,0,0.092-0.022,0.139-0.069c0.138-0.114,0.259-0.247,0.362-0.397
			c0.103-0.148,0.235-0.281,0.397-0.396c0.091-0.068,0.172-0.144,0.241-0.224c0.069-0.081,0.149-0.156,0.241-0.225
			c0.208-0.138,0.42-0.277,0.639-0.414c0.218-0.139,0.442-0.265,0.673-0.38c0.23-0.093,0.467-0.173,0.708-0.242
			c0.242-0.069,0.489-0.139,0.742-0.207c0.069-0.023,0.201-0.028,0.398-0.018C54.18,33.482,54.301,33.465,54.347,33.419"/>
	</g>
	<g display="inline">
		<defs>
			<rect id="SVGID_5_" x="-59.587" y="-257.138" width="411.003" height="581.276"/>
		</defs>
		<clipPath id="SVGID_6_">
			<use xlink:href="#SVGID_5_"  overflow="visible"/>
		</clipPath>
		<path clip-path="url(#SVGID_6_)" d="M62.426,27.31c0.16,0.184,0.241,0.46,0.241,0.827v1.07v0.932c0,0.323-0.081,0.542-0.241,0.657
			c-0.139,0.115-0.317,0.185-0.536,0.206c-0.218,0.024-0.455,0.035-0.708,0.035h-1.934c-0.253,0-0.478-0.011-0.673-0.035
			c-0.196-0.021-0.363-0.091-0.501-0.206c-0.092-0.069-0.155-0.201-0.189-0.397c-0.034-0.195-0.058-0.414-0.069-0.655
			c-0.012-0.242-0.012-0.489,0-0.743c0.011-0.253,0.018-0.471,0.018-0.655c0-0.184,0.005-0.351,0.018-0.501
			c0.011-0.149,0.051-0.281,0.121-0.397c0.045-0.091,0.108-0.159,0.189-0.206c0.08-0.047,0.167-0.092,0.259-0.139
			c0.046,0,0.104-0.005,0.173-0.017c0.069-0.013,0.126-0.017,0.172-0.017h2.521c0.229,0,0.449,0.011,0.656,0.033
			C62.149,27.125,62.31,27.193,62.426,27.31 M62.667,49.783c0,0.461-0.012,0.852-0.034,1.174c-0.024,0.322-0.231,0.541-0.622,0.654
			c-0.138,0.047-0.288,0.063-0.448,0.053c-0.162-0.012-0.334-0.018-0.518-0.018h-1.934c-0.207,0-0.408-0.012-0.604-0.035
			c-0.196-0.021-0.34-0.09-0.432-0.207c-0.138-0.159-0.213-0.361-0.224-0.604c-0.012-0.24-0.018-0.5-0.018-0.775V35.457v-0.691
			c0-0.229,0.046-0.414,0.138-0.552c0.138-0.161,0.334-0.265,0.586-0.312c0.046-0.022,0.109-0.028,0.19-0.017
			c0.08,0.012,0.144,0.006,0.189-0.018h1.727c0.138,0,0.294-0.006,0.466-0.018c0.173-0.012,0.316-0.005,0.432,0.018h0.276
			c0.138,0.047,0.265,0.081,0.38,0.104c0.114,0.022,0.208,0.092,0.276,0.207c0.091,0.115,0.144,0.276,0.155,0.483
			c0.012,0.207,0.018,0.426,0.018,0.656L62.667,49.783L62.667,49.783z"/>
	</g>
	<g display="inline">
		<defs>
			<rect id="SVGID_7_" x="-59.587" y="-257.138" width="411.003" height="581.276"/>
		</defs>
		<clipPath id="SVGID_8_">
			<use xlink:href="#SVGID_7_"  overflow="visible"/>
		</clipPath>
		<path clip-path="url(#SVGID_8_)" d="M83.967,49.714v0.949c0,0.312-0.069,0.558-0.207,0.741c-0.115,0.117-0.265,0.191-0.448,0.226
			c-0.185,0.034-0.392,0.052-0.622,0.052h-1.899c-0.23,0-0.443-0.006-0.639-0.018c-0.196-0.012-0.351-0.063-0.465-0.155
			c-0.162-0.114-0.254-0.264-0.277-0.448c-0.023-0.184-0.069-0.367-0.138-0.553c-0.046-0.045-0.086-0.086-0.121-0.121l-0.122-0.119
			c-0.253,0-0.437,0.058-0.552,0.172c-0.116,0.115-0.23,0.229-0.345,0.346c-0.162,0.115-0.312,0.213-0.449,0.294
			c-0.138,0.08-0.288,0.178-0.449,0.292c-0.091,0.047-0.19,0.093-0.293,0.139c-0.104,0.047-0.214,0.094-0.329,0.139
			c-0.322,0.115-0.667,0.22-1.036,0.312c-0.115,0.046-0.218,0.069-0.31,0.069c-0.093,0-0.185,0.011-0.276,0.033
			c-0.115,0-0.213,0.006-0.293,0.019c-0.081,0.011-0.179,0.017-0.293,0.017h-0.311c-0.138,0.047-0.345,0.063-0.621,0.053
			c-0.276-0.012-0.472-0.041-0.587-0.086c-0.161-0.047-0.305-0.063-0.432-0.054c-0.127,0.013-0.259-0.005-0.397-0.051
			c-0.276-0.092-0.547-0.179-0.811-0.259c-0.265-0.081-0.524-0.178-0.776-0.294c-0.806-0.345-1.525-0.88-2.158-1.605
			c-0.633-0.725-1.133-1.489-1.501-2.295c-0.115-0.254-0.208-0.501-0.276-0.741c-0.069-0.242-0.149-0.49-0.241-0.744
			c-0.023-0.092-0.035-0.178-0.035-0.258s-0.023-0.179-0.069-0.293c-0.046-0.185-0.086-0.386-0.121-0.604
			c-0.035-0.22-0.075-0.443-0.121-0.675c-0.023-0.068-0.029-0.148-0.018-0.241c0.011-0.093,0.005-0.173-0.018-0.241v-0.328
			c0-0.104-0.012-0.212-0.034-0.328c-0.024-0.115-0.035-0.246-0.035-0.396s0.011-0.271,0.035-0.362
			c0.022-0.115,0.034-0.225,0.034-0.329v-0.327c0.022-0.115,0.028-0.225,0.018-0.328c-0.012-0.103,0.005-0.211,0.052-0.328
			c0.045-0.252,0.086-0.493,0.121-0.725c0.035-0.23,0.086-0.46,0.155-0.689c0.092-0.276,0.172-0.541,0.242-0.795
			c0.069-0.252,0.161-0.506,0.275-0.758c0.323-0.691,0.726-1.348,1.208-1.97c0.046-0.069,0.11-0.132,0.19-0.189
			c0.081-0.058,0.144-0.122,0.19-0.19c0.092-0.114,0.183-0.219,0.276-0.311c0.091-0.092,0.195-0.184,0.31-0.275
			c0.092-0.046,0.173-0.109,0.242-0.19c0.069-0.08,0.149-0.144,0.242-0.19c0.575-0.391,1.242-0.713,2.001-0.967
			c0.161-0.046,0.328-0.079,0.501-0.103c0.173-0.024,0.351-0.058,0.535-0.104c0.161-0.046,0.368-0.075,0.622-0.087
			c0.254-0.012,0.506-0.018,0.76-0.018c0.253,0,0.5,0.013,0.743,0.035c0.241,0.023,0.442,0.057,0.604,0.104
			c0.345,0.115,0.679,0.219,1,0.311c0.322,0.092,0.622,0.219,0.898,0.38c0.16,0.115,0.31,0.225,0.448,0.328
			c0.138,0.103,0.288,0.213,0.448,0.328c0.092,0.069,0.226,0.161,0.398,0.275c0.172,0.115,0.338,0.115,0.5,0
			c0.092-0.046,0.137-0.126,0.137-0.241c0-0.115,0.023-0.229,0.07-0.345v-0.346c0.023-0.069,0.034-0.149,0.034-0.241v-0.277v-4.694
			c0-0.254-0.005-0.535-0.018-0.846c-0.011-0.311,0.041-0.547,0.156-0.708c0.092-0.185,0.264-0.299,0.518-0.345
			c0.045-0.023,0.092-0.028,0.139-0.019c0.046,0.013,0.092,0.006,0.137-0.017h2.452c0.276,0,0.528,0.012,0.759,0.035
			c0.23,0.022,0.402,0.114,0.518,0.275c0.115,0.186,0.172,0.42,0.172,0.708v0.846v20.746H83.967z M79.272,42.947
			c0.023-0.092,0.029-0.189,0.017-0.293c-0.012-0.104-0.017-0.201-0.017-0.295c0-0.229-0.012-0.459-0.035-0.688
			c-0.022-0.229-0.058-0.438-0.104-0.622c-0.046-0.253-0.086-0.482-0.121-0.689c-0.035-0.207-0.098-0.402-0.189-0.588
			c-0.323-0.828-0.789-1.484-1.398-1.968c-0.611-0.482-1.49-0.725-2.641-0.725c-0.139,0-0.322,0.024-0.552,0.07
			c-0.185,0.046-0.352,0.086-0.5,0.12c-0.15,0.035-0.294,0.087-0.432,0.155c-0.622,0.254-1.105,0.646-1.45,1.175
			c-0.345,0.529-0.621,1.127-0.829,1.795c-0.068,0.229-0.115,0.461-0.137,0.689c-0.025,0.23-0.07,0.473-0.139,0.727v0.482
			c-0.046,0.207-0.058,0.488-0.034,0.846c0.022,0.356,0.057,0.615,0.103,0.776c0,0.069,0.005,0.134,0.017,0.188
			c0.012,0.06,0.018,0.11,0.018,0.156c0.046,0.184,0.086,0.355,0.121,0.518c0.034,0.162,0.074,0.334,0.12,0.519
			c0.391,1.197,1.059,2.083,2.002,2.658c0.299,0.207,0.714,0.368,1.243,0.483c0.092,0.022,0.229,0.033,0.415,0.033
			c0.069,0.024,0.178,0.041,0.327,0.053c0.15,0.013,0.27,0.006,0.363-0.018c0.184-0.046,0.369-0.081,0.552-0.104
			c0.184-0.023,0.369-0.07,0.552-0.14c0.575-0.252,1.036-0.575,1.381-0.967c0.345-0.392,0.644-0.886,0.898-1.483
			c0.092-0.207,0.161-0.42,0.206-0.639c0.046-0.219,0.093-0.455,0.139-0.708c0.022-0.114,0.028-0.225,0.017-0.327
			c-0.011-0.104,0.006-0.214,0.052-0.328c0.023-0.068,0.035-0.149,0.035-0.242v-0.311V42.947z"/>
	</g>
	<g display="inline">
		<defs>
			<rect id="SVGID_9_" x="-59.587" y="-257.138" width="411.003" height="581.276"/>
		</defs>
		<clipPath id="SVGID_10_">
			<use xlink:href="#SVGID_9_"  overflow="visible"/>
		</clipPath>
		<path clip-path="url(#SVGID_10_)" d="M104.507,34.075c0.161,0.114,0.247,0.306,0.259,0.57c0.011,0.265,0.017,0.534,0.017,0.812
			v14.738c0,0.187-0.006,0.363-0.017,0.537c-0.012,0.172-0.018,0.351-0.018,0.533c-0.023,0.187-0.041,0.353-0.052,0.502
			c-0.011,0.148-0.029,0.315-0.052,0.5c-0.092,0.322-0.167,0.627-0.224,0.916c-0.058,0.287-0.144,0.558-0.258,0.811
			c-0.392,0.875-0.893,1.602-1.502,2.176c-0.61,0.574-1.353,1.047-2.227,1.415c-0.253,0.114-0.507,0.206-0.759,0.276
			c-0.253,0.068-0.518,0.138-0.794,0.207c-0.253,0.066-0.507,0.115-0.759,0.138c-0.254,0.022-0.507,0.058-0.76,0.104
			c-0.092,0-0.184,0.006-0.276,0.019c-0.093,0.011-0.197,0.017-0.311,0.017c-0.092,0.022-0.196,0.028-0.31,0.018
			c-0.116-0.012-0.231-0.006-0.346,0.018c-0.115,0.023-0.266,0.035-0.449,0.035c-0.184,0-0.334-0.012-0.449-0.035h-0.31
			c-0.093,0-0.185-0.012-0.276-0.033c-0.184-0.048-0.375-0.07-0.569-0.07c-0.197,0-0.375-0.021-0.535-0.068
			c-0.046-0.021-0.104-0.034-0.172-0.034s-0.127-0.011-0.173-0.036c-0.23-0.045-0.455-0.096-0.673-0.152
			c-0.219-0.059-0.432-0.135-0.639-0.226c-0.875-0.368-1.658-0.835-2.348-1.397c-0.69-0.563-1.196-1.317-1.518-2.262
			c-0.047-0.068-0.069-0.139-0.069-0.207c0-0.069-0.012-0.127-0.035-0.172c-0.069-0.301-0.041-0.523,0.086-0.675
			c0.127-0.149,0.305-0.247,0.536-0.293c0.229-0.047,0.488-0.063,0.776-0.053c0.287,0.013,0.558,0.019,0.811,0.019h1.174
			c0.115,0,0.213,0.006,0.293,0.018s0.178,0.018,0.293,0.018c0.368,0.092,0.599,0.212,0.69,0.362
			c0.092,0.149,0.229,0.351,0.414,0.604c0.069,0.092,0.172,0.207,0.312,0.344c0.022,0.047,0.046,0.082,0.069,0.104
			s0.046,0.058,0.069,0.104c0.183,0.138,0.38,0.265,0.586,0.379c0.208,0.113,0.438,0.219,0.691,0.312
			c0.161,0.046,0.322,0.074,0.484,0.086c0.16,0.013,0.333,0.04,0.518,0.087h0.378c0.162,0.045,0.369,0.051,0.622,0.018
			c0.253-0.035,0.449-0.075,0.586-0.122c0.115-0.046,0.213-0.067,0.294-0.067c0.08,0,0.166-0.023,0.259-0.068
			c0.483-0.209,0.886-0.483,1.208-0.83c0.322-0.344,0.586-0.748,0.794-1.207c0.045-0.139,0.08-0.276,0.103-0.416
			c0.023-0.137,0.057-0.286,0.103-0.447c0.046-0.207,0.075-0.432,0.086-0.674c0.012-0.24,0.018-0.488,0.018-0.742
			c0-0.091,0.005-0.184,0.018-0.275c0.011-0.092,0.005-0.172-0.018-0.242c-0.046-0.113-0.063-0.217-0.051-0.31
			c0.011-0.092-0.007-0.187-0.053-0.276c-0.023-0.045-0.051-0.082-0.086-0.104c-0.034-0.021-0.075-0.057-0.12-0.104
			c-0.208-0.022-0.375,0.022-0.501,0.139c-0.127,0.115-0.248,0.219-0.362,0.311c-0.208,0.161-0.415,0.312-0.622,0.448
			c-0.208,0.14-0.438,0.265-0.69,0.379c-0.253,0.117-0.507,0.209-0.759,0.277c-0.253,0.067-0.518,0.139-0.794,0.207
			c-0.138,0.022-0.271,0.041-0.397,0.053c-0.127,0.011-0.247,0.028-0.362,0.051c-0.116,0.023-0.3,0.035-0.553,0.035
			s-0.437-0.012-0.552-0.035h-0.276c-0.069-0.021-0.144-0.034-0.225-0.034c-0.08,0-0.167-0.012-0.259-0.035
			c-0.322-0.066-0.632-0.131-0.932-0.188s-0.576-0.144-0.828-0.258c-0.99-0.392-1.79-0.938-2.4-1.642s-1.122-1.547-1.536-2.537
			c-0.115-0.252-0.196-0.519-0.242-0.793c-0.046-0.277-0.115-0.553-0.207-0.83c0-0.113-0.012-0.207-0.035-0.275
			c-0.046-0.184-0.069-0.385-0.069-0.604s-0.024-0.42-0.069-0.604c-0.024-0.114-0.035-0.224-0.035-0.328V42.68
			c-0.023-0.115-0.035-0.259-0.035-0.432s0.012-0.316,0.035-0.432v-0.346c0.023-0.093,0.028-0.185,0.018-0.275
			c-0.012-0.092,0.005-0.186,0.051-0.277c0.046-0.229,0.081-0.453,0.104-0.672s0.058-0.443,0.104-0.674
			c0.137-0.461,0.281-0.898,0.431-1.313c0.148-0.414,0.338-0.806,0.569-1.175c0.115-0.229,0.248-0.442,0.397-0.638
			c0.149-0.196,0.304-0.398,0.466-0.604c0.069-0.114,0.167-0.229,0.294-0.346c0.126-0.114,0.247-0.218,0.362-0.311l0.207-0.206
			c0.115-0.092,0.23-0.179,0.346-0.26c0.115-0.081,0.229-0.155,0.345-0.225c0.299-0.184,0.609-0.346,0.932-0.483
			c0.322-0.137,0.679-0.264,1.071-0.38c0.183-0.069,0.374-0.108,0.569-0.121c0.196-0.011,0.386-0.039,0.57-0.086
			c0.092-0.023,0.219-0.023,0.379,0c0.162,0.023,0.265,0.013,0.312-0.034c0.736-0.022,1.397,0.047,1.984,0.207
			c0.587,0.161,1.11,0.393,1.571,0.69c0.069,0.047,0.138,0.099,0.207,0.155c0.069,0.058,0.15,0.121,0.241,0.189
			c0.139,0.116,0.265,0.231,0.38,0.347c0.114,0.114,0.252,0.219,0.414,0.311c0.046,0.022,0.109,0.046,0.19,0.068
			c0.08,0.023,0.144,0.013,0.19-0.034c0.114-0.046,0.183-0.126,0.206-0.241c0.023-0.116,0.058-0.23,0.104-0.346
			c0.045-0.115,0.086-0.236,0.121-0.363c0.034-0.125,0.098-0.235,0.189-0.327c0.139-0.092,0.304-0.144,0.501-0.156
			c0.194-0.011,0.396-0.016,0.604-0.016h1.76c0.253,0,0.478,0.005,0.673,0.016C104.202,33.897,104.369,33.961,104.507,34.075
			 M99.778,44.743c0.092-0.208,0.172-0.472,0.242-0.795c0.069-0.322,0.115-0.661,0.138-1.019c0.023-0.356,0.028-0.707,0.018-1.054
			c-0.012-0.345-0.052-0.655-0.122-0.931c-0.046-0.092-0.063-0.168-0.051-0.225c0.011-0.06,0.005-0.135-0.018-0.227
			c-0.046-0.16-0.092-0.321-0.137-0.483c-0.046-0.159-0.104-0.311-0.173-0.448c-0.323-0.806-0.783-1.427-1.381-1.863
			c-0.599-0.437-1.474-0.655-2.624-0.655c-0.046,0.046-0.109,0.063-0.19,0.051c-0.08-0.011-0.155-0.005-0.224,0.018
			c-0.162,0.046-0.311,0.086-0.449,0.121c-0.137,0.034-0.276,0.074-0.414,0.121c-0.599,0.253-1.059,0.633-1.381,1.139
			c-0.322,0.507-0.586,1.07-0.794,1.689c-0.046,0.116-0.068,0.209-0.068,0.278c0,0.067-0.012,0.16-0.035,0.274
			c-0.069,0.254-0.115,0.621-0.138,1.104s0,0.875,0.069,1.175v0.346c0.046,0.185,0.081,0.361,0.104,0.533
			c0.022,0.172,0.057,0.353,0.104,0.535c0.207,0.6,0.46,1.122,0.759,1.57c0.299,0.45,0.713,0.813,1.243,1.088
			c0.23,0.115,0.552,0.229,0.966,0.346c0.161,0,0.287,0.012,0.38,0.034c0.046,0,0.115,0.007,0.207,0.019
			c0.092,0.012,0.161,0.005,0.207-0.019h0.345c0.208-0.046,0.402-0.079,0.586-0.104c0.185-0.021,0.368-0.079,0.553-0.172
			c0.575-0.229,1.041-0.553,1.398-0.967C99.254,45.813,99.548,45.318,99.778,44.743"/>
	</g>
	<g display="inline">
		<defs>
			<rect id="SVGID_11_" x="-59.587" y="-257.138" width="411.003" height="581.276"/>
		</defs>
		<clipPath id="SVGID_12_">
			<use xlink:href="#SVGID_11_"  overflow="visible"/>
		</clipPath>
		<path clip-path="url(#SVGID_12_)" d="M125.635,42.602c0.045,0.187,0.045,0.394,0,0.623c-0.047,0.229-0.128,0.379-0.242,0.447
			c-0.115,0.094-0.281,0.156-0.501,0.189c-0.219,0.035-0.46,0.06-0.724,0.068c-0.265,0.014-0.53,0.014-0.795,0
			c-0.266-0.01-0.5-0.017-0.708-0.017h-8.422h-0.467c-0.149,0-0.282,0.022-0.396,0.069c-0.185,0.092-0.3,0.185-0.345,0.275
			c-0.046,0.047-0.092,0.133-0.139,0.258c-0.046,0.129-0.058,0.248-0.033,0.363c0.045,0.139,0.074,0.271,0.086,0.396
			c0.012,0.127,0.04,0.259,0.086,0.396c0.184,0.553,0.407,1.008,0.673,1.363c0.264,0.357,0.627,0.674,1.087,0.949
			c0.184,0.115,0.374,0.189,0.571,0.225c0.195,0.034,0.396,0.087,0.604,0.156c0.184,0.046,0.437,0.08,0.759,0.103
			c0.322,0.024,0.598,0.013,0.828-0.034h0.312c0.229-0.045,0.443-0.098,0.638-0.154c0.195-0.059,0.386-0.121,0.57-0.19
			c0.229-0.114,0.488-0.264,0.776-0.448c0.287-0.184,0.5-0.367,0.638-0.553c0.114-0.16,0.237-0.316,0.363-0.466
			s0.282-0.259,0.466-0.327c0.229-0.115,0.523-0.168,0.88-0.156c0.357,0.012,0.686,0.019,0.984,0.019
			c0.138,0,0.281-0.007,0.431-0.019c0.15-0.012,0.282,0.006,0.397,0.053h0.346c0.229,0.047,0.391,0.104,0.482,0.173
			c0.092,0.046,0.145,0.149,0.156,0.311c0.011,0.161-0.006,0.3-0.053,0.414c-0.115,0.323-0.24,0.61-0.379,0.863
			c-0.138,0.253-0.299,0.507-0.482,0.76c-0.508,0.761-1.083,1.37-1.727,1.829c-0.646,0.461-1.451,0.852-2.417,1.175
			c-0.253,0.093-0.506,0.149-0.76,0.173c-0.253,0.022-0.518,0.068-0.793,0.139c-0.092,0.021-0.19,0.027-0.294,0.017
			c-0.104-0.012-0.201-0.006-0.293,0.019h-0.38c-0.115,0.045-0.246,0.063-0.397,0.051c-0.149-0.012-0.281-0.028-0.397-0.051
			c-0.184-0.023-0.345-0.023-0.483,0c-0.139,0.021-0.289,0.012-0.449-0.035c-0.115-0.047-0.241-0.068-0.38-0.068
			c-0.138,0-0.264-0.023-0.379-0.068c-0.254-0.048-0.506-0.1-0.76-0.156c-0.252-0.058-0.483-0.144-0.69-0.258
			c-0.253-0.092-0.49-0.179-0.708-0.26c-0.219-0.081-0.42-0.179-0.604-0.294c-0.737-0.459-1.394-0.995-1.968-1.604
			c-0.576-0.609-1.047-1.317-1.416-2.123c-0.115-0.254-0.208-0.512-0.276-0.776c-0.068-0.265-0.162-0.535-0.276-0.812
			c-0.022-0.092-0.034-0.178-0.034-0.258c0-0.082-0.012-0.168-0.035-0.261c-0.092-0.276-0.15-0.573-0.173-0.897
			c-0.023-0.321-0.046-0.645-0.069-0.967c0-0.115-0.006-0.242-0.017-0.379c-0.012-0.139-0.006-0.265,0.017-0.381V42.05l0.104-0.829
			c0.092-0.391,0.172-0.771,0.241-1.138c0.069-0.369,0.172-0.714,0.31-1.036c0.99-2.394,2.67-4.086,5.041-5.076
			c0.322-0.137,0.65-0.234,0.984-0.292c0.334-0.059,0.686-0.133,1.053-0.225c0.184-0.022,0.356-0.035,0.518-0.035
			c0.162,0,0.334-0.011,0.518-0.034c1.174-0.022,2.181,0.109,3.021,0.396c0.841,0.288,1.594,0.663,2.262,1.123
			c0.208,0.138,0.414,0.293,0.622,0.466c0.207,0.173,0.392,0.352,0.552,0.534c0.07,0.116,0.162,0.208,0.275,0.277
			c0.186,0.253,0.357,0.513,0.519,0.776c0.161,0.266,0.335,0.535,0.519,0.812c0.113,0.206,0.212,0.42,0.293,0.639
			c0.08,0.218,0.166,0.453,0.26,0.708c0.114,0.299,0.206,0.608,0.276,0.931c0.068,0.324,0.147,0.645,0.241,0.969
			c0.046,0.185,0.063,0.385,0.051,0.604c-0.011,0.22,0.006,0.42,0.053,0.604v0.379H125.635z M120.457,40.564
			c0.16-0.229,0.178-0.512,0.051-0.846c-0.126-0.333-0.224-0.58-0.293-0.742c-0.322-0.621-0.748-1.099-1.277-1.433
			c-0.529-0.333-1.267-0.513-2.209-0.535c-0.069,0.047-0.149,0.058-0.241,0.035c-0.092-0.023-0.172-0.023-0.242,0
			c-0.115,0.046-0.242,0.074-0.379,0.086c-0.138,0.012-0.266,0.04-0.38,0.086c-1.013,0.322-1.76,0.955-2.244,1.899
			c-0.046,0.092-0.097,0.213-0.155,0.361c-0.057,0.149-0.098,0.301-0.121,0.448c-0.022,0.15-0.017,0.294,0.017,0.433
			c0.035,0.138,0.109,0.252,0.226,0.346c0.184,0.113,0.437,0.172,0.759,0.172h0.932h3.833c0.321,0,0.661-0.006,1.018-0.018
			C120.106,40.848,120.34,40.75,120.457,40.564"/>
	</g>
	<g display="inline">
		<defs>
			<rect id="SVGID_13_" x="-59.587" y="-257.138" width="411.003" height="581.276"/>
		</defs>
		<clipPath id="SVGID_14_">
			<use xlink:href="#SVGID_13_"  overflow="visible"/>
		</clipPath>
		<path clip-path="url(#SVGID_14_)" d="M160.434,38.563c0,0.069,0.006,0.162,0.017,0.275c0.013,0.116,0.018,0.242,0.018,0.381
			s-0.005,0.264-0.018,0.381c-0.011,0.113-0.017,0.194-0.017,0.24c0,0.161-0.007,0.316-0.019,0.467
			c-0.013,0.149-0.017,0.293-0.017,0.43c-0.047,0.117-0.063,0.231-0.053,0.347c0.012,0.116,0.006,0.229-0.018,0.347
			c-0.047,0.252-0.08,0.506-0.104,0.76c-0.022,0.254-0.068,0.506-0.139,0.759c-0.115,0.392-0.22,0.766-0.313,1.122
			c-0.092,0.356-0.207,0.707-0.344,1.054c-0.393,0.966-0.875,1.841-1.451,2.623c-0.574,0.782-1.266,1.448-2.07,2.003
			c-0.461,0.32-0.938,0.6-1.432,0.827c-0.498,0.231-1.031,0.438-1.606,0.622c-0.229,0.068-0.466,0.121-0.708,0.154
			c-0.241,0.035-0.488,0.086-0.741,0.155c-0.116,0.023-0.226,0.035-0.328,0.035s-0.213,0.013-0.327,0.034
			c-0.093,0.023-0.185,0.029-0.275,0.018c-0.094-0.012-0.196-0.006-0.313,0.018c-0.045,0.022-0.112,0.029-0.204,0.018
			c-0.095-0.012-0.162-0.005-0.209,0.018c-0.185,0.047-0.414,0.058-0.689,0.035c-0.276-0.023-0.518-0.035-0.725-0.035h-8.045
			c-0.393,0-0.72-0.018-0.984-0.051c-0.266-0.035-0.454-0.19-0.568-0.468c-0.07-0.183-0.098-0.466-0.087-0.846
			c0.012-0.38,0.017-0.696,0.017-0.949V29.069c0-0.276-0.005-0.569-0.017-0.88c-0.011-0.311,0.04-0.559,0.155-0.743
			c0.092-0.138,0.266-0.252,0.519-0.345c0.045-0.023,0.093-0.029,0.138-0.017c0.047,0.011,0.092,0.006,0.14-0.018h9.286
			c0.138,0,0.281-0.006,0.431-0.018c0.149-0.011,0.283-0.005,0.397,0.018h0.414c0.115,0.046,0.24,0.063,0.379,0.051
			c0.14-0.01,0.265,0.007,0.381,0.053c0.138,0.046,0.271,0.063,0.396,0.052c0.126-0.011,0.258,0.006,0.396,0.052
			c0.322,0.068,0.633,0.132,0.933,0.19c0.3,0.058,0.587,0.144,0.862,0.258c0.254,0.116,0.506,0.219,0.76,0.312
			c0.254,0.092,0.494,0.206,0.727,0.345c0.574,0.368,1.104,0.725,1.586,1.07l0.209,0.207c0.229,0.185,0.437,0.392,0.621,0.621
			l0.312,0.276c0.112,0.185,0.246,0.362,0.396,0.535c0.148,0.172,0.281,0.352,0.396,0.535c0.3,0.483,0.564,0.996,0.795,1.536
			c0.229,0.541,0.438,1.111,0.621,1.709c0.115,0.3,0.189,0.61,0.225,0.933c0.036,0.323,0.086,0.645,0.155,0.966
			c0,0.116,0.005,0.214,0.017,0.294c0.012,0.081,0.019,0.167,0.019,0.259c0.046,0.138,0.063,0.288,0.052,0.449
			s0.006,0.299,0.053,0.415V38.563L160.434,38.563z M155.047,40.221c0.046-0.115,0.069-0.3,0.069-0.553s-0.023-0.438-0.069-0.552
			V38.46c-0.046-0.207-0.074-0.426-0.086-0.657c-0.013-0.229-0.04-0.437-0.086-0.62c-0.046-0.115-0.063-0.225-0.052-0.329
			c0.011-0.103-0.007-0.213-0.054-0.327c-0.113-0.368-0.224-0.719-0.328-1.053c-0.104-0.334-0.246-0.65-0.43-0.95
			c-0.346-0.553-0.742-1.029-1.191-1.433c-0.448-0.402-0.995-0.741-1.641-1.019c-0.207-0.068-0.414-0.132-0.621-0.189
			c-0.207-0.057-0.414-0.108-0.621-0.155c-0.186-0.022-0.352-0.04-0.5-0.052c-0.149-0.011-0.317-0.04-0.502-0.087
			c-0.092-0.022-0.184-0.028-0.274-0.017c-0.091,0.011-0.173,0.006-0.241-0.018h-0.759c-0.117-0.022-0.244-0.028-0.382-0.017
			c-0.137,0.011-0.276,0.017-0.413,0.017h-1.556c-0.047,0.047-0.121,0.058-0.225,0.034c-0.104-0.022-0.189-0.022-0.259,0
			c-0.114,0.047-0.229,0.087-0.345,0.121c-0.115,0.035-0.207,0.109-0.277,0.225c-0.092,0.115-0.137,0.276-0.137,0.483v0.69
			c0,0.3-0.008,0.61-0.019,0.932c-0.012,0.323-0.018,0.646-0.018,0.967v9.633c0,0.139-0.007,0.287-0.017,0.448
			c-0.014,0.161,0.004,0.3,0.051,0.414v0.347c0,0.16,0.007,0.316,0.019,0.465c0.011,0.15,0.039,0.283,0.086,0.397
			c0.138,0.274,0.402,0.42,0.794,0.431c0.391,0.014,0.794,0.019,1.208,0.019c0.897,0,1.808-0.005,2.728-0.019
			c0.922-0.011,1.703-0.144,2.348-0.396c0.852-0.346,1.525-0.805,2.021-1.38c0.492-0.575,0.914-1.289,1.26-2.142
			c0.092-0.184,0.16-0.391,0.207-0.621c0.046-0.229,0.102-0.459,0.172-0.689v-0.276c0.047-0.161,0.068-0.334,0.068-0.518
			c0-0.185,0.022-0.368,0.068-0.554v-0.344H155.047z"/>
	</g>
	<g display="inline">
		<defs>
			<rect id="SVGID_15_" x="-59.587" y="-257.138" width="411.003" height="581.276"/>
		</defs>
		<clipPath id="SVGID_16_">
			<use xlink:href="#SVGID_15_"  overflow="visible"/>
		</clipPath>
		<path clip-path="url(#SVGID_16_)" d="M168.51,27.31c0.162,0.184,0.242,0.46,0.242,0.827v1.07v0.932
			c0,0.323-0.08,0.542-0.242,0.657c-0.138,0.115-0.316,0.185-0.533,0.206c-0.221,0.024-0.457,0.035-0.709,0.035h-1.934
			c-0.254,0-0.479-0.011-0.673-0.035c-0.195-0.021-0.363-0.091-0.501-0.206c-0.094-0.069-0.154-0.201-0.189-0.397
			c-0.035-0.195-0.059-0.414-0.068-0.655c-0.012-0.242-0.012-0.489,0-0.743c0.011-0.253,0.018-0.471,0.018-0.655
			c0-0.184,0.006-0.351,0.018-0.501c0.012-0.149,0.051-0.281,0.121-0.397c0.045-0.091,0.108-0.159,0.189-0.206
			c0.079-0.047,0.165-0.092,0.259-0.139c0.046,0,0.104-0.005,0.173-0.017c0.068-0.013,0.125-0.017,0.172-0.017h2.521
			c0.229,0,0.447,0.011,0.654,0.033C168.234,27.125,168.395,27.193,168.51,27.31 M168.752,49.783c0,0.461-0.012,0.852-0.034,1.174
			s-0.231,0.541-0.622,0.654c-0.138,0.047-0.287,0.063-0.449,0.053c-0.16-0.012-0.332-0.018-0.518-0.018h-1.934
			c-0.207,0-0.407-0.012-0.604-0.035c-0.195-0.021-0.34-0.09-0.432-0.207c-0.139-0.159-0.213-0.361-0.225-0.604
			c-0.012-0.24-0.018-0.5-0.018-0.775V35.457v-0.691c0-0.229,0.046-0.414,0.139-0.552c0.137-0.161,0.332-0.265,0.586-0.312
			c0.047-0.022,0.109-0.028,0.19-0.017c0.08,0.012,0.144,0.006,0.188-0.018h1.728c0.138,0,0.293-0.006,0.465-0.018
			c0.173-0.012,0.317-0.005,0.433,0.018h0.275c0.139,0.047,0.266,0.081,0.38,0.104c0.115,0.023,0.207,0.092,0.277,0.207
			c0.092,0.115,0.144,0.276,0.155,0.483c0.011,0.207,0.017,0.426,0.017,0.656L168.752,49.783L168.752,49.783z"/>
	</g>
	<g display="inline">
		<defs>
			<rect id="SVGID_17_" x="-59.587" y="-257.138" width="411.003" height="581.276"/>
		</defs>
		<clipPath id="SVGID_18_">
			<use xlink:href="#SVGID_17_"  overflow="visible"/>
		</clipPath>
		<path clip-path="url(#SVGID_18_)" d="M189.499,34.075c0.162,0.114,0.248,0.306,0.26,0.57c0.013,0.264,0.019,0.534,0.019,0.812
			v14.738c0,0.187-0.006,0.363-0.019,0.537c-0.012,0.172-0.017,0.351-0.017,0.533c-0.024,0.187-0.041,0.353-0.053,0.502
			c-0.014,0.148-0.028,0.315-0.051,0.5c-0.095,0.322-0.168,0.627-0.227,0.916c-0.057,0.287-0.143,0.558-0.26,0.811
			c-0.391,0.875-0.891,1.602-1.5,2.176c-0.611,0.574-1.354,1.047-2.228,1.415c-0.253,0.114-0.507,0.206-0.761,0.276
			c-0.254,0.068-0.518,0.138-0.792,0.207c-0.255,0.066-0.509,0.115-0.763,0.138c-0.252,0.022-0.506,0.058-0.758,0.104
			c-0.093,0-0.186,0.006-0.276,0.019c-0.093,0.011-0.195,0.017-0.312,0.017c-0.092,0.022-0.195,0.028-0.311,0.018
			c-0.116-0.012-0.229-0.006-0.346,0.018c-0.115,0.023-0.266,0.035-0.448,0.035c-0.185,0-0.334-0.012-0.448-0.035H179.9
			c-0.094,0-0.187-0.012-0.277-0.033c-0.184-0.048-0.374-0.07-0.57-0.07c-0.195,0-0.373-0.021-0.533-0.068
			c-0.047-0.021-0.104-0.034-0.172-0.034c-0.07,0-0.128-0.011-0.174-0.036c-0.229-0.045-0.455-0.096-0.674-0.152
			s-0.432-0.135-0.639-0.226c-0.875-0.368-1.656-0.835-2.348-1.397c-0.689-0.563-1.197-1.317-1.519-2.262
			c-0.048-0.068-0.07-0.139-0.07-0.207c0-0.069-0.011-0.127-0.032-0.172c-0.07-0.301-0.041-0.523,0.086-0.675
			c0.125-0.149,0.305-0.247,0.534-0.293c0.229-0.047,0.488-0.063,0.776-0.053c0.287,0.013,0.557,0.019,0.813,0.019h1.174
			c0.113,0,0.211,0.006,0.293,0.018c0.08,0.012,0.178,0.018,0.293,0.018c0.369,0.092,0.599,0.212,0.689,0.362
			c0.092,0.149,0.229,0.351,0.415,0.604c0.069,0.092,0.173,0.207,0.312,0.344c0.021,0.047,0.045,0.082,0.068,0.104
			c0.022,0.022,0.047,0.058,0.068,0.104c0.184,0.138,0.379,0.265,0.588,0.379c0.207,0.113,0.438,0.219,0.689,0.312
			c0.16,0.046,0.322,0.074,0.481,0.086c0.162,0.013,0.335,0.04,0.519,0.087h0.381c0.16,0.045,0.367,0.051,0.621,0.018
			c0.252-0.035,0.449-0.075,0.588-0.122c0.113-0.046,0.213-0.067,0.293-0.067s0.166-0.023,0.26-0.068
			c0.482-0.209,0.885-0.483,1.208-0.83c0.319-0.344,0.587-0.748,0.793-1.207c0.046-0.139,0.081-0.276,0.104-0.416
			c0.022-0.137,0.058-0.286,0.104-0.447c0.046-0.207,0.074-0.432,0.087-0.674c0.011-0.24,0.019-0.488,0.019-0.742
			c0-0.091,0.004-0.184,0.018-0.275c0.011-0.092,0.006-0.172-0.018-0.242c-0.047-0.113-0.063-0.217-0.054-0.31
			c0.013-0.092-0.006-0.187-0.052-0.276c-0.021-0.045-0.051-0.082-0.086-0.104s-0.075-0.057-0.121-0.104
			c-0.206-0.022-0.373,0.022-0.5,0.139c-0.128,0.115-0.247,0.219-0.363,0.311c-0.205,0.161-0.414,0.312-0.619,0.448
			c-0.207,0.14-0.438,0.265-0.69,0.379c-0.255,0.117-0.507,0.209-0.761,0.277c-0.254,0.067-0.519,0.139-0.793,0.207
			c-0.14,0.022-0.271,0.041-0.397,0.053c-0.127,0.011-0.247,0.028-0.362,0.051c-0.115,0.023-0.3,0.035-0.552,0.035
			c-0.254,0-0.438-0.012-0.553-0.035h-0.277c-0.069-0.021-0.144-0.034-0.224-0.034c-0.081,0-0.167-0.012-0.26-0.035
			c-0.321-0.066-0.633-0.131-0.933-0.188c-0.299-0.058-0.573-0.144-0.829-0.258c-0.988-0.392-1.789-0.938-2.398-1.642
			c-0.608-0.703-1.121-1.547-1.535-2.537c-0.116-0.252-0.195-0.519-0.241-0.793c-0.047-0.277-0.116-0.553-0.208-0.83
			c0-0.113-0.012-0.207-0.033-0.275c-0.047-0.184-0.07-0.385-0.07-0.604s-0.021-0.42-0.067-0.604
			c-0.022-0.114-0.034-0.224-0.034-0.328V42.68c-0.023-0.115-0.035-0.259-0.035-0.432s0.012-0.316,0.035-0.432v-0.346
			c0.021-0.093,0.028-0.185,0.018-0.275c-0.012-0.092,0.004-0.186,0.052-0.277c0.046-0.229,0.08-0.453,0.104-0.672
			c0.021-0.219,0.057-0.443,0.103-0.674c0.139-0.461,0.28-0.898,0.432-1.313c0.149-0.414,0.341-0.806,0.569-1.175
			c0.115-0.229,0.247-0.442,0.396-0.638c0.149-0.196,0.305-0.398,0.467-0.604c0.068-0.114,0.166-0.229,0.293-0.346
			c0.127-0.114,0.248-0.218,0.363-0.311l0.207-0.206c0.114-0.092,0.229-0.179,0.346-0.26c0.113-0.081,0.229-0.155,0.346-0.225
			c0.297-0.184,0.607-0.346,0.932-0.483c0.322-0.137,0.678-0.264,1.07-0.38c0.184-0.069,0.373-0.108,0.568-0.121
			c0.195-0.011,0.387-0.039,0.568-0.086c0.092-0.023,0.219-0.023,0.381,0c0.16,0.023,0.264,0.013,0.311-0.034
			c0.736-0.022,1.398,0.047,1.984,0.207c0.588,0.161,1.111,0.393,1.571,0.69c0.068,0.047,0.14,0.099,0.207,0.155
			c0.069,0.058,0.149,0.121,0.241,0.189c0.138,0.116,0.265,0.231,0.381,0.347c0.115,0.114,0.252,0.219,0.414,0.311
			c0.046,0.022,0.109,0.046,0.189,0.068c0.08,0.023,0.144,0.013,0.188-0.034c0.116-0.046,0.185-0.126,0.207-0.241
			c0.022-0.116,0.058-0.23,0.104-0.346c0.045-0.115,0.086-0.236,0.119-0.363c0.035-0.125,0.1-0.235,0.19-0.327
			c0.14-0.092,0.305-0.144,0.5-0.156c0.194-0.011,0.397-0.016,0.604-0.016h1.76c0.255,0,0.479,0.005,0.674,0.016
			C189.193,33.897,189.361,33.961,189.499,34.075 M184.771,44.743c0.092-0.208,0.172-0.472,0.24-0.795
			c0.07-0.322,0.116-0.661,0.139-1.019c0.023-0.356,0.029-0.707,0.019-1.054c-0.013-0.345-0.053-0.655-0.122-0.931
			c-0.046-0.092-0.063-0.168-0.051-0.225c0.011-0.06,0.005-0.135-0.018-0.227c-0.047-0.16-0.094-0.321-0.14-0.483
			c-0.046-0.159-0.103-0.311-0.173-0.448c-0.322-0.806-0.782-1.427-1.381-1.863c-0.6-0.437-1.473-0.655-2.623-0.655
			c-0.047,0.046-0.109,0.063-0.189,0.051c-0.08-0.011-0.154-0.005-0.225,0.018c-0.161,0.046-0.313,0.086-0.448,0.121
			c-0.14,0.034-0.276,0.074-0.415,0.121c-0.598,0.253-1.059,0.633-1.38,1.139c-0.323,0.507-0.588,1.07-0.795,1.689
			c-0.047,0.116-0.067,0.209-0.067,0.278c0,0.067-0.013,0.16-0.035,0.274c-0.068,0.254-0.116,0.621-0.139,1.104
			c-0.023,0.483,0,0.875,0.069,1.175v0.346c0.046,0.185,0.079,0.361,0.104,0.533c0.021,0.172,0.057,0.353,0.103,0.535
			c0.207,0.6,0.461,1.122,0.761,1.57c0.299,0.45,0.712,0.813,1.242,1.088c0.229,0.115,0.553,0.229,0.967,0.346
			c0.16,0,0.287,0.012,0.381,0.034c0.045,0,0.113,0.007,0.205,0.019s0.16,0.005,0.208-0.019h0.345
			c0.207-0.046,0.402-0.079,0.588-0.104c0.184-0.021,0.367-0.079,0.553-0.172c0.574-0.229,1.041-0.553,1.396-0.967
			C184.247,45.813,184.54,45.318,184.771,44.743"/>
	</g>
	<g display="inline">
		<defs>
			<rect id="SVGID_19_" x="-59.587" y="-257.138" width="411.003" height="581.276"/>
		</defs>
		<clipPath id="SVGID_20_">
			<use xlink:href="#SVGID_19_"  overflow="visible"/>
		</clipPath>
		<path clip-path="url(#SVGID_20_)" d="M198.51,27.31c0.161,0.184,0.241,0.46,0.241,0.827v1.07v0.932
			c0,0.323-0.08,0.542-0.241,0.657c-0.138,0.115-0.316,0.185-0.533,0.206c-0.221,0.024-0.455,0.035-0.709,0.035h-1.934
			c-0.253,0-0.479-0.011-0.673-0.035c-0.196-0.021-0.363-0.091-0.501-0.206c-0.092-0.069-0.155-0.201-0.189-0.397
			c-0.033-0.195-0.058-0.414-0.068-0.655c-0.012-0.242-0.012-0.489,0-0.743c0.012-0.253,0.018-0.471,0.018-0.655
			c0-0.184,0.005-0.351,0.018-0.501c0.012-0.149,0.051-0.281,0.121-0.397c0.045-0.091,0.107-0.159,0.188-0.206
			c0.081-0.047,0.167-0.092,0.259-0.139c0.046,0,0.104-0.005,0.174-0.017c0.069-0.013,0.127-0.017,0.172-0.017h2.521
			c0.231,0,0.45,0.011,0.657,0.033C198.232,27.125,198.395,27.193,198.51,27.31 M198.751,49.783c0,0.461-0.012,0.852-0.033,1.174
			c-0.024,0.322-0.229,0.541-0.622,0.654c-0.139,0.047-0.287,0.063-0.449,0.053c-0.16-0.012-0.334-0.018-0.518-0.018h-1.934
			c-0.207,0-0.409-0.012-0.604-0.035c-0.194-0.021-0.339-0.09-0.431-0.207c-0.139-0.159-0.213-0.361-0.225-0.604
			c-0.013-0.24-0.018-0.5-0.018-0.775V35.457v-0.691c0-0.229,0.046-0.414,0.139-0.552c0.137-0.161,0.332-0.265,0.588-0.312
			c0.045-0.022,0.107-0.028,0.188-0.017c0.08,0.012,0.144,0.006,0.188-0.018h1.727c0.139,0,0.294-0.006,0.467-0.018
			c0.172-0.012,0.314-0.005,0.432,0.018h0.276c0.138,0.047,0.265,0.081,0.379,0.104c0.115,0.023,0.207,0.092,0.276,0.207
			c0.092,0.115,0.145,0.276,0.154,0.483c0.013,0.207,0.018,0.426,0.018,0.656L198.751,49.783L198.751,49.783z"/>
	</g>
	<g display="inline">
		<defs>
			<rect id="SVGID_21_" x="-59.587" y="-257.138" width="411.003" height="581.276"/>
		</defs>
		<clipPath id="SVGID_22_">
			<use xlink:href="#SVGID_21_"  overflow="visible"/>
		</clipPath>
		<path clip-path="url(#SVGID_22_)" d="M204.999,28.552h2.313c0.346,0,0.649,0.017,0.914,0.052c0.265,0.034,0.455,0.178,0.569,0.431
			c0.045,0.116,0.069,0.254,0.069,0.415v0.483v1.554c0,0.115-0.006,0.247-0.018,0.396c-0.012,0.149-0.008,0.281,0.018,0.397v0.38
			c0,0.184,0.012,0.351,0.033,0.5c0.023,0.149,0.082,0.281,0.174,0.397c0.16,0.207,0.453,0.316,0.881,0.327
			c0.426,0.013,0.833,0.018,1.227,0.018h0.413c0.138,0,0.265,0.023,0.38,0.069c0.254,0.115,0.396,0.322,0.432,0.621
			c0.033,0.3,0.052,0.633,0.052,1.002c0,0.161,0.006,0.321,0.019,0.483c0.01,0.161-0.007,0.298-0.053,0.413
			c-0.115,0.369-0.355,0.565-0.725,0.587c-0.368,0.024-0.784,0.035-1.243,0.035c-0.093,0-0.19-0.006-0.293-0.018
			c-0.104-0.011-0.19-0.005-0.259,0.018c-0.094,0.023-0.174,0.029-0.243,0.018c-0.068-0.012-0.138,0.006-0.206,0.052
			c-0.186,0.046-0.316,0.143-0.396,0.293c-0.082,0.149-0.145,0.327-0.189,0.536c-0.024,0.115-0.024,0.241,0,0.38
			c0.021,0.137,0.021,0.266,0,0.379v2.141v4.039c0,0.574,0.017,1.076,0.052,1.503c0.035,0.425,0.179,0.799,0.433,1.122
			c0.113,0.138,0.27,0.234,0.467,0.293c0.193,0.058,0.396,0.109,0.604,0.154c0.068,0.022,0.143,0.029,0.225,0.019
			c0.08-0.013,0.143-0.006,0.188,0.017h0.379c0.254,0,0.472,0.012,0.657,0.034c0.184,0.022,0.333,0.116,0.447,0.277
			c0.093,0.138,0.139,0.315,0.139,0.534v0.674c0,0.482-0.005,0.926-0.018,1.328s-0.201,0.674-0.568,0.813
			c-0.116,0.047-0.221,0.063-0.313,0.051s-0.195,0.006-0.311,0.053h-0.346c-0.045,0-0.115-0.006-0.207-0.018
			c-0.092-0.013-0.174-0.007-0.241,0.018c-0.115,0.021-0.236,0.029-0.362,0.018c-0.127-0.012-0.246-0.018-0.361-0.018
			c-0.116,0-0.23,0.006-0.346,0.018s-0.22,0.005-0.312-0.018h-0.38c-0.115-0.023-0.242-0.034-0.381-0.034
			c-0.138,0-0.265-0.013-0.379-0.035c-0.16-0.022-0.311-0.046-0.447-0.069c-0.141-0.021-0.277-0.045-0.416-0.067
			c-0.254-0.068-0.495-0.149-0.725-0.242c-0.23-0.091-0.449-0.195-0.656-0.31c-0.068-0.047-0.137-0.1-0.207-0.156
			c-0.067-0.059-0.148-0.12-0.24-0.189c-0.049-0.046-0.104-0.099-0.174-0.156c-0.069-0.057-0.127-0.107-0.172-0.154
			c-0.323-0.438-0.565-0.92-0.727-1.449c-0.046-0.093-0.063-0.18-0.051-0.259c0.011-0.08,0.005-0.179-0.018-0.294
			c-0.023-0.045-0.035-0.104-0.035-0.174c0-0.067-0.012-0.125-0.034-0.172v-0.345c-0.023-0.092-0.029-0.196-0.019-0.312
			c0.012-0.114,0.019-0.229,0.019-0.346v-1.312V40.6v-1.828c0-0.16,0.006-0.323,0.017-0.484c0.012-0.159-0.006-0.311-0.052-0.447
			c-0.093-0.323-0.253-0.529-0.481-0.622c-0.254-0.114-0.576-0.15-0.968-0.104c-0.394,0.046-0.726,0.011-1.002-0.104
			c-0.183-0.068-0.3-0.173-0.346-0.311c-0.046-0.137-0.093-0.31-0.138-0.517v-0.726c0-0.414,0.022-0.748,0.068-1.001
			c0.047-0.253,0.241-0.426,0.588-0.518c0.092-0.047,0.184-0.063,0.275-0.053c0.092,0.013,0.195,0.018,0.313,0.018
			c0.344,0,0.666-0.018,0.965-0.052c0.301-0.034,0.508-0.166,0.621-0.396c0.069-0.161,0.109-0.346,0.121-0.553
			s0.019-0.414,0.019-0.621v-2.14v-0.587c0-0.207,0.022-0.38,0.069-0.519c0.113-0.229,0.287-0.379,0.518-0.448
			c0.046-0.022,0.109-0.028,0.189-0.018C204.891,28.581,204.953,28.575,204.999,28.552"/>
	</g>
	<g display="inline">
		<defs>
			<rect id="SVGID_23_" x="-59.587" y="-257.138" width="411.003" height="581.276"/>
		</defs>
		<clipPath id="SVGID_24_">
			<use xlink:href="#SVGID_23_"  overflow="visible"/>
		</clipPath>
		<path clip-path="url(#SVGID_24_)" d="M230.959,50.301c0.046,0.254,0.076,0.508,0.087,0.76c0.013,0.254-0.108,0.426-0.36,0.519
			c-0.141,0.069-0.301,0.104-0.484,0.104h-0.551h-1.865c-0.207,0-0.409-0.007-0.604-0.019c-0.195-0.011-0.352-0.063-0.466-0.155
			c-0.161-0.092-0.284-0.225-0.362-0.396c-0.082-0.173-0.19-0.316-0.328-0.433c-0.047-0.046-0.104-0.086-0.172-0.121
			c-0.07-0.033-0.162-0.039-0.276-0.018c-0.116,0.047-0.226,0.104-0.327,0.173c-0.105,0.069-0.214,0.127-0.33,0.173
			c-0.113,0.092-0.24,0.174-0.379,0.241c-0.139,0.069-0.275,0.138-0.414,0.208c-0.299,0.139-0.611,0.247-0.934,0.327
			c-0.321,0.08-0.654,0.167-1,0.259c-0.162,0.047-0.316,0.075-0.467,0.086c-0.149,0.014-0.306,0.029-0.465,0.053
			c-0.068,0-0.14,0.006-0.209,0.019c-0.068,0.011-0.138,0.017-0.205,0.017h-0.381c-0.23,0.047-0.462,0.047-0.691,0h-0.31
			c-0.161-0.046-0.315-0.063-0.467-0.052c-0.149,0.011-0.294-0.006-0.433-0.052c-0.229-0.047-0.448-0.086-0.653-0.121
			c-0.209-0.034-0.404-0.098-0.589-0.189c-0.667-0.252-1.236-0.582-1.709-0.982c-0.473-0.403-0.846-0.938-1.121-1.605
			c-0.069-0.16-0.133-0.334-0.189-0.519c-0.058-0.185-0.109-0.379-0.156-0.587c-0.045-0.114-0.063-0.229-0.051-0.346
			c0.012-0.113,0.006-0.229-0.018-0.346c-0.023-0.068-0.04-0.212-0.053-0.432c-0.012-0.219-0.006-0.373,0.017-0.467
			c0.046-0.229,0.071-0.426,0.071-0.586c0.068-0.252,0.138-0.512,0.205-0.776c0.07-0.265,0.162-0.501,0.277-0.708
			c0.391-0.667,0.84-1.174,1.346-1.52c0.507-0.346,1.152-0.645,1.934-0.896c0.3-0.115,0.609-0.195,0.932-0.241
			s0.646-0.104,0.967-0.173c0.185-0.046,0.382-0.075,0.588-0.087c0.207-0.011,0.414-0.04,0.621-0.086
			c0.16-0.046,0.322-0.063,0.482-0.052c0.162,0.012,0.334-0.006,0.518-0.053c0.162-0.047,0.322-0.068,0.484-0.068
			c0.161,0,0.333-0.023,0.518-0.069c0.484-0.114,0.928-0.212,1.328-0.293c0.404-0.081,0.768-0.282,1.09-0.604
			c0.205-0.207,0.346-0.437,0.414-0.689c0.022-0.068,0.027-0.126,0.018-0.173c-0.012-0.046-0.007-0.093,0.018-0.138
			c0.021-0.047,0.033-0.114,0.033-0.207v-0.207c-0.021-0.092-0.039-0.186-0.051-0.276c-0.012-0.093-0.029-0.173-0.053-0.241
			c-0.229-0.691-0.713-1.162-1.45-1.416c-0.206-0.069-0.454-0.12-0.741-0.155c-0.289-0.034-0.58-0.046-0.881-0.034
			c-0.299,0.012-0.586,0.039-0.863,0.086c-0.274,0.047-0.517,0.104-0.725,0.173c-0.139,0.047-0.271,0.109-0.396,0.189
			c-0.127,0.082-0.248,0.168-0.362,0.26c-0.114,0.092-0.236,0.219-0.362,0.379c-0.127,0.16-0.213,0.311-0.259,0.45
			c-0.115,0.229-0.213,0.448-0.293,0.654c-0.081,0.208-0.248,0.346-0.5,0.415c-0.187,0.046-0.382,0.068-0.589,0.068h-0.62h-1.312
			c-0.117,0-0.23,0.007-0.346,0.018c-0.117,0.013-0.221,0.007-0.313-0.018h-0.311c-0.046-0.022-0.104-0.034-0.173-0.034
			c-0.067,0-0.126-0.021-0.173-0.068c-0.186-0.046-0.311-0.195-0.381-0.449c-0.022-0.113-0.022-0.229,0-0.346
			c0.022-0.113,0.047-0.218,0.07-0.311c0.068-0.252,0.144-0.489,0.225-0.707c0.08-0.219,0.178-0.421,0.294-0.604
			c0.067-0.117,0.138-0.23,0.206-0.347c0.068-0.115,0.139-0.229,0.207-0.345c0.184-0.253,0.414-0.495,0.691-0.726
			c0.045-0.021,0.113-0.08,0.205-0.172c0.115-0.092,0.219-0.173,0.313-0.241c0.092-0.069,0.195-0.139,0.311-0.208
			c0.391-0.252,0.805-0.454,1.243-0.604c0.437-0.15,0.886-0.294,1.347-0.433c0.275-0.068,0.563-0.115,0.862-0.138
			c0.299-0.022,0.599-0.068,0.897-0.138c0.092-0.022,0.235-0.022,0.432,0c0.195,0.023,0.314,0.012,0.363-0.035
			c0.941-0.022,1.846,0.013,2.709,0.104s1.645,0.265,2.348,0.518c0.701,0.253,1.305,0.593,1.813,1.019
			c0.506,0.426,0.897,0.973,1.174,1.639c0.162,0.393,0.254,0.841,0.275,1.347c0.022,0.507,0.036,1.024,0.036,1.556v7.696v1.33
			c0,0.448,0.046,0.856,0.138,1.226c0.022,0.068,0.035,0.145,0.035,0.225C230.926,50.157,230.938,50.23,230.959,50.301
			 M225.885,44.984c0.023-0.115,0.035-0.248,0.035-0.397c0-0.147-0.012-0.28-0.035-0.397c-0.045-0.137-0.068-0.264-0.068-0.379
			c0-0.113-0.045-0.207-0.137-0.275c-0.117-0.092-0.289-0.139-0.519-0.139c-0.093,0.022-0.173,0.041-0.243,0.053
			c-0.068,0.012-0.148,0.029-0.241,0.052c-0.159,0.047-0.333,0.08-0.518,0.104c-0.185,0.021-0.368,0.058-0.552,0.104
			c-0.07,0.023-0.174,0.035-0.313,0.035c-0.299,0.068-0.6,0.113-0.896,0.138c-0.299,0.022-0.588,0.081-0.862,0.173
			c-0.185,0.047-0.356,0.088-0.519,0.12c-0.162,0.035-0.324,0.087-0.483,0.155c-0.482,0.207-0.892,0.52-1.228,0.934
			c-0.332,0.413-0.453,0.989-0.359,1.725c0.046,0.393,0.173,0.715,0.379,0.968c0.16,0.254,0.402,0.455,0.726,0.604
			c0.322,0.149,0.673,0.258,1.054,0.328c0.379,0.068,0.781,0.086,1.209,0.051c0.424-0.033,0.821-0.107,1.189-0.224
			c0.598-0.185,1.068-0.478,1.414-0.881c0.346-0.401,0.609-0.901,0.795-1.501c0.046-0.161,0.073-0.329,0.086-0.501
			c0.012-0.173,0.041-0.351,0.086-0.535V44.984L225.885,44.984z"/>
	</g>
	<g display="inline">
		<defs>
			<rect id="SVGID_25_" x="-59.587" y="-257.138" width="411.003" height="581.276"/>
		</defs>
		<clipPath id="SVGID_26_">
			<use xlink:href="#SVGID_25_"  overflow="visible"/>
		</clipPath>
		<path clip-path="url(#SVGID_26_)" d="M235.725,27.067h2.521c0.229,0,0.448,0.012,0.655,0.034s0.367,0.093,0.481,0.208
			c0.14,0.16,0.214,0.374,0.226,0.639c0.012,0.265,0.019,0.534,0.019,0.811v3.072v12.396v5.28c0,0.276,0.006,0.593,0.017,0.949
			c0.012,0.356-0.041,0.627-0.154,0.812c-0.114,0.186-0.322,0.312-0.621,0.381c-0.139,0.045-0.293,0.057-0.467,0.033
			c-0.172-0.022-0.34-0.033-0.5-0.033h-1.656c-0.254,0-0.484-0.012-0.691-0.035c-0.207-0.022-0.38-0.092-0.518-0.207
			c-0.139-0.114-0.213-0.293-0.225-0.535c-0.013-0.241-0.018-0.488-0.018-0.741v-3.073V34.109v-4.694
			c0-0.299-0.007-0.656-0.018-1.07c-0.012-0.415,0.039-0.714,0.154-0.898c0.047-0.091,0.108-0.16,0.19-0.206
			c0.079-0.046,0.165-0.093,0.259-0.139c0.046,0,0.104-0.006,0.172-0.017C235.62,27.072,235.677,27.067,235.725,27.067"/>
	</g>
	<g display="inline">
		<defs>
			<rect id="SVGID_27_" x="-59.587" y="-257.138" width="411.003" height="581.276"/>
		</defs>
		<clipPath id="SVGID_28_">
			<use xlink:href="#SVGID_27_"  overflow="visible"/>
		</clipPath>
		<path clip-path="url(#SVGID_28_)" fill="#37328D" d="M16.039,28.747c0,1.943-1.576,3.519-3.52,3.519
			c-1.942,0-3.518-1.575-3.518-3.519s1.576-3.519,3.518-3.519C14.463,25.229,16.039,26.804,16.039,28.747"/>
	</g>
	<g display="inline">
		<defs>
			<rect id="SVGID_29_" x="-59.587" y="-257.138" width="411.003" height="581.276"/>
		</defs>
		<clipPath id="SVGID_30_">
			<use xlink:href="#SVGID_29_"  overflow="visible"/>
		</clipPath>
		<rect x="9.606" y="34.318" clip-path="url(#SVGID_30_)" width="5.826" height="17.364"/>
	</g>
</g>
<path d="M82.68,40.148c0.023,0.127,0.026,0.296,0.009,0.505s-0.038,0.372-0.061,0.487c-0.023,0.116-0.047,0.228-0.07,0.331
	c-0.023,0.104-0.052,0.203-0.087,0.297c-0.244,0.58-0.622,1.058-1.132,1.43c-0.197,0.139-0.41,0.258-0.636,0.356
	c-0.227,0.1-0.468,0.189-0.724,0.271c-0.127,0.047-0.261,0.078-0.4,0.096c-0.14,0.017-0.273,0.037-0.4,0.061
	c-0.058,0.012-0.113,0.018-0.166,0.018c-0.052,0-0.106,0.007-0.166,0.017c-0.047,0.014-0.096,0.014-0.147,0
	c-0.052-0.01-0.107-0.005-0.166,0.019c-0.047,0.011-0.095,0.015-0.148,0.008c-0.051-0.006-0.107-0.008-0.165-0.008h-5.088
	c-0.197,0-0.363-0.009-0.497-0.027c-0.134-0.017-0.229-0.095-0.288-0.235c-0.035-0.092-0.05-0.235-0.044-0.426
	c0.005-0.192,0.009-0.352,0.009-0.48V32.637c0-0.139-0.003-0.288-0.009-0.444c-0.006-0.157,0.02-0.281,0.079-0.375
	c0.046-0.082,0.133-0.14,0.261-0.175c0.023-0.011,0.046-0.014,0.069-0.008c0.023,0.006,0.046,0.003,0.07-0.009h5.193
	c0.082,0,0.163-0.003,0.244-0.008c0.082-0.006,0.157-0.003,0.227,0.008c0.058,0.023,0.116,0.029,0.175,0.017
	c0.058-0.011,0.116-0.011,0.174,0h0.104c0.07,0.023,0.142,0.032,0.218,0.027c0.076-0.006,0.154,0.002,0.235,0.025
	c0.093,0.023,0.183,0.041,0.27,0.053c0.086,0.011,0.177,0.029,0.27,0.052c0.22,0.082,0.43,0.16,0.627,0.236
	c0.198,0.075,0.377,0.17,0.54,0.288c0.232,0.162,0.424,0.365,0.575,0.609c0.15,0.244,0.273,0.523,0.366,0.837
	c0.023,0.081,0.039,0.163,0.043,0.244c0.005,0.082,0.021,0.168,0.044,0.261c0.012,0.046,0.015,0.093,0.009,0.14
	c-0.006,0.046-0.004,0.093,0.009,0.139c0.011,0.035,0.014,0.079,0.008,0.131s-0.014,0.09-0.026,0.113v0.157
	c0,0.035-0.003,0.076-0.009,0.122c-0.006,0.047-0.009,0.082-0.009,0.105c-0.024,0.082-0.038,0.154-0.044,0.218
	c-0.005,0.064-0.021,0.124-0.043,0.183c-0.151,0.418-0.348,0.761-0.592,1.028c-0.082,0.082-0.169,0.151-0.261,0.209
	c-0.093,0.058-0.175,0.134-0.244,0.227c-0.023,0.023-0.049,0.055-0.078,0.096c-0.029,0.042-0.032,0.09-0.009,0.148
	c0.024,0.093,0.099,0.171,0.227,0.235c0.128,0.063,0.239,0.125,0.332,0.183c0.314,0.209,0.569,0.454,0.767,0.732
	c0.187,0.268,0.332,0.582,0.435,0.942c0.035,0.093,0.059,0.188,0.07,0.286c0.011,0.1,0.029,0.195,0.052,0.288V40.148z M75.101,33.91
	c-0.059,0.082-0.087,0.182-0.087,0.305v0.375v0.941c0,0.082-0.003,0.165-0.008,0.253c-0.006,0.087-0.004,0.16,0.008,0.218v0.174
	c0.023,0.069,0.041,0.13,0.052,0.183c0.012,0.052,0.029,0.102,0.052,0.148c0.047,0.058,0.12,0.099,0.218,0.122
	c0.098,0.023,0.209,0.038,0.331,0.043c0.123,0.006,0.248,0.006,0.375,0s0.244-0.009,0.349-0.009c0.174,0,0.357,0.003,0.549,0.009
	s0.383,0.009,0.575,0.009s0.375-0.009,0.549-0.026c0.174-0.018,0.326-0.049,0.453-0.096c0.349-0.116,0.61-0.319,0.784-0.61
	c0.082-0.151,0.134-0.349,0.157-0.593c0.022-0.395-0.035-0.706-0.175-0.932c-0.139-0.226-0.342-0.404-0.61-0.531
	c-0.069-0.023-0.145-0.043-0.227-0.061c-0.081-0.018-0.168-0.038-0.261-0.062c-0.046-0.011-0.116-0.017-0.209-0.017
	c-0.139-0.035-0.299-0.05-0.479-0.043c-0.18,0.005-0.352,0.008-0.515,0.008H75.5c-0.023,0.012-0.049,0.018-0.079,0.018
	s-0.055,0.006-0.078,0.018C75.228,33.787,75.146,33.839,75.101,33.91 M79.979,40.427c0.023-0.162,0.014-0.337-0.026-0.523
	c-0.041-0.185-0.084-0.325-0.131-0.418c-0.163-0.419-0.482-0.709-0.958-0.872c-0.197-0.057-0.416-0.093-0.653-0.104
	c-0.238-0.011-0.485-0.018-0.741-0.018H75.5c-0.023,0.023-0.044,0.032-0.062,0.027c-0.017-0.007-0.037-0.01-0.061-0.01
	c-0.139,0.034-0.232,0.093-0.279,0.174c-0.058,0.094-0.087,0.213-0.087,0.358v0.408v1.551c0,0.14,0.002,0.282,0.008,0.427
	c0.006,0.146,0.038,0.26,0.095,0.34c0.047,0.059,0.123,0.103,0.227,0.132s0.223,0.046,0.357,0.052c0.134,0.007,0.271,0.007,0.41,0
	s0.261-0.009,0.366-0.009c0.348,0,0.685,0.002,1.011,0.009c0.325,0.007,0.633-0.012,0.923-0.052c0.29-0.041,0.549-0.111,0.776-0.21
	c0.227-0.098,0.409-0.252,0.549-0.462c0.057-0.093,0.104-0.2,0.14-0.322c0.035-0.122,0.07-0.246,0.104-0.374v-0.104H79.979z"/>
<path d="M89.407,34.833c0.127,0,0.241,0.012,0.34,0.035c0.099,0.023,0.177,0.075,0.235,0.157c0.069,0.093,0.104,0.253,0.104,0.479
	v0.602c0,0.128,0.002,0.273,0.009,0.436c0.005,0.162-0.015,0.29-0.061,0.383c-0.046,0.082-0.113,0.134-0.2,0.157
	c-0.087,0.023-0.187,0.035-0.296,0.035c-0.111,0-0.226-0.006-0.349-0.018c-0.122-0.011-0.235-0.005-0.34,0.018
	c-0.081,0.023-0.162,0.038-0.244,0.043c-0.081,0.006-0.156,0.021-0.227,0.044c-0.186,0.059-0.372,0.143-0.558,0.253
	s-0.332,0.235-0.435,0.374c-0.059,0.094-0.12,0.189-0.184,0.288c-0.063,0.098-0.125,0.199-0.183,0.305
	c-0.035,0.093-0.067,0.188-0.097,0.287c-0.028,0.099-0.055,0.195-0.078,0.288c-0.023,0.081-0.035,0.165-0.035,0.252
	s-0.012,0.171-0.035,0.253c-0.011,0.047-0.014,0.091-0.009,0.131c0.005,0.041,0.003,0.077-0.009,0.114v0.278
	c-0.023,0.082-0.029,0.172-0.017,0.27c0.012,0.1,0.017,0.195,0.017,0.288v1.115v1.481c0,0.151-0.005,0.29-0.017,0.419
	c-0.012,0.127-0.047,0.231-0.104,0.313c-0.023,0.034-0.062,0.061-0.113,0.078c-0.052,0.017-0.108,0.031-0.166,0.044h-0.088
	c-0.058,0.011-0.122,0.017-0.191,0.017h-0.192h-0.749c-0.07-0.012-0.143-0.017-0.218-0.017h-0.234
	c-0.059-0.023-0.117-0.044-0.175-0.062s-0.099-0.055-0.122-0.113c-0.047-0.059-0.073-0.143-0.079-0.253
	c-0.005-0.11-0.009-0.224-0.009-0.341V42.08v-4.913v-1.29v-0.34c0-0.11,0.023-0.2,0.07-0.271c0.058-0.092,0.145-0.151,0.261-0.174
	c0.117-0.022,0.256-0.034,0.419-0.034h0.888c0.14,0,0.262,0.008,0.366,0.026c0.104,0.018,0.187,0.073,0.244,0.166
	c0.035,0.059,0.056,0.14,0.062,0.245c0.005,0.104,0.015,0.206,0.026,0.305c0.011,0.099,0.032,0.188,0.061,0.269
	c0.029,0.082,0.084,0.123,0.166,0.123c0.023-0.023,0.046-0.035,0.07-0.035s0.047-0.011,0.07-0.035
	c0.069-0.058,0.131-0.125,0.183-0.201c0.052-0.075,0.118-0.142,0.201-0.2c0.046-0.035,0.086-0.073,0.122-0.114
	c0.035-0.041,0.075-0.079,0.122-0.113c0.105-0.07,0.212-0.14,0.322-0.209c0.11-0.07,0.223-0.134,0.339-0.192
	c0.117-0.046,0.236-0.087,0.358-0.123c0.122-0.034,0.246-0.069,0.374-0.104c0.035-0.012,0.102-0.014,0.201-0.009
	C89.323,34.865,89.383,34.855,89.407,34.833"/>
<path d="M93.484,31.748c0.082,0.093,0.122,0.232,0.122,0.418v0.54v0.47c0,0.163-0.041,0.273-0.122,0.332
	c-0.07,0.059-0.16,0.093-0.27,0.104c-0.111,0.011-0.23,0.018-0.357,0.018h-0.976c-0.128,0-0.241-0.006-0.34-0.018
	c-0.099-0.011-0.184-0.045-0.252-0.104c-0.047-0.035-0.079-0.102-0.096-0.201c-0.018-0.099-0.029-0.208-0.035-0.331
	c-0.006-0.122-0.006-0.247,0-0.375c0.006-0.127,0.009-0.238,0.009-0.331c0-0.093,0.003-0.177,0.009-0.252s0.026-0.143,0.062-0.201
	c0.022-0.046,0.054-0.081,0.096-0.104c0.041-0.023,0.083-0.046,0.131-0.07c0.022,0,0.051-0.002,0.086-0.008
	c0.035-0.006,0.064-0.009,0.087-0.009h1.272c0.116,0,0.227,0.006,0.332,0.017C93.345,31.655,93.426,31.69,93.484,31.748
	 M93.606,43.094c0,0.231-0.005,0.43-0.017,0.591c-0.012,0.163-0.117,0.273-0.313,0.331c-0.069,0.024-0.145,0.033-0.227,0.026
	c-0.082-0.006-0.168-0.008-0.261-0.008h-0.976c-0.104,0-0.207-0.005-0.305-0.019c-0.099-0.01-0.172-0.046-0.218-0.104
	c-0.07-0.082-0.108-0.184-0.114-0.306c-0.006-0.122-0.009-0.253-0.009-0.392v-7.354v-0.348c0-0.116,0.023-0.209,0.07-0.28
	c0.069-0.081,0.168-0.133,0.296-0.157c0.023-0.011,0.055-0.014,0.096-0.009c0.041,0.006,0.073,0.003,0.096-0.008h0.871
	c0.069,0,0.147-0.003,0.235-0.01c0.087-0.005,0.159-0.002,0.218,0.01h0.14c0.069,0.023,0.133,0.041,0.191,0.052
	c0.059,0.012,0.105,0.046,0.14,0.104c0.046,0.059,0.073,0.14,0.079,0.244s0.008,0.215,0.008,0.332V43.094z"/>
<path d="M104.358,43.057v0.48c0,0.157-0.034,0.281-0.104,0.375c-0.059,0.058-0.134,0.095-0.227,0.113
	c-0.093,0.017-0.197,0.025-0.313,0.025h-0.958c-0.116,0-0.224-0.001-0.323-0.009c-0.099-0.006-0.177-0.031-0.235-0.077
	c-0.082-0.059-0.128-0.135-0.139-0.227c-0.011-0.094-0.035-0.186-0.07-0.279c-0.023-0.023-0.043-0.044-0.061-0.062l-0.062-0.061
	c-0.128,0-0.221,0.029-0.279,0.088c-0.058,0.058-0.116,0.115-0.174,0.174c-0.082,0.058-0.157,0.107-0.227,0.148
	s-0.146,0.089-0.227,0.147c-0.046,0.023-0.096,0.048-0.148,0.07c-0.052,0.023-0.107,0.046-0.166,0.07
	c-0.162,0.057-0.336,0.109-0.522,0.156c-0.058,0.023-0.11,0.035-0.156,0.035c-0.047,0-0.094,0.005-0.14,0.017
	c-0.058,0-0.107,0.002-0.147,0.009c-0.041,0.005-0.09,0.01-0.148,0.01h-0.157c-0.07,0.022-0.174,0.032-0.313,0.025
	c-0.14-0.007-0.239-0.021-0.296-0.044c-0.082-0.022-0.155-0.032-0.218-0.026c-0.064,0.007-0.131-0.002-0.201-0.025
	c-0.139-0.047-0.276-0.091-0.409-0.132c-0.134-0.039-0.264-0.09-0.392-0.146c-0.406-0.175-0.77-0.444-1.089-0.812
	c-0.32-0.365-0.572-0.753-0.758-1.158c-0.059-0.128-0.104-0.254-0.14-0.375c-0.035-0.122-0.076-0.246-0.122-0.375
	c-0.011-0.046-0.018-0.09-0.018-0.131c0-0.04-0.012-0.09-0.035-0.148c-0.023-0.093-0.043-0.194-0.062-0.305
	c-0.017-0.109-0.038-0.224-0.061-0.34c-0.011-0.034-0.014-0.075-0.009-0.121c0.006-0.047,0.003-0.088-0.009-0.123V39.86
	c0-0.052-0.006-0.106-0.018-0.165c-0.012-0.059-0.018-0.126-0.018-0.2c0-0.076,0.005-0.137,0.018-0.184
	c0.011-0.058,0.018-0.113,0.018-0.165v-0.165c0.011-0.059,0.015-0.114,0.009-0.167c-0.006-0.051,0.003-0.107,0.026-0.165
	c0.023-0.128,0.043-0.249,0.061-0.365c0.018-0.115,0.043-0.232,0.079-0.348c0.046-0.14,0.087-0.273,0.122-0.401
	c0.035-0.127,0.082-0.255,0.139-0.383c0.163-0.349,0.367-0.68,0.61-0.994c0.022-0.035,0.055-0.067,0.095-0.096
	c0.042-0.028,0.073-0.061,0.097-0.096c0.046-0.058,0.092-0.11,0.139-0.156c0.046-0.046,0.099-0.093,0.156-0.139
	c0.047-0.023,0.088-0.056,0.123-0.097c0.034-0.04,0.076-0.072,0.122-0.096c0.291-0.198,0.627-0.36,1.01-0.488
	c0.082-0.023,0.166-0.041,0.253-0.053c0.087-0.011,0.177-0.029,0.271-0.052c0.081-0.022,0.186-0.038,0.313-0.043
	c0.128-0.006,0.256-0.009,0.384-0.009c0.127,0,0.252,0.005,0.375,0.018c0.122,0.011,0.224,0.028,0.305,0.052
	c0.174,0.058,0.342,0.11,0.505,0.157c0.163,0.046,0.313,0.11,0.453,0.191c0.082,0.059,0.157,0.114,0.227,0.166
	c0.069,0.052,0.145,0.107,0.226,0.166c0.046,0.035,0.114,0.082,0.201,0.139c0.087,0.059,0.171,0.059,0.252,0
	c0.046-0.023,0.07-0.063,0.07-0.122c0-0.058,0.011-0.116,0.035-0.174v-0.174c0.012-0.035,0.018-0.075,0.018-0.122V34.99v-2.37
	c0-0.128-0.002-0.271-0.008-0.427c-0.006-0.157,0.02-0.276,0.078-0.357c0.046-0.093,0.134-0.151,0.261-0.175
	c0.023-0.011,0.046-0.015,0.07-0.009c0.022,0.006,0.046,0.002,0.069-0.009h1.237c0.139,0,0.267,0.006,0.383,0.018
	c0.116,0.011,0.203,0.058,0.261,0.139c0.058,0.094,0.087,0.212,0.087,0.357v0.427L104.358,43.057L104.358,43.057z M101.988,39.642
	c0.011-0.046,0.014-0.095,0.009-0.146c-0.006-0.053-0.009-0.103-0.009-0.148c0-0.117-0.006-0.233-0.018-0.349
	c-0.012-0.116-0.029-0.221-0.052-0.314c-0.023-0.127-0.043-0.244-0.062-0.349c-0.017-0.104-0.049-0.203-0.095-0.296
	c-0.164-0.418-0.397-0.75-0.705-0.993c-0.309-0.244-0.753-0.366-1.333-0.366c-0.07,0-0.163,0.012-0.279,0.035
	c-0.093,0.023-0.177,0.044-0.252,0.062s-0.148,0.043-0.218,0.078c-0.313,0.128-0.558,0.326-0.732,0.593
	c-0.174,0.268-0.313,0.57-0.418,0.906c-0.035,0.116-0.059,0.232-0.07,0.349c-0.012,0.116-0.035,0.238-0.07,0.365v0.243
	c-0.023,0.105-0.029,0.248-0.018,0.429c0.011,0.179,0.029,0.311,0.053,0.391c0,0.035,0.002,0.068,0.008,0.096
	c0.006,0.03,0.009,0.056,0.009,0.08c0.022,0.093,0.043,0.179,0.061,0.26c0.017,0.082,0.037,0.169,0.061,0.262
	c0.197,0.604,0.534,1.052,1.01,1.342c0.151,0.104,0.36,0.186,0.627,0.243c0.046,0.012,0.117,0.019,0.209,0.019
	c0.035,0.011,0.09,0.02,0.166,0.025c0.075,0.006,0.136,0.004,0.183-0.01c0.093-0.022,0.186-0.04,0.279-0.052
	c0.093-0.011,0.186-0.034,0.279-0.069c0.29-0.128,0.523-0.29,0.697-0.488c0.175-0.196,0.325-0.446,0.454-0.749
	c0.046-0.104,0.081-0.212,0.104-0.321c0.022-0.11,0.047-0.23,0.07-0.358c0.011-0.058,0.014-0.113,0.009-0.165
	c-0.006-0.053,0.002-0.108,0.026-0.166c0.011-0.034,0.018-0.074,0.018-0.122v-0.156V39.642L101.988,39.642z"/>
<path d="M114.727,35.164c0.082,0.058,0.125,0.154,0.131,0.288c0.005,0.133,0.009,0.27,0.009,0.41v7.439
	c0,0.095-0.003,0.184-0.009,0.271c-0.006,0.088-0.009,0.177-0.009,0.269c-0.011,0.095-0.02,0.179-0.026,0.255
	c-0.006,0.074-0.014,0.159-0.026,0.252c-0.046,0.163-0.084,0.316-0.114,0.462c-0.029,0.146-0.073,0.282-0.131,0.409
	c-0.198,0.441-0.45,0.808-0.758,1.099c-0.308,0.29-0.683,0.528-1.124,0.714c-0.128,0.058-0.256,0.104-0.384,0.14
	c-0.128,0.034-0.261,0.069-0.401,0.104c-0.128,0.034-0.256,0.058-0.383,0.07c-0.128,0.011-0.255,0.029-0.384,0.051
	c-0.047,0-0.093,0.004-0.139,0.01c-0.047,0.006-0.099,0.009-0.157,0.009c-0.046,0.011-0.099,0.015-0.157,0.01
	c-0.058-0.007-0.116-0.003-0.174,0.009c-0.058,0.011-0.134,0.018-0.227,0.018c-0.093,0-0.168-0.007-0.227-0.018h-0.156
	c-0.047,0-0.093-0.008-0.14-0.019c-0.093-0.023-0.189-0.034-0.288-0.034c-0.099,0-0.189-0.011-0.27-0.034
	c-0.023-0.012-0.052-0.018-0.087-0.018c-0.036,0-0.064-0.007-0.088-0.019c-0.116-0.022-0.229-0.048-0.34-0.077
	c-0.11-0.028-0.217-0.067-0.322-0.113c-0.441-0.186-0.836-0.422-1.185-0.706c-0.348-0.285-0.604-0.665-0.767-1.142
	c-0.024-0.035-0.035-0.07-0.035-0.105c0-0.034-0.006-0.063-0.018-0.087c-0.034-0.15-0.021-0.264,0.044-0.34
	c0.063-0.074,0.154-0.125,0.27-0.147c0.116-0.023,0.247-0.032,0.392-0.027c0.146,0.006,0.282,0.011,0.409,0.011h0.593
	c0.058,0,0.107,0.002,0.148,0.008c0.04,0.007,0.089,0.01,0.147,0.01c0.186,0.046,0.302,0.107,0.349,0.183
	c0.046,0.075,0.116,0.177,0.209,0.304c0.035,0.047,0.087,0.106,0.157,0.176c0.011,0.022,0.023,0.04,0.036,0.052
	c0.011,0.012,0.022,0.029,0.034,0.053c0.093,0.069,0.192,0.133,0.297,0.191c0.104,0.058,0.22,0.11,0.348,0.156
	c0.082,0.024,0.162,0.038,0.244,0.044c0.081,0.005,0.168,0.02,0.261,0.044h0.191c0.082,0.023,0.187,0.026,0.314,0.008
	c0.127-0.018,0.227-0.037,0.296-0.062c0.058-0.023,0.107-0.033,0.148-0.033c0.041,0,0.084-0.012,0.131-0.035
	c0.244-0.104,0.447-0.243,0.61-0.418c0.163-0.175,0.296-0.379,0.401-0.61c0.023-0.069,0.041-0.14,0.052-0.21
	c0.011-0.069,0.029-0.145,0.052-0.226c0.023-0.104,0.038-0.218,0.044-0.341c0.005-0.121,0.008-0.246,0.008-0.374
	c0-0.046,0.003-0.092,0.009-0.139c0.005-0.048,0.002-0.088-0.009-0.122c-0.023-0.059-0.032-0.111-0.026-0.156
	c0.005-0.047-0.003-0.094-0.026-0.14c-0.011-0.023-0.026-0.041-0.043-0.053c-0.018-0.011-0.038-0.029-0.061-0.052
	c-0.104-0.011-0.188,0.012-0.253,0.07c-0.064,0.058-0.125,0.11-0.183,0.156c-0.105,0.082-0.209,0.155-0.313,0.228
	c-0.105,0.069-0.221,0.133-0.349,0.191c-0.128,0.058-0.256,0.104-0.384,0.14c-0.128,0.032-0.262,0.069-0.401,0.104
	c-0.069,0.011-0.136,0.021-0.2,0.026c-0.064,0.007-0.125,0.014-0.183,0.026c-0.059,0.011-0.151,0.018-0.279,0.018
	c-0.128,0-0.22-0.007-0.279-0.018h-0.139c-0.035-0.012-0.072-0.018-0.113-0.018c-0.041,0-0.084-0.006-0.131-0.018
	c-0.163-0.034-0.32-0.065-0.47-0.096c-0.151-0.028-0.291-0.072-0.418-0.13c-0.5-0.197-0.903-0.475-1.211-0.828
	c-0.308-0.354-0.567-0.781-0.776-1.28c-0.058-0.128-0.099-0.262-0.122-0.401c-0.023-0.14-0.058-0.279-0.104-0.419
	c0-0.057-0.006-0.104-0.018-0.139c-0.023-0.094-0.035-0.194-0.035-0.305c0-0.111-0.012-0.212-0.035-0.306
	c-0.012-0.058-0.017-0.112-0.017-0.165v-0.165c-0.012-0.059-0.018-0.131-0.018-0.218s0.006-0.16,0.018-0.219v-0.174
	c0.011-0.046,0.014-0.094,0.008-0.14c-0.006-0.047,0.002-0.093,0.026-0.14c0.022-0.115,0.041-0.229,0.052-0.34
	c0.012-0.109,0.029-0.223,0.053-0.339c0.069-0.233,0.142-0.454,0.217-0.663c0.076-0.209,0.171-0.406,0.288-0.593
	c0.058-0.116,0.124-0.224,0.2-0.322c0.075-0.099,0.154-0.201,0.236-0.305c0.034-0.058,0.084-0.116,0.148-0.174
	c0.064-0.057,0.125-0.11,0.183-0.157l0.104-0.104c0.058-0.046,0.116-0.089,0.174-0.131c0.058-0.041,0.116-0.078,0.174-0.114
	c0.15-0.092,0.308-0.174,0.471-0.244s0.342-0.133,0.541-0.192c0.092-0.035,0.188-0.054,0.288-0.061
	c0.098-0.005,0.194-0.02,0.288-0.043c0.046-0.012,0.11-0.012,0.191,0c0.081,0.011,0.134,0.006,0.157-0.019
	c0.372-0.011,0.705,0.024,1.002,0.105c0.296,0.082,0.56,0.198,0.792,0.349c0.035,0.023,0.07,0.05,0.104,0.078
	c0.035,0.029,0.076,0.061,0.122,0.096c0.07,0.058,0.134,0.117,0.191,0.175c0.058,0.058,0.127,0.11,0.209,0.156
	c0.023,0.012,0.055,0.023,0.096,0.034c0.041,0.013,0.073,0.007,0.096-0.017c0.058-0.023,0.093-0.063,0.104-0.122
	c0.011-0.058,0.029-0.116,0.052-0.174c0.023-0.058,0.044-0.12,0.061-0.183c0.018-0.064,0.049-0.119,0.096-0.166
	c0.069-0.046,0.154-0.073,0.253-0.079c0.098-0.006,0.2-0.008,0.305-0.008h0.888c0.128,0,0.241,0.002,0.34,0.008
	C114.572,35.074,114.657,35.105,114.727,35.164 M112.339,40.549c0.046-0.105,0.087-0.239,0.122-0.401
	c0.035-0.163,0.058-0.335,0.07-0.514c0.011-0.18,0.015-0.357,0.009-0.532c-0.006-0.174-0.026-0.331-0.061-0.47
	c-0.023-0.047-0.032-0.084-0.025-0.112c0.005-0.03,0.002-0.067-0.009-0.115c-0.023-0.08-0.046-0.162-0.07-0.244
	c-0.023-0.08-0.052-0.156-0.087-0.226c-0.163-0.407-0.396-0.72-0.697-0.941c-0.302-0.22-0.744-0.331-1.324-0.331
	c-0.024,0.023-0.055,0.032-0.097,0.026c-0.041-0.006-0.079-0.002-0.113,0.009c-0.082,0.023-0.157,0.043-0.227,0.061
	c-0.07,0.017-0.14,0.038-0.209,0.061c-0.302,0.128-0.534,0.32-0.697,0.575c-0.163,0.256-0.296,0.54-0.401,0.853
	c-0.023,0.059-0.035,0.105-0.035,0.141c0,0.034-0.006,0.081-0.018,0.139c-0.035,0.129-0.058,0.313-0.069,0.559
	c-0.012,0.243,0,0.441,0.034,0.592v0.175c0.023,0.093,0.042,0.182,0.053,0.269c0.011,0.087,0.029,0.179,0.052,0.272
	c0.104,0.301,0.232,0.565,0.383,0.791c0.151,0.228,0.36,0.41,0.627,0.55c0.116,0.058,0.279,0.116,0.488,0.174
	c0.081,0,0.145,0.007,0.191,0.018c0.023,0,0.058,0.004,0.104,0.009c0.046,0.007,0.082,0.003,0.104-0.009h0.175
	c0.104-0.022,0.203-0.04,0.296-0.051c0.093-0.012,0.187-0.041,0.279-0.088c0.29-0.116,0.525-0.279,0.706-0.488
	S112.223,40.839,112.339,40.549"/>
<path d="M125.391,39.468c0.023,0.094,0.023,0.197,0,0.314c-0.023,0.115-0.064,0.191-0.122,0.226
	c-0.058,0.047-0.142,0.079-0.253,0.096c-0.111,0.018-0.232,0.03-0.365,0.035s-0.267,0.005-0.401,0
	c-0.134-0.006-0.253-0.01-0.358-0.01h-4.251h-0.235c-0.076,0-0.142,0.012-0.2,0.035c-0.093,0.047-0.151,0.094-0.174,0.141
	c-0.023,0.023-0.046,0.065-0.07,0.13c-0.023,0.063-0.029,0.125-0.017,0.183c0.022,0.07,0.037,0.137,0.043,0.2
	c0.005,0.063,0.02,0.131,0.043,0.2c0.093,0.279,0.206,0.508,0.34,0.688c0.133,0.181,0.316,0.341,0.549,0.479
	c0.093,0.06,0.188,0.097,0.288,0.114c0.099,0.018,0.2,0.044,0.305,0.078c0.093,0.024,0.22,0.041,0.383,0.053
	c0.163,0.011,0.302,0.006,0.418-0.019h0.157c0.116-0.022,0.224-0.049,0.322-0.078c0.098-0.028,0.194-0.061,0.288-0.095
	c0.116-0.059,0.247-0.134,0.393-0.227c0.145-0.093,0.253-0.186,0.321-0.279c0.059-0.081,0.12-0.16,0.183-0.236
	c0.064-0.074,0.143-0.13,0.236-0.165c0.115-0.058,0.263-0.083,0.444-0.078c0.18,0.007,0.346,0.01,0.497,0.01
	c0.07,0,0.142-0.003,0.218-0.01c0.075-0.005,0.142,0.003,0.2,0.027h0.175c0.116,0.023,0.197,0.051,0.244,0.087
	c0.046,0.023,0.072,0.075,0.078,0.156s-0.003,0.151-0.026,0.209c-0.059,0.162-0.123,0.309-0.192,0.436
	c-0.069,0.128-0.151,0.256-0.243,0.384c-0.256,0.383-0.547,0.691-0.872,0.923c-0.326,0.232-0.732,0.43-1.219,0.592
	c-0.128,0.047-0.256,0.076-0.384,0.087c-0.127,0.012-0.261,0.036-0.4,0.071c-0.046,0.011-0.096,0.014-0.148,0.009
	c-0.052-0.008-0.101-0.003-0.148,0.008h-0.191c-0.059,0.023-0.125,0.032-0.2,0.028c-0.076-0.008-0.142-0.016-0.2-0.028
	c-0.093-0.011-0.175-0.011-0.244,0c-0.071,0.013-0.146,0.007-0.227-0.016c-0.058-0.024-0.122-0.035-0.192-0.035
	c-0.069,0-0.133-0.013-0.191-0.036c-0.128-0.022-0.255-0.049-0.383-0.078c-0.127-0.027-0.244-0.071-0.349-0.13
	c-0.127-0.047-0.247-0.091-0.356-0.131c-0.111-0.042-0.212-0.091-0.305-0.149c-0.372-0.231-0.703-0.502-0.994-0.81
	s-0.529-0.664-0.714-1.071c-0.058-0.128-0.104-0.259-0.14-0.393c-0.035-0.133-0.082-0.27-0.139-0.409
	c-0.011-0.046-0.017-0.089-0.017-0.131c0-0.041-0.007-0.084-0.018-0.13c-0.047-0.14-0.076-0.291-0.087-0.454
	c-0.011-0.161-0.023-0.324-0.035-0.486c0-0.059-0.003-0.123-0.009-0.193c-0.005-0.069-0.002-0.133,0.009-0.191v-0.209l0.052-0.418
	c0.046-0.197,0.088-0.389,0.122-0.574c0.035-0.186,0.087-0.36,0.157-0.523c0.5-1.208,1.348-2.062,2.544-2.562
	c0.162-0.069,0.328-0.119,0.497-0.147c0.168-0.029,0.346-0.067,0.531-0.114c0.093-0.011,0.18-0.018,0.261-0.018
	c0.082,0,0.168-0.006,0.261-0.017c0.593-0.012,1.1,0.055,1.524,0.201c0.424,0.145,0.805,0.334,1.142,0.566
	c0.105,0.069,0.209,0.147,0.314,0.235c0.104,0.087,0.197,0.177,0.279,0.27c0.035,0.058,0.082,0.104,0.139,0.139
	c0.093,0.127,0.18,0.258,0.261,0.392c0.082,0.134,0.169,0.27,0.261,0.41c0.058,0.104,0.107,0.212,0.149,0.323
	c0.04,0.11,0.083,0.229,0.13,0.356c0.058,0.151,0.104,0.308,0.139,0.471c0.035,0.162,0.075,0.325,0.122,0.487
	c0.023,0.093,0.032,0.194,0.026,0.306c-0.006,0.109,0.003,0.212,0.027,0.304L125.391,39.468L125.391,39.468z M122.777,38.439
	c0.081-0.115,0.09-0.259,0.026-0.426c-0.064-0.168-0.113-0.294-0.148-0.375c-0.163-0.314-0.378-0.555-0.645-0.723
	c-0.267-0.168-0.639-0.258-1.116-0.27c-0.034,0.023-0.075,0.029-0.122,0.017c-0.046-0.012-0.087-0.012-0.123,0
	c-0.058,0.023-0.122,0.038-0.191,0.044c-0.069,0.006-0.134,0.02-0.192,0.043c-0.511,0.163-0.889,0.482-1.132,0.958
	c-0.023,0.047-0.049,0.107-0.079,0.183c-0.029,0.076-0.049,0.151-0.062,0.227c-0.011,0.075-0.008,0.148,0.009,0.218
	c0.018,0.07,0.055,0.128,0.114,0.174c0.093,0.059,0.221,0.088,0.383,0.088h0.47h1.936c0.161,0,0.333-0.004,0.514-0.01
	C122.601,38.583,122.719,38.534,122.777,38.439"/>
<path d="M142.957,37.429c0,0.035,0.002,0.082,0.008,0.139c0.006,0.059,0.009,0.123,0.009,0.192c0,0.069-0.003,0.133-0.009,0.191
	c-0.006,0.059-0.008,0.099-0.008,0.122c0,0.081-0.004,0.16-0.01,0.235c-0.007,0.075-0.008,0.148-0.008,0.218
	c-0.024,0.058-0.033,0.116-0.027,0.175c0.006,0.058,0.003,0.115-0.009,0.174c-0.023,0.128-0.041,0.257-0.052,0.384
	c-0.012,0.128-0.034,0.255-0.069,0.383c-0.059,0.198-0.112,0.387-0.157,0.566c-0.047,0.182-0.105,0.358-0.175,0.532
	c-0.197,0.487-0.442,0.929-0.731,1.324c-0.291,0.396-0.64,0.731-1.047,1.011c-0.232,0.163-0.474,0.302-0.722,0.418
	c-0.251,0.116-0.521,0.221-0.812,0.313c-0.116,0.034-0.234,0.062-0.357,0.078c-0.122,0.018-0.245,0.044-0.374,0.079
	c-0.059,0.012-0.113,0.017-0.166,0.017c-0.052,0-0.107,0.007-0.165,0.018c-0.048,0.012-0.094,0.015-0.14,0.01
	c-0.047-0.008-0.098-0.003-0.157,0.008c-0.022,0.014-0.058,0.015-0.104,0.009c-0.047-0.005-0.082-0.002-0.105,0.01
	c-0.093,0.023-0.209,0.029-0.348,0.017c-0.14-0.012-0.262-0.017-0.365-0.017h-4.062c-0.197,0-0.362-0.01-0.497-0.025
	c-0.133-0.019-0.229-0.097-0.287-0.236c-0.035-0.093-0.049-0.235-0.043-0.427s0.008-0.352,0.008-0.479V32.637
	c0-0.14-0.002-0.288-0.008-0.445c-0.006-0.156,0.02-0.281,0.078-0.374c0.047-0.07,0.134-0.128,0.262-0.175
	c0.022-0.011,0.046-0.014,0.068-0.008c0.024,0.006,0.048,0.003,0.07-0.009h4.688c0.069,0,0.142-0.002,0.218-0.008
	c0.075-0.006,0.143-0.003,0.201,0.008h0.209c0.058,0.023,0.122,0.032,0.191,0.026c0.07-0.006,0.133,0.003,0.191,0.026
	c0.07,0.023,0.136,0.032,0.199,0.026c0.064-0.005,0.132,0.003,0.201,0.027c0.164,0.035,0.32,0.066,0.472,0.096
	c0.15,0.029,0.295,0.073,0.435,0.131c0.128,0.059,0.255,0.11,0.384,0.157c0.128,0.047,0.249,0.104,0.366,0.174
	c0.29,0.186,0.558,0.366,0.801,0.54l0.105,0.104c0.114,0.093,0.221,0.198,0.313,0.314l0.155,0.139
	c0.059,0.093,0.126,0.183,0.201,0.27c0.074,0.087,0.141,0.177,0.2,0.27c0.15,0.244,0.285,0.502,0.4,0.775
	c0.115,0.273,0.221,0.561,0.314,0.863c0.059,0.151,0.095,0.308,0.113,0.471c0.018,0.163,0.044,0.326,0.078,0.488
	c0,0.059,0.003,0.107,0.01,0.148c0.005,0.041,0.009,0.084,0.009,0.131c0.022,0.068,0.031,0.145,0.025,0.226
	c-0.005,0.082,0.003,0.151,0.027,0.209V37.429L142.957,37.429z M140.237,38.266c0.024-0.058,0.035-0.151,0.035-0.279
	s-0.011-0.221-0.035-0.279v-0.331c-0.023-0.104-0.038-0.215-0.044-0.332c-0.005-0.115-0.02-0.22-0.043-0.313
	c-0.023-0.059-0.032-0.114-0.025-0.166c0.006-0.052-0.004-0.107-0.027-0.166c-0.059-0.186-0.113-0.363-0.165-0.531
	s-0.125-0.328-0.218-0.479c-0.175-0.279-0.375-0.52-0.601-0.723c-0.228-0.204-0.504-0.375-0.828-0.515
	c-0.104-0.034-0.209-0.066-0.313-0.096c-0.105-0.029-0.209-0.055-0.314-0.079c-0.093-0.011-0.177-0.021-0.253-0.025
	c-0.074-0.006-0.159-0.021-0.252-0.044c-0.047-0.011-0.094-0.015-0.14-0.009c-0.047,0.006-0.087,0.003-0.121-0.009h-0.385
	c-0.058-0.012-0.122-0.014-0.19-0.009c-0.07,0.007-0.141,0.009-0.21,0.009h-0.785c-0.023,0.023-0.061,0.029-0.112,0.018
	c-0.053-0.012-0.097-0.012-0.132,0c-0.058,0.023-0.115,0.043-0.174,0.061c-0.058,0.017-0.104,0.055-0.14,0.113
	c-0.047,0.058-0.069,0.14-0.069,0.244v0.349c0,0.151-0.004,0.308-0.009,0.47c-0.007,0.164-0.009,0.326-0.009,0.488v4.862
	c0,0.069-0.004,0.146-0.01,0.228c-0.006,0.08,0.004,0.151,0.026,0.208v0.174c0,0.083,0.004,0.161,0.009,0.236
	c0.007,0.075,0.02,0.143,0.044,0.199c0.069,0.141,0.203,0.213,0.4,0.219s0.401,0.009,0.61,0.009c0.453,0,0.912-0.003,1.378-0.009
	c0.465-0.006,0.859-0.073,1.186-0.2c0.428-0.175,0.769-0.406,1.019-0.697c0.249-0.29,0.462-0.65,0.636-1.079
	c0.047-0.094,0.082-0.198,0.105-0.314c0.022-0.116,0.051-0.232,0.087-0.349v-0.14c0.022-0.081,0.035-0.168,0.035-0.261
	s0.01-0.186,0.034-0.279V38.266L140.237,38.266z"/>
<path d="M147.033,31.748c0.081,0.093,0.123,0.232,0.123,0.418v0.54v0.47c0,0.163-0.042,0.273-0.123,0.332
	c-0.069,0.059-0.158,0.093-0.27,0.104c-0.11,0.011-0.23,0.018-0.357,0.018h-0.977c-0.127,0-0.241-0.006-0.34-0.018
	c-0.099-0.011-0.184-0.045-0.252-0.104c-0.048-0.035-0.079-0.102-0.097-0.201c-0.018-0.099-0.029-0.208-0.034-0.331
	c-0.007-0.122-0.007-0.247,0-0.375c0.006-0.127,0.009-0.238,0.009-0.331c0-0.093,0.003-0.177,0.009-0.252s0.026-0.143,0.061-0.201
	c0.023-0.046,0.056-0.081,0.096-0.104c0.041-0.023,0.085-0.046,0.132-0.07c0.023,0,0.053-0.002,0.087-0.008
	c0.034-0.006,0.063-0.009,0.088-0.009h1.272c0.115,0,0.225,0.006,0.33,0.017C146.895,31.655,146.975,31.69,147.033,31.748
	 M147.156,43.094c0,0.231-0.007,0.43-0.019,0.591c-0.011,0.163-0.116,0.273-0.313,0.331c-0.07,0.024-0.145,0.033-0.227,0.026
	c-0.081-0.006-0.168-0.008-0.262-0.008h-0.976c-0.104,0-0.206-0.005-0.305-0.019c-0.098-0.01-0.171-0.046-0.218-0.104
	c-0.07-0.082-0.107-0.184-0.114-0.306c-0.005-0.122-0.008-0.253-0.008-0.392v-7.354v-0.348c0-0.116,0.022-0.209,0.069-0.28
	c0.07-0.081,0.168-0.133,0.296-0.157c0.023-0.011,0.057-0.014,0.097-0.009c0.04,0.006,0.072,0.003,0.096-0.008h0.87
	c0.071,0,0.148-0.003,0.235-0.01c0.087-0.005,0.16-0.002,0.218,0.01h0.14c0.07,0.023,0.133,0.041,0.192,0.052
	c0.058,0.012,0.104,0.046,0.14,0.104c0.046,0.059,0.071,0.14,0.078,0.244c0.005,0.104,0.009,0.215,0.009,0.332L147.156,43.094
	L147.156,43.094z"/>
<path d="M157.628,35.164c0.082,0.058,0.126,0.154,0.131,0.288c0.006,0.133,0.01,0.27,0.01,0.41v7.439
	c0,0.095-0.004,0.184-0.01,0.271c-0.005,0.088-0.009,0.177-0.009,0.269c-0.011,0.095-0.021,0.179-0.025,0.255
	c-0.007,0.074-0.015,0.159-0.026,0.252c-0.047,0.163-0.085,0.316-0.114,0.462s-0.072,0.282-0.131,0.409
	c-0.197,0.441-0.449,0.808-0.758,1.099c-0.308,0.29-0.683,0.528-1.123,0.714c-0.129,0.058-0.256,0.104-0.384,0.14
	c-0.128,0.034-0.262,0.069-0.4,0.104c-0.129,0.034-0.257,0.058-0.385,0.07c-0.127,0.011-0.255,0.029-0.383,0.051
	c-0.046,0-0.094,0.004-0.139,0.01c-0.047,0.006-0.099,0.009-0.156,0.009c-0.047,0.011-0.1,0.015-0.157,0.01
	c-0.058-0.007-0.115-0.003-0.174,0.009c-0.059,0.011-0.134,0.018-0.227,0.018c-0.095,0-0.169-0.007-0.228-0.018h-0.156
	c-0.047,0-0.093-0.008-0.139-0.019c-0.095-0.023-0.189-0.034-0.288-0.034c-0.1,0-0.188-0.011-0.27-0.034
	c-0.025-0.012-0.052-0.018-0.088-0.018c-0.035,0-0.063-0.007-0.087-0.019c-0.116-0.022-0.23-0.048-0.34-0.077
	c-0.111-0.028-0.218-0.067-0.322-0.113c-0.442-0.186-0.836-0.422-1.186-0.706c-0.348-0.285-0.604-0.665-0.767-1.142
	c-0.023-0.035-0.035-0.07-0.035-0.105c0-0.034-0.005-0.063-0.017-0.087c-0.034-0.15-0.021-0.264,0.044-0.34
	c0.063-0.074,0.153-0.125,0.271-0.147c0.115-0.023,0.246-0.032,0.392-0.027c0.145,0.006,0.281,0.011,0.408,0.011h0.594
	c0.058,0,0.106,0.002,0.147,0.008c0.04,0.007,0.09,0.01,0.148,0.01c0.186,0.046,0.302,0.107,0.349,0.183
	c0.046,0.075,0.116,0.177,0.209,0.304c0.035,0.047,0.087,0.106,0.156,0.176c0.011,0.022,0.023,0.04,0.035,0.052
	c0.011,0.012,0.023,0.029,0.034,0.053c0.093,0.069,0.192,0.133,0.297,0.191c0.104,0.058,0.22,0.11,0.348,0.156
	c0.081,0.024,0.163,0.038,0.244,0.044c0.082,0.005,0.169,0.02,0.261,0.044h0.192c0.081,0.023,0.186,0.026,0.313,0.008
	c0.128-0.018,0.227-0.037,0.297-0.062c0.058-0.023,0.107-0.033,0.148-0.033c0.04,0,0.084-0.012,0.131-0.035
	c0.243-0.104,0.446-0.243,0.611-0.418c0.16-0.175,0.295-0.379,0.399-0.61c0.022-0.069,0.041-0.14,0.052-0.21
	c0.012-0.069,0.029-0.145,0.053-0.226c0.022-0.104,0.037-0.218,0.042-0.341c0.007-0.121,0.01-0.246,0.01-0.374
	c0-0.046,0.004-0.092,0.01-0.139c0.005-0.048,0.003-0.088-0.01-0.122c-0.023-0.059-0.031-0.111-0.026-0.156
	c0.007-0.047-0.003-0.094-0.025-0.14c-0.012-0.023-0.026-0.041-0.044-0.053c-0.018-0.011-0.038-0.029-0.061-0.052
	c-0.104-0.011-0.189,0.012-0.253,0.07c-0.064,0.058-0.125,0.11-0.183,0.156c-0.105,0.082-0.21,0.155-0.314,0.228
	c-0.104,0.069-0.221,0.133-0.348,0.191c-0.128,0.058-0.257,0.104-0.385,0.14c-0.127,0.032-0.261,0.069-0.399,0.104
	c-0.07,0.011-0.137,0.021-0.201,0.026c-0.063,0.007-0.125,0.014-0.183,0.026c-0.059,0.011-0.152,0.018-0.279,0.018
	c-0.128,0-0.221-0.007-0.278-0.018h-0.141c-0.034-0.012-0.072-0.018-0.113-0.018c-0.04,0-0.084-0.006-0.13-0.018
	c-0.162-0.034-0.319-0.065-0.471-0.096c-0.15-0.028-0.291-0.072-0.418-0.13c-0.5-0.197-0.903-0.475-1.211-0.828
	c-0.309-0.354-0.567-0.781-0.776-1.28c-0.059-0.128-0.099-0.262-0.122-0.401s-0.059-0.279-0.104-0.419
	c0-0.057-0.006-0.104-0.017-0.139c-0.023-0.094-0.035-0.194-0.035-0.305c0-0.111-0.012-0.212-0.035-0.306
	c-0.011-0.058-0.017-0.112-0.017-0.165v-0.165c-0.013-0.059-0.019-0.131-0.019-0.218s0.006-0.16,0.019-0.219v-0.174
	c0.01-0.046,0.015-0.094,0.008-0.14c-0.006-0.047,0.003-0.093,0.027-0.14c0.023-0.115,0.039-0.229,0.053-0.34
	c0.011-0.109,0.028-0.223,0.051-0.339c0.07-0.233,0.143-0.454,0.218-0.663c0.075-0.209,0.171-0.406,0.288-0.593
	c0.058-0.116,0.124-0.224,0.2-0.322c0.074-0.099,0.154-0.201,0.234-0.305c0.036-0.058,0.085-0.116,0.149-0.174
	c0.064-0.057,0.124-0.11,0.183-0.157l0.105-0.104c0.058-0.046,0.115-0.089,0.174-0.131c0.058-0.041,0.115-0.078,0.174-0.114
	c0.15-0.092,0.308-0.174,0.471-0.244c0.162-0.069,0.343-0.133,0.54-0.192c0.094-0.035,0.189-0.054,0.288-0.061
	c0.099-0.005,0.194-0.02,0.286-0.043c0.048-0.012,0.111-0.012,0.193,0c0.08,0.011,0.133,0.006,0.156-0.019
	c0.371-0.011,0.705,0.024,1.002,0.105c0.296,0.082,0.561,0.198,0.793,0.349c0.034,0.023,0.07,0.05,0.104,0.078
	c0.035,0.029,0.076,0.061,0.122,0.096c0.069,0.058,0.134,0.117,0.193,0.175c0.057,0.058,0.126,0.11,0.207,0.156
	c0.023,0.012,0.056,0.023,0.097,0.034c0.04,0.013,0.072,0.007,0.096-0.017c0.058-0.023,0.093-0.063,0.104-0.122
	c0.011-0.058,0.028-0.116,0.052-0.174s0.044-0.12,0.061-0.183c0.018-0.064,0.05-0.119,0.096-0.166
	c0.07-0.046,0.153-0.073,0.253-0.079c0.098-0.006,0.2-0.008,0.305-0.008h0.889c0.129,0,0.24,0.002,0.34,0.008
	C157.474,35.074,157.559,35.105,157.628,35.164 M155.241,40.549c0.046-0.105,0.087-0.239,0.121-0.401
	c0.036-0.163,0.06-0.335,0.07-0.514c0.012-0.18,0.015-0.357,0.01-0.532c-0.006-0.174-0.026-0.331-0.062-0.47
	c-0.023-0.047-0.031-0.084-0.026-0.112c0.005-0.03,0.003-0.067-0.009-0.115c-0.023-0.08-0.047-0.162-0.069-0.244
	c-0.024-0.08-0.053-0.156-0.088-0.226c-0.162-0.407-0.395-0.72-0.697-0.941c-0.302-0.22-0.743-0.331-1.323-0.331
	c-0.024,0.023-0.056,0.032-0.096,0.026c-0.041-0.006-0.079-0.002-0.113,0.009c-0.082,0.023-0.158,0.043-0.228,0.061
	c-0.069,0.017-0.139,0.038-0.208,0.061c-0.303,0.128-0.535,0.32-0.697,0.575c-0.163,0.256-0.297,0.54-0.401,0.853
	c-0.024,0.059-0.035,0.105-0.035,0.141c0,0.034-0.006,0.081-0.017,0.139c-0.035,0.129-0.06,0.313-0.07,0.559
	c-0.012,0.243,0,0.441,0.034,0.592v0.175c0.023,0.093,0.041,0.182,0.053,0.269c0.011,0.087,0.028,0.179,0.052,0.272
	c0.104,0.301,0.232,0.565,0.384,0.791c0.15,0.228,0.359,0.41,0.627,0.55c0.116,0.058,0.278,0.116,0.488,0.174
	c0.08,0,0.145,0.007,0.191,0.018c0.023,0,0.058,0.004,0.104,0.009c0.046,0.007,0.08,0.003,0.104-0.009h0.175
	c0.104-0.022,0.202-0.04,0.296-0.051c0.093-0.012,0.187-0.041,0.28-0.088c0.289-0.116,0.525-0.279,0.705-0.488
	S155.125,40.839,155.241,40.549"/>
<path d="M162.177,31.748c0.08,0.093,0.122,0.232,0.122,0.418v0.54v0.47c0,0.163-0.042,0.273-0.122,0.332
	c-0.069,0.059-0.161,0.093-0.271,0.104c-0.11,0.011-0.23,0.018-0.358,0.018h-0.975c-0.128,0-0.242-0.006-0.34-0.018
	c-0.1-0.011-0.183-0.045-0.253-0.104c-0.047-0.035-0.078-0.102-0.096-0.201c-0.018-0.099-0.029-0.208-0.035-0.331
	c-0.006-0.122-0.006-0.247,0-0.375c0.006-0.127,0.01-0.238,0.01-0.331c0-0.093,0.002-0.177,0.009-0.252
	c0.006-0.076,0.026-0.143,0.061-0.201c0.024-0.046,0.055-0.081,0.096-0.104c0.041-0.023,0.085-0.046,0.131-0.07
	c0.022,0,0.052-0.002,0.087-0.008c0.035-0.006,0.063-0.009,0.087-0.009h1.272c0.117,0,0.228,0.006,0.331,0.017
	C162.037,31.655,162.117,31.69,162.177,31.748 M162.299,43.094c0,0.231-0.006,0.43-0.018,0.591
	c-0.012,0.163-0.115,0.273-0.313,0.331c-0.07,0.024-0.146,0.033-0.227,0.026c-0.081-0.006-0.169-0.008-0.262-0.008h-0.976
	c-0.104,0-0.206-0.005-0.305-0.019c-0.099-0.01-0.172-0.046-0.218-0.104c-0.07-0.082-0.107-0.184-0.113-0.306
	c-0.007-0.122-0.009-0.253-0.009-0.392v-7.354v-0.348c0-0.116,0.023-0.209,0.069-0.28c0.07-0.081,0.169-0.133,0.297-0.157
	c0.023-0.011,0.054-0.014,0.096-0.009c0.04,0.006,0.072,0.003,0.095-0.008h0.872c0.069,0,0.147-0.003,0.235-0.01
	c0.088-0.005,0.158-0.002,0.218,0.01h0.14c0.069,0.023,0.134,0.041,0.192,0.052c0.057,0.012,0.104,0.046,0.138,0.104
	c0.046,0.059,0.073,0.14,0.078,0.244c0.007,0.104,0.01,0.215,0.01,0.332V43.094L162.299,43.094z"/>
<path d="M165.452,32.376h1.168c0.174,0,0.328,0.008,0.462,0.026s0.229,0.09,0.287,0.218c0.023,0.059,0.035,0.128,0.035,0.209v0.245
	v0.784c0,0.059-0.004,0.125-0.01,0.2c-0.005,0.075-0.003,0.143,0.01,0.2v0.192c0,0.093,0.006,0.177,0.017,0.252
	c0.012,0.076,0.041,0.143,0.087,0.201c0.081,0.104,0.229,0.159,0.445,0.166c0.216,0.005,0.421,0.008,0.618,0.008h0.209
	c0.07,0,0.134,0.012,0.192,0.035c0.127,0.058,0.2,0.164,0.218,0.313c0.018,0.152,0.026,0.319,0.026,0.506
	c0,0.081,0.002,0.162,0.01,0.244c0.005,0.081-0.004,0.15-0.027,0.209c-0.058,0.186-0.179,0.285-0.366,0.296
	c-0.186,0.012-0.396,0.017-0.627,0.017c-0.046,0-0.095-0.002-0.148-0.009c-0.051-0.006-0.095-0.002-0.13,0.009
	c-0.047,0.012-0.087,0.015-0.123,0.009c-0.034-0.006-0.069,0.002-0.104,0.026c-0.094,0.024-0.16,0.072-0.2,0.148
	c-0.041,0.076-0.072,0.166-0.096,0.27c-0.012,0.059-0.012,0.122,0,0.191c0.011,0.07,0.011,0.134,0,0.191v1.081v2.039
	c0,0.29,0.009,0.544,0.026,0.758c0.017,0.215,0.09,0.404,0.217,0.566c0.059,0.07,0.137,0.118,0.237,0.148
	c0.097,0.029,0.2,0.055,0.304,0.078c0.034,0.012,0.073,0.015,0.113,0.009c0.041-0.006,0.073-0.002,0.096,0.009h0.191
	c0.128,0,0.238,0.007,0.332,0.019c0.092,0.01,0.169,0.058,0.227,0.138c0.046,0.071,0.069,0.16,0.069,0.271v0.341
	c0,0.243-0.003,0.467-0.009,0.671c-0.006,0.203-0.103,0.34-0.287,0.409c-0.059,0.022-0.111,0.031-0.157,0.025
	c-0.047-0.006-0.098,0.004-0.156,0.027h-0.175c-0.022,0-0.058-0.004-0.104-0.009c-0.047-0.007-0.087-0.003-0.122,0.009
	c-0.058,0.011-0.119,0.015-0.184,0.009c-0.063-0.007-0.123-0.009-0.182-0.009s-0.116,0.002-0.174,0.009
	c-0.059,0.006-0.112,0.003-0.157-0.009h-0.192c-0.058-0.012-0.122-0.019-0.191-0.019s-0.133-0.005-0.191-0.017
	c-0.082-0.012-0.157-0.023-0.227-0.036c-0.07-0.01-0.139-0.021-0.21-0.034c-0.129-0.033-0.25-0.073-0.364-0.121
	c-0.117-0.046-0.228-0.098-0.332-0.156c-0.035-0.023-0.07-0.05-0.105-0.079c-0.034-0.027-0.074-0.06-0.121-0.095
	c-0.024-0.023-0.052-0.051-0.087-0.079s-0.064-0.055-0.088-0.077c-0.163-0.222-0.284-0.466-0.365-0.731
	c-0.023-0.047-0.031-0.091-0.026-0.132c0.006-0.04,0.003-0.091-0.009-0.148c-0.012-0.022-0.018-0.052-0.018-0.088
	c0-0.034-0.007-0.063-0.018-0.087v-0.174c-0.012-0.047-0.015-0.099-0.009-0.156c0.006-0.059,0.009-0.116,0.009-0.175v-0.662v-2.599
	v-0.923c0-0.081,0.004-0.163,0.009-0.244c0.007-0.081-0.003-0.157-0.025-0.227c-0.047-0.163-0.129-0.267-0.244-0.314
	c-0.129-0.058-0.29-0.076-0.488-0.052c-0.197,0.023-0.365,0.005-0.505-0.053c-0.093-0.035-0.151-0.087-0.175-0.157
	c-0.023-0.069-0.046-0.157-0.069-0.261v-0.366c0-0.209,0.011-0.377,0.034-0.505c0.023-0.127,0.122-0.214,0.296-0.261
	c0.047-0.023,0.094-0.032,0.14-0.026c0.047,0.005,0.099,0.008,0.156,0.008c0.175,0,0.337-0.008,0.487-0.026
	c0.151-0.018,0.257-0.083,0.314-0.2c0.035-0.082,0.056-0.175,0.061-0.28c0.006-0.104,0.01-0.209,0.01-0.313v-1.081v-0.296
	c0-0.104,0.01-0.192,0.034-0.262c0.059-0.116,0.146-0.191,0.262-0.226c0.023-0.012,0.056-0.014,0.096-0.009
	C165.397,32.391,165.43,32.388,165.452,32.376"/>
<path d="M178.556,43.354c0.023,0.129,0.039,0.257,0.044,0.384c0.006,0.128-0.055,0.215-0.183,0.261
	c-0.07,0.036-0.151,0.052-0.244,0.052h-0.278h-0.941c-0.104,0-0.206-0.001-0.305-0.009c-0.1-0.006-0.178-0.031-0.234-0.077
	c-0.083-0.047-0.145-0.114-0.184-0.201c-0.041-0.087-0.097-0.159-0.166-0.218c-0.024-0.022-0.052-0.044-0.087-0.061
	c-0.035-0.018-0.082-0.02-0.139-0.01c-0.06,0.024-0.115,0.054-0.166,0.088c-0.052,0.035-0.108,0.063-0.167,0.087
	c-0.057,0.046-0.121,0.088-0.191,0.122c-0.069,0.034-0.139,0.068-0.209,0.104c-0.15,0.07-0.308,0.125-0.471,0.165
	c-0.162,0.04-0.33,0.084-0.505,0.132c-0.082,0.022-0.16,0.037-0.235,0.043c-0.076,0.006-0.154,0.015-0.235,0.025
	c-0.034,0-0.07,0.004-0.105,0.01c-0.034,0.005-0.068,0.009-0.104,0.009h-0.192c-0.115,0.024-0.232,0.024-0.348,0h-0.156
	c-0.082-0.023-0.161-0.031-0.236-0.025s-0.148-0.004-0.218-0.027c-0.117-0.022-0.227-0.044-0.331-0.061
	c-0.104-0.018-0.204-0.049-0.297-0.096c-0.338-0.128-0.625-0.293-0.862-0.496c-0.238-0.203-0.426-0.474-0.566-0.811
	c-0.035-0.081-0.066-0.169-0.096-0.261c-0.029-0.094-0.056-0.192-0.079-0.298c-0.022-0.057-0.031-0.115-0.025-0.174
	c0.005-0.058,0.003-0.116-0.01-0.174c-0.011-0.035-0.021-0.108-0.025-0.219c-0.006-0.109-0.004-0.188,0.009-0.234
	c0.023-0.116,0.035-0.216,0.035-0.297c0.034-0.128,0.069-0.258,0.104-0.392c0.033-0.134,0.081-0.253,0.139-0.357
	c0.197-0.337,0.425-0.592,0.68-0.767c0.257-0.175,0.582-0.325,0.976-0.453c0.152-0.058,0.308-0.099,0.471-0.122
	c0.162-0.023,0.326-0.053,0.488-0.087c0.093-0.023,0.191-0.038,0.296-0.044s0.209-0.02,0.314-0.044
	c0.08-0.023,0.162-0.032,0.243-0.025c0.082,0.006,0.168-0.004,0.261-0.027c0.082-0.022,0.163-0.035,0.244-0.035
	s0.168-0.01,0.261-0.033c0.244-0.059,0.469-0.108,0.672-0.148c0.203-0.041,0.386-0.143,0.549-0.306
	c0.104-0.104,0.174-0.22,0.21-0.348c0.011-0.035,0.014-0.063,0.008-0.088c-0.006-0.023-0.003-0.046,0.01-0.069
	c0.011-0.023,0.017-0.058,0.017-0.105v-0.104c-0.011-0.046-0.021-0.094-0.026-0.139c-0.006-0.046-0.015-0.088-0.026-0.122
	c-0.115-0.349-0.359-0.586-0.732-0.714c-0.104-0.035-0.229-0.061-0.374-0.079c-0.145-0.018-0.293-0.023-0.444-0.018
	c-0.151,0.006-0.296,0.021-0.437,0.044c-0.139,0.024-0.261,0.052-0.365,0.087c-0.069,0.023-0.136,0.055-0.2,0.096
	c-0.063,0.041-0.125,0.084-0.183,0.131s-0.119,0.111-0.184,0.191c-0.063,0.081-0.107,0.157-0.13,0.227
	c-0.059,0.116-0.108,0.227-0.147,0.331c-0.041,0.105-0.127,0.175-0.254,0.209c-0.093,0.023-0.191,0.034-0.296,0.034h-0.313h-0.663
	c-0.059,0-0.116,0.003-0.174,0.01c-0.06,0.005-0.111,0.003-0.157-0.01h-0.157c-0.022-0.011-0.052-0.017-0.087-0.017
	c-0.034,0-0.063-0.011-0.086-0.034c-0.094-0.023-0.157-0.099-0.192-0.227c-0.012-0.058-0.012-0.116,0-0.174
	c0.011-0.058,0.022-0.111,0.034-0.157c0.035-0.127,0.073-0.247,0.114-0.357s0.09-0.211,0.148-0.305
	c0.034-0.059,0.068-0.117,0.104-0.174c0.034-0.059,0.07-0.116,0.105-0.175c0.093-0.128,0.209-0.25,0.348-0.366
	c0.024-0.011,0.059-0.041,0.104-0.087c0.058-0.046,0.11-0.087,0.157-0.122c0.045-0.035,0.099-0.07,0.157-0.104
	c0.196-0.127,0.405-0.229,0.627-0.305c0.221-0.076,0.447-0.148,0.68-0.218c0.139-0.035,0.284-0.058,0.435-0.069
	c0.151-0.012,0.302-0.035,0.453-0.07c0.047-0.011,0.119-0.011,0.219,0c0.099,0.011,0.158,0.006,0.183-0.018
	c0.476-0.011,0.932,0.006,1.368,0.053c0.435,0.046,0.83,0.133,1.185,0.261s0.659,0.299,0.915,0.514s0.453,0.491,0.592,0.827
	c0.082,0.198,0.128,0.424,0.139,0.68c0.012,0.256,0.019,0.517,0.019,0.784v3.887v0.671c0,0.227,0.022,0.434,0.069,0.618
	c0.012,0.035,0.019,0.073,0.019,0.113C178.539,43.281,178.545,43.319,178.556,43.354 M175.995,40.67
	c0.011-0.058,0.018-0.125,0.018-0.199c0-0.076-0.007-0.142-0.018-0.201c-0.023-0.069-0.034-0.133-0.034-0.191
	c0-0.058-0.023-0.104-0.07-0.14c-0.058-0.046-0.146-0.069-0.261-0.069c-0.048,0.011-0.087,0.021-0.122,0.026
	c-0.035,0.005-0.077,0.015-0.122,0.026c-0.082,0.022-0.17,0.041-0.262,0.052c-0.093,0.011-0.186,0.029-0.278,0.052
	c-0.035,0.012-0.088,0.019-0.157,0.019c-0.151,0.034-0.302,0.058-0.452,0.069c-0.151,0.011-0.298,0.04-0.437,0.088
	c-0.093,0.021-0.18,0.043-0.261,0.061c-0.082,0.018-0.163,0.043-0.244,0.077c-0.244,0.105-0.45,0.262-0.619,0.472
	c-0.168,0.209-0.229,0.499-0.182,0.872c0.022,0.196,0.086,0.358,0.191,0.486c0.08,0.129,0.203,0.229,0.365,0.305
	s0.34,0.131,0.531,0.166s0.396,0.044,0.61,0.025c0.215-0.017,0.415-0.054,0.601-0.112c0.302-0.093,0.54-0.241,0.716-0.445
	c0.174-0.203,0.307-0.455,0.399-0.758c0.024-0.081,0.039-0.166,0.044-0.253c0.007-0.087,0.021-0.177,0.044-0.27L175.995,40.67
	L175.995,40.67z"/>
<path d="M180.961,31.626h1.272c0.115,0,0.227,0.006,0.331,0.018c0.104,0.012,0.186,0.047,0.244,0.104
	c0.069,0.081,0.107,0.188,0.113,0.322c0.005,0.134,0.009,0.27,0.009,0.41v1.551v6.256v2.666c0,0.141,0.003,0.299,0.009,0.479
	c0.006,0.182-0.021,0.317-0.078,0.409c-0.059,0.094-0.163,0.157-0.315,0.193c-0.068,0.022-0.146,0.028-0.233,0.017
	c-0.088-0.011-0.172-0.017-0.254-0.017h-0.836c-0.128,0-0.244-0.005-0.349-0.019c-0.104-0.01-0.191-0.046-0.261-0.104
	c-0.071-0.058-0.107-0.149-0.115-0.271c-0.005-0.122-0.008-0.245-0.008-0.374v-1.551v-6.535v-2.37c0-0.151-0.003-0.332-0.008-0.54
	c-0.007-0.209,0.02-0.36,0.078-0.454c0.022-0.046,0.054-0.082,0.095-0.104c0.04-0.023,0.084-0.046,0.131-0.07
	c0.023,0,0.053-0.002,0.088-0.008C180.908,31.629,180.937,31.626,180.961,31.626"/>
<path id="dot" fill="#4D84F1" d="M70.607,32.288c0,1.278-1.036,2.314-2.314,2.314c-1.277,0-2.313-1.036-2.313-2.314
	c0-1.278,1.036-2.313,2.313-2.313C69.571,29.974,70.607,31.01,70.607,32.288"/>
<rect x="66.822" y="35.287" width="2.941" height="8.764"/>
</svg>
