<?xml version="1.0" encoding="utf-8"?>
<!-- Generator: Adobe Illustrator 16.0.0, SVG Export Plug-In . SVG Version: 6.00 Build 0)  -->
<!DOCTYPE svg PUBLIC "-//W3C//DTD SVG 1.1//EN" "http://www.w3.org/Graphics/SVG/1.1/DTD/svg11.dtd">
<svg version="1.1" id="Layer_1" xmlns="http://www.w3.org/2000/svg" xmlns:xlink="http://www.w3.org/1999/xlink" x="0px" y="0px"
	 width="2500px" height="2500px" viewBox="0 0 2500 2500" enable-background="new 0 0 2500 2500" xml:space="preserve">
<path d="M1259.517,1015.874v245.505c2.76,0.256,4.835,0.635,6.907,0.635c88.145,0.026,176.285,0.035,264.43-0.026
	c2.619,0,5.26-0.644,7.838-1.252c14.025-3.173,27.364-8.022,39.059-16.706c9.926-7.383,17.839-16.576,23.326-27.537
	c8.494-16.944,11.439-35.157,11.359-54.065c-0.176-49.426,0.045-98.86-0.109-148.289c-0.059-18.163-8.583-32.136-22.366-43.526
	c-12.55-10.358-27.108-16.909-41.959-22.897c-6.471-2.598-13.312-4.115-20.515-4.097c-71.095,0.104-142.189,0.068-213.299,0.053
	c-2.794,0-5.589-0.192-9.877-0.335c98.75-169.854,196.729-338.382,294.699-506.902c0.604,0.293,1.189,0.571,1.789,0.853
	c-3.733,12.076-9.737,23.287-14.484,34.966c-4.822,11.864-10.371,23.417-15.516,35.149c-5.145,11.74-10.191,23.534-15.265,35.3
	c-5.078,11.785-10.125,23.584-15.212,35.356c-5.061,11.754-10.143,23.492-15.221,35.232c-5.086,11.767-10.129,23.551-15.273,35.29
	c-5.152,11.756-10.451,23.452-15.604,35.21c-5.117,11.688-10.146,23.419-15.745,36.363h9.354c42.368,0,84.737,0.141,127.098-0.105
	c9.341-0.055,18.214,2.186,27.179,3.848c10.883,2.019,21.52,5.3,32.311,7.868c15.639,3.722,30.322,9.961,44.819,16.699
	c31.608,14.689,59.356,34.798,83.478,59.91c17.23,17.929,31.754,37.987,43.889,59.579c10.434,18.535,18.984,38.142,25.451,58.431
	c4.161,13.083,6.758,26.65,9.922,40.026c0.441,1.854,0.199,3.876,0.199,5.825c0.004,75.726,0.162,151.451-0.177,227.177
	c-0.058,10.773-2.081,21.524-5.073,32.07c-4.184,14.775-9.499,29.174-17.451,42.124c-7.572,12.343-16.336,24.208-26.023,34.946
	c-9.549,10.578-20.453,20.073-31.619,28.986c-15.334,12.271-32.027,22.639-49.849,31.059c-5.426,2.556-10.817,5.201-17.164,8.26
	c2.015,0.838,3.147,1.569,4.372,1.764c14.604,2.344,28.854,6.029,42.352,12.077c9.939,4.452,19.871,9.08,29.242,14.581
	c15.547,9.143,29.374,20.629,41.522,34.029c17.106,18.857,30.132,40.323,39.711,63.8c4.108,10.05,6.934,20.611,10.089,31.022
	c0.759,2.486,0.67,5.299,0.67,7.961c0.031,87.902,0.018,175.797,0.031,263.699c0,10.755-2.636,21.104-5.461,31.313
	c-3.716,13.487-7.846,26.923-12.744,40.032c-5.844,15.621-12.941,30.785-21.228,45.313c-10.354,18.144-22.595,34.999-36.56,50.532
	c-16.922,18.83-35.977,35.148-57.056,49.245c-18.245,12.21-37.679,22.048-57.774,30.573c-18.474,7.855-37.75,13.426-57.289,17.976
	c-16.993,3.958-34.113,6.347-51.656,6.339c-194.795-0.133-389.584-0.115-584.374,0.061c-6.229,0-10.412-1.648-14.167-6.576
	c-5.274-6.947-11.399-13.232-16.926-19.994c-1.256-1.543-1.803-3.799-2.239-5.818c-0.359-1.613-0.082-3.377-0.082-5.087
	c0-180.671,0.099-361.333-0.253-541.995c-0.016-9.363,3.947-16.301,8.036-23.529c14.894-26.377,30.013-52.641,45.205-78.822
	c9.614-16.565,19.69-32.857,29.253-49.448c9.781-16.962,19.084-34.214,28.81-51.22c15.617-27.32,31.42-54.54,47.138-81.809
	c12.457-21.609,24.83-43.268,37.361-64.844c14.114-24.294,28.462-48.447,42.505-72.786c9.561-16.532,18.747-33.324,28.215-49.924
	c1.961-3.445,4.412-6.603,6.634-9.887C1258.617,1015.583,1259.059,1015.735,1259.517,1015.874 M1255.4,1838.242
	c3.518,0,6.607-0.018,9.701,0c96.586,0.819,193.203-1.588,289.771,1.225c19.998,0.582,36.895-7.625,51.299-21.07
	c16.772-15.647,27.135-35.351,34.862-56.597c1.222-3.323,1.896-7.044,1.904-10.588c0.101-60.115,0.097-120.239,0.053-180.345
	c0-2.654-0.062-5.422-0.718-7.952c-5.837-22.542-18.236-40.702-37.27-54.085c-24.86-17.465-53.213-21.432-82.697-20.603
	c-6.797,0.185-13.598,0.6-20.398,0.6c-71.559,0.035-143.112,0.07-214.67-0.026c-11.563,0-21.344,5.43-31.838,8.543V1838.242z"/>
<path d="M597.641,2067.276c19.08-47.227,39.171-94.065,58.585-141.159c49.803-152.23,81.293-141.731,17.678-175.144
	c0.141-427.822,0.132-855.649,0.015-1283.467c0-6.927,2.222-12.739,5.515-18.447c5.058-8.758,11.546-16.217,20.027-21.804
	c3.751-2.475,7.914-3.187,12.472-3.178c51.376,0.112,102.75,0.068,154.126,0.068c14.859,0,29.736,0.502,44.558-0.165
	c10.843-0.48,18.233,4.758,24.041,12.541c6.491,8.684,9.781,18.738,9.781,29.837c-0.046,331.644-0.053,663.288,0.07,994.937
	c0,5.104-1.3,9.398-3.755,13.683c-18.247,31.78-36.348,63.624-54.629,95.369c-12.206,21.22-24.671,42.272-36.949,63.438
	c-10.932,18.866-21.802,37.758-32.61,56.686c-7.938,13.895-15.632,27.911-23.593,41.778c-9.521,16.565-19.287,32.997-28.814,49.58
	c-8.919,15.517-17.612,31.164-26.498,46.706c-6.259,10.932-12.741,21.723-19.014,32.645c-9.885,17.218-19.624,34.515-29.509,51.732
	c-13.752,23.926-27.668,47.781-41.368,71.733c-13.942,24.411-27.675,48.937-41.575,73.348c-2.001,3.518-4.448,6.779-6.685,10.155
	C598.889,2067.85,598.263,2067.567,597.641,2067.276"/>
</svg>
