<?xml version="1.0" encoding="utf-8"?>
<!-- Generator: Adobe Illustrator 16.0.0, SVG Export Plug-In . SVG Version: 6.00 Build 0)  -->
<!DOCTYPE svg PUBLIC "-//W3C//DTD SVG 1.1//EN" "http://www.w3.org/Graphics/SVG/1.1/DTD/svg11.dtd">
<svg version="1.1" id="Layer_1" xmlns="http://www.w3.org/2000/svg" xmlns:xlink="http://www.w3.org/1999/xlink" x="0px" y="0px"
	 width="700px" height="1390.428px" viewBox="0 0 700 1390.428" enable-background="new 0 0 700 1390.428" xml:space="preserve">
<circle fill="none" stroke="#EA5159" stroke-width="2" stroke-miterlimit="10" cx="348.827" cy="1299.722" r="48.977"/>
<path fill="none" stroke="#EA5159" stroke-width="2" stroke-miterlimit="10" d="M685,1310.288c0,40.734-34.256,73.926-75.678,73.926
	H88.352c-41.424,0-75.352-33.191-75.352-73.926V80.38C13,39.647,46.928,6.214,88.352,6.214h520.97
	C650.744,6.214,685,39.647,685,80.38V1310.288z"/>
<path fill="none" stroke="#EA5159" stroke-width="2" stroke-miterlimit="10" d="M398,93.442c0,2.083-1.688,3.771-3.771,3.771
	h-93.457c-2.083,0-3.771-1.688-3.771-3.771v-0.457c0-2.083,1.688-3.771,3.771-3.771h93.457c2.083,0,3.771,1.688,3.771,3.771V93.442z
	"/>
<circle fill="none" stroke="#EA5159" stroke-width="2" stroke-miterlimit="10" cx="348.613" cy="52.404" r="10.098"/>
<circle fill="none" stroke="#EA5159" stroke-width="2" stroke-miterlimit="10" cx="241.235" cy="94.147" r="11.109"/>
<path fill="none" stroke="#EA5159" stroke-width="2" stroke-miterlimit="10" d="M690.304,305.214H685v97h5.304
	c1.116,0,1.696-0.617,1.696-1.732V307.48C692,306.365,691.42,305.214,690.304,305.214z"/>
<path fill="none" stroke="#EA5159" stroke-width="2" stroke-miterlimit="10" d="M673,1309.884c0,35.247-27.594,64.33-62.954,64.33
	H87.442c-35.359,0-64.442-29.083-64.442-64.33V80.545c0-35.247,29.083-64.332,64.442-64.332h522.604
	c35.36,0,62.954,29.084,62.954,64.332V1309.884z"/>
<path fill="none" stroke="#EA5159" stroke-width="2" stroke-miterlimit="10" d="M13,181.214h-1.918C9.967,181.214,8,181.484,8,182.6
	v42.095c0,1.115,1.967,1.519,3.082,1.519H13V181.214z"/>
<path fill="none" stroke="#EA5159" stroke-width="2" stroke-miterlimit="10" d="M13,305.214H9.491c-1.116,0-2.491,1.151-2.491,2.267
	v93.001c0,1.115,1.375,1.732,2.491,1.732H13V305.214z"/>
<path fill="none" stroke="#EA5159" stroke-width="2" stroke-miterlimit="10" d="M13,432.214H9.491c-1.116,0-2.491,1.418-2.491,2.532
	v93.002c0,1.115,1.375,1.466,2.491,1.466H13V432.214z"/>
</svg>
