<?xml version="1.0" encoding="utf-8"?>
<!-- Generator: Adobe Illustrator 16.0.0, SVG Export Plug-In . SVG Version: 6.00 Build 0)  -->
<!DOCTYPE svg PUBLIC "-//W3C//DTD SVG 1.1//EN" "http://www.w3.org/Graphics/SVG/1.1/DTD/svg11.dtd">
<svg version="1.1" id="Layer_1" xmlns="http://www.w3.org/2000/svg" xmlns:xlink="http://www.w3.org/1999/xlink" x="0px" y="0px"
	 width="100px" height="100px" viewBox="0 0 100 100" enable-background="new 0 0 100 100" xml:space="preserve">
<path fill="#FFFFFF" stroke="#000000" stroke-width="0.3" stroke-miterlimit="10" d="M52.772,36.171v14.468
	c0.162,0.014,0.284,0.037,0.407,0.037c5.195,0.002,10.388,0.002,15.584-0.002c0.151,0,0.31-0.038,0.461-0.074
	c0.828-0.187,1.611-0.472,2.304-0.984c0.585-0.435,1.05-0.977,1.372-1.623c0.501-0.999,0.675-2.072,0.669-3.187
	c-0.009-2.913,0.003-5.826-0.005-8.739c-0.004-1.07-0.505-1.894-1.318-2.564c-0.741-0.612-1.598-0.997-2.473-1.35
	c-0.38-0.152-0.785-0.242-1.209-0.242c-4.188,0.006-8.378,0.004-12.57,0.003c-0.163,0-0.33-0.01-0.58-0.02
	c5.819-10.01,11.593-19.94,17.367-29.872c0.033,0.017,0.069,0.034,0.104,0.051c-0.221,0.71-0.574,1.372-0.854,2.06
	c-0.285,0.7-0.612,1.38-0.916,2.07c-0.302,0.693-0.601,1.388-0.898,2.082c-0.301,0.694-0.597,1.39-0.896,2.083
	c-0.299,0.692-0.598,1.384-0.896,2.075c-0.301,0.694-0.598,1.389-0.902,2.081c-0.302,0.692-0.615,1.382-0.919,2.075
	c-0.301,0.689-0.598,1.38-0.927,2.143h0.551c2.498,0,4.994,0.008,7.491-0.007c0.551-0.003,1.071,0.129,1.601,0.228
	c0.641,0.119,1.267,0.312,1.903,0.464c0.923,0.219,1.786,0.587,2.643,0.984c1.861,0.866,3.497,2.052,4.918,3.531
	c1.018,1.056,1.874,2.239,2.589,3.511c0.612,1.092,1.117,2.247,1.499,3.443c0.245,0.771,0.396,1.571,0.584,2.359
	c0.026,0.109,0.012,0.228,0.012,0.343c0,4.464,0.009,8.926-0.01,13.389c-0.004,0.635-0.125,1.269-0.299,1.889
	c-0.246,0.872-0.562,1.72-1.03,2.48c-0.445,0.729-0.961,1.429-1.532,2.062c-0.563,0.625-1.206,1.182-1.864,1.708
	c-0.901,0.722-1.886,1.336-2.938,1.83c-0.32,0.15-0.638,0.307-1.011,0.484c0.119,0.053,0.185,0.097,0.257,0.106
	c0.859,0.139,1.7,0.356,2.497,0.715c0.586,0.258,1.172,0.532,1.723,0.857c0.916,0.538,1.731,1.216,2.447,2.004
	c1.008,1.111,1.776,2.376,2.339,3.762c0.243,0.589,0.411,1.212,0.595,1.825c0.045,0.148,0.04,0.315,0.04,0.472
	c0.003,5.179,0.003,10.359,0.003,15.538c0,0.636-0.155,1.244-0.322,1.847c-0.219,0.794-0.46,1.587-0.752,2.357
	c-0.343,0.92-0.763,1.815-1.25,2.672c-0.61,1.069-1.331,2.063-2.155,2.978c-0.996,1.109-2.12,2.071-3.36,2.903
	c-1.077,0.717-2.223,1.298-3.404,1.799c-1.091,0.464-2.227,0.793-3.378,1.06c-1.001,0.234-2.01,0.374-3.044,0.374
	c-11.481-0.009-22.959-0.007-34.437,0.004c-0.369,0-0.614-0.097-0.836-0.388c-0.309-0.41-0.672-0.778-0.996-1.18
	c-0.075-0.09-0.106-0.221-0.133-0.34c-0.021-0.097-0.004-0.201-0.004-0.301c0-10.648,0.006-21.293-0.016-31.94
	c0-0.55,0.234-0.959,0.475-1.387c0.877-1.555,1.769-3.103,2.665-4.646c0.566-0.976,1.159-1.937,1.724-2.911
	c0.576-1.001,1.123-2.017,1.698-3.021c0.919-1.609,1.85-3.214,2.776-4.82c0.733-1.273,1.464-2.55,2.202-3.822
	c0.833-1.431,1.678-2.854,2.505-4.289c0.564-0.974,1.104-1.963,1.664-2.941c0.115-0.204,0.261-0.39,0.392-0.583
	C52.719,36.153,52.744,36.161,52.772,36.171 M52.531,84.634c0.205,0,0.391-0.002,0.57,0c5.691,0.046,11.386-0.094,17.076,0.07
	c1.18,0.036,2.174-0.448,3.025-1.239c0.988-0.923,1.597-2.084,2.052-3.339c0.073-0.194,0.112-0.413,0.114-0.623
	c0.007-3.541,0.005-7.085,0.003-10.628c0-0.157-0.005-0.318-0.043-0.469c-0.344-1.326-1.073-2.397-2.196-3.187
	c-1.466-1.028-3.136-1.264-4.874-1.212c-0.4,0.01-0.8,0.034-1.202,0.034c-4.218,0.003-8.435,0.004-12.649-0.001
	c-0.683,0-1.26,0.319-1.876,0.503V84.634z"/>
<path fill="#FFFFFF" stroke="#000000" stroke-width="0.3" stroke-miterlimit="10" d="M13.768,98.13
	c1.125-2.782,2.308-5.543,3.454-8.319c2.934-8.971,4.79-8.352,1.041-10.321c0.008-25.21,0.008-50.424,0-75.634
	c0-0.409,0.132-0.75,0.325-1.087c0.299-0.517,0.682-0.956,1.181-1.285c0.222-0.146,0.467-0.188,0.736-0.187
	C23.531,1.302,26.559,1.3,29.586,1.3c0.875,0,1.753,0.029,2.627-0.01c0.639-0.029,1.075,0.281,1.417,0.739
	c0.382,0.512,0.577,1.104,0.577,1.758c-0.004,19.544-0.004,39.087,0.004,58.634c0,0.3-0.077,0.551-0.222,0.803
	c-1.074,1.874-2.141,3.75-3.219,5.62c-0.718,1.252-1.453,2.492-2.176,3.741c-0.646,1.112-1.285,2.225-1.923,3.339
	c-0.468,0.819-0.92,1.646-1.389,2.463c-0.561,0.976-1.137,1.943-1.699,2.921c-0.525,0.914-1.039,1.838-1.562,2.753
	c-0.368,0.644-0.75,1.28-1.12,1.924c-0.583,1.014-1.157,2.034-1.739,3.048c-0.812,1.41-1.632,2.817-2.438,4.228
	c-0.82,1.438-1.63,2.883-2.45,4.324c-0.118,0.207-0.262,0.399-0.393,0.599C13.842,98.164,13.806,98.146,13.768,98.13"/>
</svg>
