<?xml version="1.0" encoding="utf-8"?>
<!-- Generator: Adobe Illustrator 16.0.0, SVG Export Plug-In . SVG Version: 6.00 Build 0)  -->
<!DOCTYPE svg PUBLIC "-//W3C//DTD SVG 1.1//EN" "http://www.w3.org/Graphics/SVG/1.1/DTD/svg11.dtd">
<svg version="1.1" id="Layer_1" xmlns="http://www.w3.org/2000/svg" xmlns:xlink="http://www.w3.org/1999/xlink" x="0px" y="0px"
	 width="1500px" height="1500px" viewBox="0 0 1500 1500" enable-background="new 0 0 1500 1500" xml:space="preserve">
<rect x="101" y="559" width="198" height="634.541"/>
<path d="M933,723c0,0,170-56,144-212S921,327,803,313c0,0-280-6-342,18v862.541c0,0,556,75.459,628-162.541S973,725,933,723z
	 M657,461c0,0,220-48,224,98S657,667,657,667V461z M903,930c-8,159-246,125-246,125V805C657,805,911,771,903,930z"/>
<circle cx="200" cy="382" r="99"/>
<circle cx="1271.037" cy="1111.586" r="99"/>
</svg>
