<?xml version="1.0" encoding="UTF-8"?><!DOCTYPE svg PUBLIC "-//W3C//DTD SVG 1.1//EN" "http://www.w3.org/Graphics/SVG/1.1/DTD/svg11.dtd"><svg xmlns="http://www.w3.org/2000/svg" xmlns:xlink="http://www.w3.org/1999/xlink"><symbol id="arrow-down" viewBox="0 0 21.61 21.49"><title>arrow-down</title><polygon points="17.26 19 3.85 19 3.85 21.55 21.55 21.55 21.55 3.73 19.13 3.73 19.13 17.14 1.92 -0.06 0.06 1.8 17.26 19"/></symbol><symbol id="arrow-thin" viewBox="0 0 17.6 14.7">
<style type="text/css">
	.st0{fill:#1E1F21;}
</style>
<g>
	<polygon class="st0" points="10.3,14.7 10,14.3 16.9,7.3 10,0.4 10.3,0 17.6,7.3 	"/>
	<rect x="0" y="7.1" class="st0" width="17.3" height="0.5"/>
</g>
</symbol><symbol id="arrow-up" viewBox="0 0 21.61 21.49"><title>arrow-up</title><polygon points="19.07 4.29 19.07 17.71 21.61 17.71 21.61 0 3.79 0 3.79 2.43 17.2 2.43 0 19.63 1.86 21.5 19.07 4.29"/></symbol><symbol id="arrow" viewBox="0 0 29.17 25.13">
  <title>arrow</title>
  <polygon points="24.33 13.84 14.84 23.32 16.64 25.13 29.17 12.61 16.56 0 14.84 1.72 24.33 11.2 0 11.2 0 13.84 24.33 13.84"/>
</symbol><symbol id="back-arrow" viewBox="0 0 30.93 17.34">
  <title>back-arrow</title>
  <path d="M24,0H14.93V2H24a4.92,4.92,0,0,1,0,9.83H6.39V8.33L0,12.83l6.39,4.51V13.83H24A6.92,6.92,0,0,0,24,0Z"/>
</symbol><symbol id="behance" viewBox="0 0 34.5 21.9">
<style type="text/css">
	.st0{fill:#FFFFFF;}
</style>
<path class="st0" d="M15.8,2.3c0.6,0.9,1,2,1,3.3c0,1.3-0.3,2.3-1,3.1c-0.4,0.4-0.9,0.8-1.6,1.2c1.1,0.4,1.9,1,2.5,1.9
	c0.6,0.9,0.8,1.9,0.8,3.1c0,1.3-0.3,2.4-1,3.4c-0.4,0.7-0.9,1.2-1.5,1.7c-0.7,0.5-1.5,0.9-2.4,1.1c-0.9,0.2-1.9,0.3-3,0.3H0V0h10.3
	C12.9,0,14.7,0.8,15.8,2.3z M4.3,3.7v4.7h5.2c0.9,0,1.7-0.2,2.3-0.5c0.6-0.4,0.9-1,0.9-1.9c0-1-0.4-1.7-1.1-2
	c-0.7-0.2-1.5-0.3-2.5-0.3H4.3z M4.3,11.9v5.7h5.2c0.9,0,1.6-0.1,2.2-0.4c0.9-0.5,1.4-1.4,1.4-2.7c0-1.1-0.4-1.9-1.4-2.3
	c-0.5-0.2-1.2-0.4-2.1-0.4H4.3z M30.4,5.9c1.1,0.5,2,1.3,2.7,2.3c0.7,0.9,1.1,2,1.3,3.3c0.1,0.7,0.2,1.8,0.1,3.1H23
	c0.1,1.6,0.6,2.7,1.6,3.3c0.6,0.4,1.4,0.6,2.3,0.6c0.9,0,1.7-0.2,2.3-0.7c0.3-0.3,0.6-0.6,0.8-1.1h4.2c-0.1,0.9-0.6,1.9-1.5,2.9
	c-1.4,1.5-3.4,2.3-5.9,2.3c-2.1,0-4-0.6-5.6-1.9c-1.6-1.3-2.4-3.4-2.4-6.3c0-2.7,0.7-4.8,2.2-6.3c1.4-1.5,3.3-2.2,5.6-2.2
	C28,5.1,29.3,5.4,30.4,5.9z M24.2,9.4c-0.6,0.6-0.9,1.4-1.1,2.4h7.1c-0.1-1.1-0.4-1.9-1.1-2.5c-0.7-0.6-1.5-0.8-2.4-0.8
	C25.6,8.5,24.8,8.8,24.2,9.4z M31.2,1H22v2.7h9.1V1z"/>
</symbol><symbol id="cross" viewBox="0 0 16.98 16.98">
  <title>cross</title>
  <rect x="-2.81" y="7.81" width="22.58" height="1.42" transform="translate(-3.52 8.48) rotate(-45)"/>
  <rect x="-2.82" y="7.79" width="22.58" height="1.42" transform="translate(8.51 -3.51) rotate(45)"/>
</symbol><symbol id="email" viewBox="0 0 20 20">
<path d="M18,2H2C0.9,2,0,2.9,0,4l0,12c0,1.1,0.9,2,2,2h16c1.1,0,2-0.9,2-2V4C20,2.9,19.1,2,18,2z M18,6l-8,5L2,6V4
    l8,5l8-5V6z"/>
</symbol><symbol id="expand-wide-thin" viewBox="0 0 246.3 246.3">
<style type="text/css">
	.st0{fill:#1E1F21;}
</style>
<g>
	<polygon class="st0" points="246.3,10.6 245.3,10.6 245.3,1 235.7,1 235.7,0 246.3,0 	"/>
	<polygon class="st0" points="10.6,246.3 0,246.3 0,235.7 1,235.7 1,245.3 10.6,245.3 	"/>
	
		<rect x="-50.3" y="122.7" transform="matrix(0.7071 -0.7071 0.7071 0.7071 -51.012 123.1542)" class="st0" width="346.9" height="1"/>
</g>
</symbol><symbol id="expand-wide" viewBox="0 0 250 250">
  <title>expand-wide</title>
  <polygon points="248 0 239 0 239 2 246.59 2 2 246.59 2 239 0 239 0 248 0 250 2 250 11 250 11 248 3.41 248 248 3.41 248 11 250 11 250 2 250 0 248 0"/>
</symbol><symbol id="expand" viewBox="0 0 25.4 25.38">
  <title>expand</title>
  <polygon points="15.07 0 15.07 1.5 22.84 1.5 1.5 22.84 1.5 15.08 0 15.08 0 25.38 10.33 25.38 10.33 23.88 2.58 23.88 23.9 2.56 23.9 10.3 25.4 10.3 25.4 0 15.07 0"/>
</symbol><symbol id="facebook" viewBox="0 0 57 57"><title>facebook</title><path d="M53.85,0H3.15A3.15,3.15,0,0,0,0,3.15v50.7A3.15,3.15,0,0,0,3.15,57h27.3V35H23V26.33h7.41V20c0-7.37,4.49-11.38,11.06-11.38A62.17,62.17,0,0,1,48.15,9v7.69H43.61c-3.57,0-4.26,1.69-4.26,4.18v5.5H47.9L46.79,35H39.35V57h14.5A3.15,3.15,0,0,0,57,53.85h0V3.15A3.15,3.15,0,0,0,53.85,0Z"/></symbol><symbol id="folder" viewBox="0 0 100 100">
    <g stroke="none" stroke-width="1" fill-rule="evenodd">
        <g fill-rule="nonzero">
            <path d="M13,19 L27.5518003,19 L27.5518003,19 C28.4875463,19 29.3936779,19.3280649 30.1125379,19.9271149 L34.7218655,23.7682213 L34.7218655,23.7682213 C34.9015805,23.9179838 35.1281134,24 35.3620499,24 L77,24 L77,24 C79.209139,24 81,25.790861 81,28 L81,37 C81,37.5522847 81.4477153,38 82,38 L86,38 C88.1929224,38 89.9706372,39.7777148 89.9706372,41.9706372 C89.9706372,42.2733924 89.9360107,42.5751542 89.8674325,42.8700401 L81.7195223,77.906054 C81.2981881,79.7177912 79.6835747,81 77.8234902,81 L13,81 C10.790861,81 9,79.209139 9,77 L9,23 L9,23 C9,20.790861 10.790861,19 13,19 L13,19 Z M77,37 L77,29 L77,29 C77,28.4477153 76.5522847,28 76,28 L35,28 L35,28 C34.064254,28 33.1581224,27.6719351 32.4392624,27.0728851 L27.8299347,23.2317787 C27.6502197,23.0820162 27.4236868,23 27.1897503,23 L14,23 L14,23.0000622 C13.4477396,23.0000622 13.0000344,23.4477396 13,24 L12.9973423,65.710665 L12.9973423,65.710665 C12.997332,65.8763504 13.1316382,66.0106733 13.2973236,66.0106837 C13.4370274,66.0106924 13.5582459,65.9142676 13.5896597,65.7781415 L19.2844857,41.100562 C19.7033144,39.2856376 21.3194266,38 23.1820505,38 L76,38 L76,38 C76.5522847,38 77,37.5522847 77,37 L77,37 Z M16.2570511,77 L77.0293628,77 C77.4943839,77 77.8980372,76.6794478 78.0033708,76.2265135 L85.6778084,43.2264319 L85.6778084,43.2264319 C85.8029083,42.6885022 85.4682436,42.1510104 84.9303138,42.0259104 C84.8560683,42.008644 84.780092,41.9999234 84.7038651,41.9999184 L24.668994,41.9960301 C23.7376336,41.9959698 22.9295073,42.6388017 22.7200821,43.5463111 L15.2826599,75.7751405 L15.2826599,75.7751405 C15.1584734,76.3132819 15.4940502,76.8502047 16.0321916,76.9743912 C16.1059342,76.9914087 16.1813703,77 16.2570511,77 Z"/>
        </g>
    </g>
</symbol><symbol id="icon-canada" viewBox="0 0 50.26 51.82">
  <title>icon-canada</title>
  <path d="M25.69,43.24c0-.42.57-.84,1-.84,4.21.56,7.86,1,12.07,1.41l-1.12-3.65a1.93,1.93,0,0,1,.56-1.69L50.26,28.22,47.74,27c-1.13-.42-.85-1.13-.42-2.67l1.82-7-7,1.54A1,1,0,0,1,40.86,18L40,14.74,34.54,21.2c-.84,1-2.39,1-1.83-1.4L35.1,6.74,31.87,8.42C31,9,30.05,9,29.63,8.14L25.13,0,20.78,8.56c-.56,1-1.4.85-2.25.29L15.3,7l2.39,13.06c.56,2.38-1.12,2.38-1.82,1.4L10.39,15l-.84,3.23a1.27,1.27,0,0,1-1.27.84l-7-1.54,1.83,7c.28,1.55.56,2.11-.56,2.53L0,28.36,12.07,38.61a1.91,1.91,0,0,1,.57,1.69L11.51,44c4.22-.57,7.87-1,12.08-1.41.42,0,1,.28,1,.7"/>
  <rect x="24.17" y="42.07" width="1.95" height="9.75"/>
</symbol><symbol id="icon-drag-h" viewBox="0 0 35.91 14.59">
  <title>icon-drag-h-2</title>
  <polygon points="28.6 0 27.54 1.06 33.04 6.55 2.86 6.55 8.34 1.07 7.28 0.01 0 7.29 7.3 14.6 8.37 13.53 2.88 8.05 33.04 8.05 27.56 13.53 28.62 14.59 35.91 7.3 28.6 0"/>
</symbol><symbol id="icon-enlarge" viewBox="0 0 247 247">
<polygon points="239.35,0 230.53,0 144.08,0 144.08,16.47 218.52,16.47 16.47,218.52 16.47,144.08 0,144.08
    0,230.53 0,239.35 0,247 102.92,247 102.92,230.53 27.3,230.53 230.53,27.3 230.53,102.92 247,102.92 247,0 "/>
</symbol><symbol id="icon-international" viewBox="0 0 55.14 55.14">
  <title>icon-international</title>
  <path d="M27.57,0a27.56,27.56,0,0,1,.75,55.11c-.25,0-.49,0-.75,0s-.5,0-.75,0A27.56,27.56,0,0,1,27.57,0Zm1.15,2.48V14.93h8.72a32.5,32.5,0,0,0-2-5.56C33.57,5.41,31.18,3.05,28.72,2.48Zm-2.3,0c-2.45.57-4.85,2.93-6.75,6.89a32.5,32.5,0,0,0-2,5.56h8.72ZM34,3.16a19.68,19.68,0,0,1,3.52,5.2,34.65,34.65,0,0,1,2.33,6.57h9.55A25.21,25.21,0,0,0,34,3.16Zm-12.92,0A25.24,25.24,0,0,0,5.71,14.93h9.55a35.35,35.35,0,0,1,2.33-6.57A19.92,19.92,0,0,1,21.11,3.16ZM50.65,17.23H40.39a53.25,53.25,0,0,1,.93,9.19H52.81A25.21,25.21,0,0,0,50.65,17.23ZM38,17.23h-9.3v9.19H39A50.61,50.61,0,0,0,38,17.23Zm-11.6,0h-9.3a50.61,50.61,0,0,0-1,9.19h10.3Zm-11.67,0H4.49a25.21,25.21,0,0,0-2.16,9.19H13.82A54.26,54.26,0,0,1,14.75,17.23ZM52.81,28.72H41.32a53.15,53.15,0,0,1-.93,9.19H50.65A25,25,0,0,0,52.81,28.72ZM39,28.72H28.72v9.19H38A50.51,50.51,0,0,0,39,28.72Zm-12.6,0H16.12a50.51,50.51,0,0,0,1,9.19h9.3Zm-12.6,0H2.33a25.21,25.21,0,0,0,2.16,9.19H14.75A54.15,54.15,0,0,1,13.82,28.72ZM49.47,40.21H39.88a34.47,34.47,0,0,1-2.33,6.53A20.31,20.31,0,0,1,34,52,25.28,25.28,0,0,0,49.47,40.21Zm-12,0H28.72V52.7c2.46-.58,4.85-3,6.75-7A32.14,32.14,0,0,0,37.44,40.21Zm-11,0H17.7a32.14,32.14,0,0,0,2,5.53c1.9,4,4.3,6.38,6.75,7Zm-11.16,0H5.67A25.28,25.28,0,0,0,21.14,52a20.31,20.31,0,0,1-3.55-5.28A35.18,35.18,0,0,1,15.26,40.21Z"/>
</symbol><symbol id="icon-montreal" viewBox="0 0 56.43 56.41">
  <title>icon-montreal</title>
  <path d="M45.69,45.44c.24,0,.5,0,.75,0l.68,0a9.31,9.31,0,0,0,9.31-9.29,9.41,9.41,0,0,0-4.24-7.8l-.31-.21.31-.2a9.45,9.45,0,0,0,4.24-7.78,9.32,9.32,0,0,0-9.31-9.31c-.21,0-.44,0-.68,0l-.75,0h-.25v-.25c0-.22,0-.47,0-.72s0-.47,0-.69a9.36,9.36,0,0,0-3.95-7.62A9.12,9.12,0,0,0,36.2,0a9.5,9.5,0,0,0-7.78,4.22l-.2.31L28,4.22A9.58,9.58,0,0,0,20.21,0a9.29,9.29,0,0,0-5.36,1.71h0A9.36,9.36,0,0,0,10.9,9.33c0,.22,0,.45,0,.68s0,.48,0,.71V11h-.24a6,6,0,0,1-.84,0l-.58,0A9.33,9.33,0,0,0,0,20.23,9.5,9.5,0,0,0,4.22,28l.31.2-.31.21A9.58,9.58,0,0,0,0,36.22a9.31,9.31,0,0,0,9.31,9.29l.65,0c.25,0,.5,0,.76,0H11v.25c0,.22,0,.47,0,.72s0,.48,0,.69A9.29,9.29,0,0,0,28,52.19l.22-.32.2.33a9.37,9.37,0,0,0,7.8,4.21,9.12,9.12,0,0,0,5.36-1.71,9.34,9.34,0,0,0,3.95-7.6c0-.21,0-.45,0-.69s0-.5,0-.72v-.25ZM26.94,47.68A6.55,6.55,0,0,1,20.32,54a6.68,6.68,0,0,1-5.84-3.49h0a6.77,6.77,0,0,1-.82-3.17,6.69,6.69,0,0,1,.82-3.18,6.14,6.14,0,0,1,2.22-2.38l.09-.06.1,0a4.25,4.25,0,0,0,1,.16,3.48,3.48,0,1,0-3-5.21,3.42,3.42,0,0,0-.46,1.73,3.78,3.78,0,0,0,.22,1.21l0,.12-.07.1a6.66,6.66,0,0,1-12.19-3.7,6.47,6.47,0,0,1,6.27-6.64H23.36a3.64,3.64,0,0,1,3.58,3.61Zm0-24.3A3.63,3.63,0,0,1,23.36,27L8.73,27a6.47,6.47,0,0,1-6.27-6.66,6.64,6.64,0,0,1,12.19-3.67l.07.1,0,.12a3.66,3.66,0,0,0-.22,1.19,3.36,3.36,0,0,0,.45,1.72,3.46,3.46,0,1,0,3-5.2,3.29,3.29,0,0,0-1,.17l-.11,0-.1-.06a6.62,6.62,0,0,1-2.22-2.41,6.68,6.68,0,0,1,5.84-9.86,6.55,6.55,0,0,1,6.62,6.29ZM29.47,8.75a6.56,6.56,0,0,1,6.64-6.29A6.66,6.66,0,0,1,41.93,6a6.54,6.54,0,0,1,.82,3.17,6.74,6.74,0,0,1-.82,3.2,6.62,6.62,0,0,1-2.22,2.41l-.1.06-.11,0a3.29,3.29,0,0,0-1-.17,3.48,3.48,0,1,0,3,5.2A3.3,3.3,0,0,0,42,18.06a3,3,0,0,0-.24-1.18l0-.12.08-.12a6.77,6.77,0,0,1,5.53-3A6.68,6.68,0,0,1,54,20.32,6.56,6.56,0,0,1,47.7,27l-6,0H33.05a3.63,3.63,0,0,1-3.58-3.58ZM41.76,39.84l-.08-.12,0-.12A3.29,3.29,0,0,0,42,38.4a3.35,3.35,0,0,0-.48-1.73,3.46,3.46,0,1,0-3,5.21,4.25,4.25,0,0,0,1-.16l.1,0,.09.06a6.17,6.17,0,0,1,2.22,2.39,6.65,6.65,0,0,1,.82,3.17,6.54,6.54,0,0,1-.82,3.18A6.65,6.65,0,0,1,36.11,54a6.56,6.56,0,0,1-6.64-6.29V33.1a3.64,3.64,0,0,1,3.58-3.61H47.7A6.55,6.55,0,0,1,54,36.13a6.68,6.68,0,0,1-6.68,6.66A6.78,6.78,0,0,1,41.76,39.84Z" style="fill-rule: evenodd"/>
</symbol><symbol id="icon-quebec" viewBox="0 0 37.97 51.82">
  <title>icon-quebec</title>
  <rect x="18.78" y="42.07" width="1.95" height="9.75" style="fill: #010101"/>
  <path d="M31.69,35.31c.83-1.23.76-4-.91-4.91a3.34,3.34,0,0,0-3.39.17c-1.08.65-1.51,2.75-1.51,4.87h4.34v3.48h-9c.1,3.46,1.27,4.22,3.46,5.17-.29.91-1.6,2.93-3.4,2.8A8.29,8.29,0,0,1,19,51.79,7.91,7.91,0,0,1,16.66,47c-1.8.13-3.12-2-3.4-2.95,2.18-1,3.35-1.69,3.45-5.15H9.46V35.43h3.48a6.26,6.26,0,0,0-2.25-4.88,3.48,3.48,0,0,0-3.46-.16c-1.66,1-1.77,3.67-.93,4.91-7.88-1.46-7.11-9.07-4.43-11.83C4,21.25,6.39,20.91,8.22,21.62c4.14,1.48,6.92,6.91,7,13.83h2.17c0-6.92-1.17-8.87-4.22-17.31-1.53-4-.61-8.93,2.13-13.47A32.14,32.14,0,0,1,19,0a31,31,0,0,1,3.62,4.67c2.75,4.54,3.67,9.48,2.13,13.47-3,8.44-4.22,10.39-4.22,17.31h2.17c.14-6.92,2.92-12.35,7.06-13.83,1.83-.71,4.19-.36,6.36,1.87C38.78,26.25,39.56,33.85,31.69,35.31Z"/>
</symbol><symbol id="icon-share-2" viewBox="0 0 61.3 68.2">
  <title>icon-share-2</title>
  <path d="M49.1,44A11.76,11.76,0,0,0,40,48.2L23,39.4a11.78,11.78,0,0,0,1.2-5.3A13.28,13.28,0,0,0,23,28.8L40,20a11.91,11.91,0,0,0,9.1,4.2A12.1,12.1,0,1,0,49.1,0,12.31,12.31,0,0,0,37,12.3a12.73,12.73,0,0,0,.8,4.4L20.5,25.6A11.94,11.94,0,0,0,12,22.1a12.1,12.1,0,0,0,.1,24.2,11.94,11.94,0,0,0,8.5-3.5l17.3,8.9a12.73,12.73,0,0,0-.8,4.4A12.1,12.1,0,1,0,49.1,44Zm0-39.7a8.1,8.1,0,1,1-8.1,8A8,8,0,0,1,49.1,4.3Zm-37,38a8.1,8.1,0,1,1,8.1-8.1A8.2,8.2,0,0,1,12.1,42.3Zm37,21.8A8.1,8.1,0,1,1,57.2,56,8.13,8.13,0,0,1,49.1,64.1Z"/>
</symbol><symbol id="icon-share" viewBox="0 0 74 88">
<g transform="translate(0,-952.36218)">
    <path d="M60,952.36c-7.71,0-14,6.29-14,14c0,1.62,0.3,3.17,0.81,4.63l-23.62,14.88c-2.46-2.16-5.67-3.5-9.19-3.5
        c-7.71,0-14,6.29-14,14s6.29,14,14,14c3.52,0,6.75-1.33,9.22-3.5l23.59,14.84c-0.52,1.46-0.81,3.02-0.81,4.66c0,7.71,6.29,14,14,14
        c7.71,0,14-6.29,14-14s-6.29-14-14-14c-4.64,0-8.76,2.28-11.31,5.78l-22.84-14.38c1.35-2.15,2.16-4.68,2.16-7.41
        c0-2.73-0.79-5.28-2.16-7.44l22.84-14.38c2.55,3.51,6.66,5.81,11.31,5.81c7.71,0,14-6.29,14-14C74,958.65,67.71,952.36,60,952.36z"/>
</g>
</symbol><symbol id="instagram" viewBox="0 0 503.84 503.84"><title>instagram</title><path d="M251.92,45.39c67.27,0,75.23.26,101.8,1.47,24.56,1.12,37.9,5.22,46.78,8.67a78,78,0,0,1,29,18.85,78,78,0,0,1,18.85,29c3.45,8.88,7.55,22.22,8.67,46.78,1.21,26.57,1.47,34.53,1.47,101.8s-.26,75.23-1.47,101.8c-1.12,24.56-5.22,37.9-8.67,46.78a83.51,83.51,0,0,1-47.81,47.81c-8.88,3.45-22.22,7.55-46.78,8.67-26.56,1.21-34.53,1.47-101.8,1.47s-75.24-.26-101.8-1.47c-24.56-1.12-37.9-5.22-46.78-8.67a78,78,0,0,1-29-18.85,78,78,0,0,1-18.85-29c-3.45-8.88-7.55-22.22-8.67-46.78-1.21-26.57-1.47-34.53-1.47-101.8s.26-75.23,1.47-101.8c1.12-24.56,5.22-37.9,8.67-46.78a78,78,0,0,1,18.85-29,78,78,0,0,1,29-18.85c8.88-3.45,22.22-7.55,46.78-8.67,26.57-1.21,34.53-1.47,101.8-1.47m0-45.39c-68.42,0-77,.29-103.87,1.52S102.93,7,86.9,13.23A123.52,123.52,0,0,0,42.28,42.28a123.52,123.52,0,0,0-29,44.62C7,102.93,2.74,121.24,1.52,148.05S0,183.5,0,251.92s.29,77,1.52,103.87S7,400.91,13.23,416.94a123.52,123.52,0,0,0,29.05,44.62A123.68,123.68,0,0,0,86.9,490.62c16,6.22,34.34,10.48,61.15,11.71s35.45,1.51,103.87,1.51,77-.29,103.87-1.51,45.12-5.49,61.15-11.71a128.85,128.85,0,0,0,73.68-73.68c6.22-16,10.48-34.34,11.71-61.15s1.51-35.45,1.51-103.87-.29-77-1.51-103.87-5.49-45.12-11.71-61.15a123.68,123.68,0,0,0-29.06-44.62,123.52,123.52,0,0,0-44.62-29C400.91,7,382.6,2.74,355.79,1.52S320.34,0,251.92,0Z"/><path d="M251.92,122.56A129.37,129.37,0,1,0,381.29,251.92,129.35,129.35,0,0,0,251.92,122.56Zm0,213.33a84,84,0,1,1,84-84A84,84,0,0,1,251.92,335.89Z"/><circle cx="386.4" cy="117.44" r="30.23"/></symbol><symbol id="linkedin" viewBox="0 0 36 36"><title>linkedin</title><path d="M33.34,0H2.66A2.63,2.63,0,0,0,0,2.6V33.4A2.63,2.63,0,0,0,2.66,36H33.34A2.63,2.63,0,0,0,36,33.4V2.6A2.63,2.63,0,0,0,33.34,0ZM10.68,30.68H5.33V13.5h5.35ZM8,11.15a3.1,3.1,0,1,1,3.09-3.1A3.1,3.1,0,0,1,8,11.15ZM30.68,30.68H25.34V22.32c0-2,0-4.55-2.78-4.55s-3.2,2.17-3.2,4.41v8.5H14V13.5h5.12v2.34h.07a5.6,5.6,0,0,1,5.05-2.77c5.41,0,6.41,3.56,6.41,8.18Z"/></symbol>




<symbol id="logo" viewBox="0 0 72.07 158.1"><title>logo</title><path d="M71.86,0H69.23V5.16H66.09V1.75H63.46V5.16H37.35V1.72H34.72V5.16H8.36V1.75H5.73V5.16H2.84V0H.22V8.35H5.73v6.39H5.6L.22,14.46v3.36l5.51.23v3.82L.22,22.1v3.37l5.51-.29v7H.22v3.19H5.73V44H2.84V40.53H.22V50.6H2.84V47.16H5.73v8.77H4.19a4,4,0,0,0-3,1.54A5.3,5.3,0,0,0,0,61a5.76,5.76,0,0,0,1.3,3.58A3.67,3.67,0,0,0,4.19,66H5.73v8.27l-5.51.07v2.34l5.51.51v9.53l-5.51.51v2.34l5.51.06v8.45H4.19a4,4,0,0,0-3,1.55A5.28,5.28,0,0,0,0,103.12a5.73,5.73,0,0,0,1.3,3.57,3.69,3.69,0,0,0,2.89,1.46H5.73V115H4.19a4,4,0,0,0-3,1.54A5.28,5.28,0,0,0,0,120a5.76,5.76,0,0,0,1.3,3.58A3.67,3.67,0,0,0,4.19,125H5.73v7.91H4.19a4.06,4.06,0,0,0-3,1.54A5.3,5.3,0,0,0,0,138a5.76,5.76,0,0,0,1.3,3.58A3.67,3.67,0,0,0,4.19,143H5.73v9.46H.22v3.19H5.73v2.45H8.36v-2.45h55.1v2.45h2.63v-2.45h5.77V147.3H69.23v5.16H66.09V143h1.8a4,4,0,0,0,3-1.55A5.26,5.26,0,0,0,72.07,138a5.67,5.67,0,0,0-1.3-3.57,3.67,3.67,0,0,0-2.88-1.46h-1.8V125h1.8a4,4,0,0,0,3-1.55A5.26,5.26,0,0,0,72.07,120a5.72,5.72,0,0,0-1.3-3.58A3.69,3.69,0,0,0,67.89,115H66.36v3.19h1.53a1.41,1.41,0,0,1,1.1.56,2,2,0,0,1,.46,1.28,2,2,0,0,1-.46,1.29,1.41,1.41,0,0,1-1.1.56h-1.8V108.15h1.8a4,4,0,0,0,3-1.54,5.28,5.28,0,0,0,1.23-3.49,5.68,5.68,0,0,0-1.3-3.58,3.7,3.7,0,0,0-2.88-1.46h-1.8V90.36l5.77.07V87.24l-5.77.09V83.71l6-.67V81l-6-.64V76.62l5.77,0V73.48l-5.77.07V66h1.8a4,4,0,0,0,3-1.55A5.26,5.26,0,0,0,72.07,61a5.67,5.67,0,0,0-1.3-3.57,3.63,3.63,0,0,0-2.88-1.46h-1.8V47.16h5.77V44H66.09v-8.6h5.77V32.18H66.09V22l5.77-.31V18.15l-5.77-.3V8.35h5.77Zm-8.4,143v9.46H8.36V143Zm4.43-6.88a1.41,1.41,0,0,1,1.1.56,2,2,0,0,1,.46,1.28,1.93,1.93,0,0,1-.46,1.29,1.44,1.44,0,0,1-1.1.56h-1.8v-3.69Zm-4.43,0v3.69H8.36v-3.69Zm-57.73,0v3.69H4.19a1.41,1.41,0,0,1-1.1-.56A1.94,1.94,0,0,1,2.63,138a1.92,1.92,0,0,1,.46-1.28,1.41,1.41,0,0,1,1.1-.56ZM63.46,125v7.91H8.36V125ZM4.19,121.83a1.41,1.41,0,0,1-1.1-.56A1.94,1.94,0,0,1,2.63,120a1.9,1.9,0,0,1,.46-1.28,1.38,1.38,0,0,1,1.1-.56H5.73v3.69Zm59.27-13.68v13.68H8.36V108.15Zm4.43-6.88a1.44,1.44,0,0,1,1.1.56,2,2,0,0,1,.46,1.29A2,2,0,0,1,69,104.4a1.41,1.41,0,0,1-1.1.56h-1.8v-3.69Zm-4.43,0V105H8.36v-3.69Zm-57.73,0V105H4.19a1.39,1.39,0,0,1-1.1-.56,1.9,1.9,0,0,1-.46-1.28,1.94,1.94,0,0,1,.46-1.29,1.41,1.41,0,0,1,1.1-.56Zm2.75-11.6,55,.66v7.75H8.36V89.67Zm55-2.31h-.12l-32,.47,0-.25L63.46,84Zm-7.14-5.53v.25l-48,4.4v-9h.13Zm7.14-5.23V80h-.14l-30-3.44,0-.25Zm0-10.6v7.58l-55.1.66V66Zm4.43-6.88a1.44,1.44,0,0,1,1.1.56A2,2,0,0,1,69.45,61,2,2,0,0,1,69,62.25a1.41,1.41,0,0,1-1.1.56h-1.8V59.12Zm-4.43,0v3.69H8.36V59.12Zm-57.73,0v3.69H4.19a1.41,1.41,0,0,1-1.1-.56,2,2,0,0,1,0-2.57,1.41,1.41,0,0,1,1.1-.56Zm57.73-12v8.77H8.36V47.16Zm0-11.79V44H8.36v-8.6Zm0-3.19H8.36V25h.12l55-2.89Zm-55-14,40.63,1.64V20L8.36,21.76V18.15Zm55-.43h-.13l-55-2.83V8.35h55.1Z"/><rect x="0.22" y="87.26" width="71.64" height="3.19"/><rect x="0.22" y="73.46" width="71.64" height="3.19"/></symbol>





<symbol id="marker" viewBox="0 0 111.27 111.27"><title>marker</title><path d="M55.62,0A43.38,43.38,0,0,0,12.3,43.32c0,29.62,39.16,64.7,41.34,66.94a2.48,2.48,0,0,0,4,0C59.45,108.39,99,73.56,99,43.32A43.38,43.38,0,0,0,55.62,0Zm0,64.29a21,21,0,1,1,21-21A21,21,0,0,1,55.62,64.29Z"/></symbol><symbol id="mask-heart" viewBox="0 0 110 110">
  <path d="M0,0V110H110V0ZM96.73,58l-1,1L55.18,99.55,14.57,59l-1-1A28.71,28.71,0,0,1,54.2,17.39l1,1,1-1a28.7,28.7,0,0,1,40.56,0l.09.09A28.65,28.65,0,0,1,96.73,58Z"/>
</symbol><symbol id="mask-star" viewBox="0 0 110 110">
  <path d="M0,0V110H110V0ZM86.8,102.44,55,85.72,23.2,102.44,29.27,67,3.54,42,39.1,36.78,55,4.56,70.9,36.78,106.46,42,80.73,67Z"/>
</symbol><symbol id="metal" viewBox="0 0 33.5 54.2">
<g>
	<path d="M1,31.2c-0.4,0-0.8-0.3-0.8-0.8v-19c0-2.6,2.1-4.6,4.6-4.6c2.5,0,4.6,2.1,4.6,4.6v17.2c0,0.4-0.3,0.8-0.8,0.8S8,29,8,28.6
		V11.4c0-1.7-1.5-3.1-3.1-3.1c-1.7,0-3.1,1.4-3.1,3.1v19C1.8,30.8,1.4,31.2,1,31.2z"/>
</g>
<g>
	<path d="M32.4,24.6c-0.4,0-0.8-0.3-0.8-0.8v-19c0-1.7-1.4-3.1-3.2-3.1s-3.2,1.4-3.2,3.1v17.2c0,0.4-0.3,0.8-0.8,0.8
		s-0.8-0.3-0.8-0.8V4.9c0-2.6,2.1-4.6,4.7-4.6s4.7,2.1,4.7,4.6v19C33.2,24.3,32.8,24.6,32.4,24.6z"/>
</g>
<g>
	<path d="M12.8,32.8c-2.6,0-4.6-1.7-4.6-3.8v-8.5c0-2.1,2.1-3.9,4.6-3.9c2.6,0,4.7,1.7,4.7,3.9v1.8c0,0.4-0.3,0.8-0.8,0.8
		S16,22.6,16,22.2v-1.8c0-1.3-1.5-2.4-3.2-2.4s-3.1,1.1-3.1,2.4v8.5c0,1.3,1.4,2.3,3.1,2.3c1.2,0,2.3-0.7,2.8-1.3
		c0.3-0.3,0.7-0.4,1.1-0.1c0.3,0.3,0.4,0.7,0.1,1.1C15.9,32,14.3,32.8,12.8,32.8z"/>
</g>
<g>
	<path d="M16.8,22.9c-0.4,0-0.8-0.3-0.8-0.8v-1.8c0-2.1,2.1-3.8,4.7-3.8c2.6,0,4.6,1.7,4.6,3.8c0,0.4-0.3,0.8-0.8,0.8
		s-0.8-0.3-0.8-0.8c0-1.3-1.5-2.3-3.1-2.3c-1.7,0-3.2,1.1-3.2,2.3v1.8C17.5,22.5,17.2,22.9,16.8,22.9z"/>
</g>
<path d="M17,53.8c-9.2,0-16.8-7.5-16.8-16.8v-15c0-0.4,0.3-0.8,0.8-0.8s0.8,0.3,0.8,0.8v15c0,8.4,6.8,15.2,15.2,15.2
	c8.1,0,14.8-6.6,14.8-14.8V22.1c0-0.4,0.3-0.8,0.8-0.8s0.8,0.3,0.8,0.8v15.5C33.2,46.6,26,53.8,17,53.8z"/>
<path d="M15,43.2c-0.4,0-0.8-0.3-0.8-0.8v-3.1c0-3.5,2-6.5,5-8.2h-0.8c-4.3,0-7.8-3.1-7.8-7c0-1.4,1.2-2.5,2.8-2.5h15
	c2.6,0,4.8,2,4.8,4.3v4.5c0,0.4-0.3,0.8-0.8,0.8s-0.8-0.3-0.8-0.8v-4.5c0-1.6-1.5-2.8-3.2-2.8h-15c-0.7,0-1.2,0.5-1.2,1
	c0,3.1,2.7,5.5,6.2,5.5H25c0.4,0,0.8,0.3,0.8,0.8S25.4,31,25,31c-5.1,0-9.2,3.7-9.2,8.2v3.1C15.8,42.8,15.4,43.2,15,43.2z"/>
</symbol><symbol id="mobile-device" viewBox="0 0 585 1162">
  <title>mobile-device</title>
  <rect width="585" height="1162" rx="72.68" ry="72.68"/>
</symbol><symbol id="sound-off" viewBox="0 0 49.4 35.29">
  <title>sound-off</title>
  <g>
    <path d="M33.9,26.38A2,2,0,0,1,32.48,23L46,9.46a2,2,0,0,1,2.83,2.83l-13.5,13.5A2,2,0,0,1,33.9,26.38Z"/>
    <path d="M47.4,26.38A2,2,0,0,1,46,25.79l-13.5-13.5a2,2,0,1,1,2.83-2.83L48.81,23a2,2,0,0,1-1.41,3.42Z"/>
  </g>
  <polygon points="23.17 35.29 23.17 0 9.27 10.8 0 10.8 0 24.49 9.27 24.49 23.17 35.29"/>
</symbol><symbol id="sound-on" viewBox="0 0 43.77 35.29">
  <title>sound-on</title>
  <path d="M35.16,27.83a2.25,2.25,0,0,1-.48-4.45,5.87,5.87,0,0,0-.09-11.47,2.25,2.25,0,0,1,.9-4.41,10.37,10.37,0,0,1,.16,20.28A2.81,2.81,0,0,1,35.16,27.83Z"/>
  <polygon points="23.17 35.29 23.17 0 9.27 10.8 0 10.8 0 24.49 9.27 24.49 23.17 35.29"/>
</symbol><symbol id="triforce-triangle" viewBox="0 0 458.1 370.7">
  <title>triforce-triangle</title>
  <polygon points="229.1 0 458.1 370.7 0 370.7 229.1 0"/>
</symbol><symbol id="twitter" viewBox="0 0 250 250"><title>twitter</title><path d="M78.62,226.57c94.34,0,145.94-78.16,145.94-145.94,0-2.22,0-4.43-.15-6.63A104.36,104.36,0,0,0,250,47.45a102.24,102.24,0,0,1-29.46,8.07,51.46,51.46,0,0,0,22.55-28.37A103,103,0,0,1,210.52,39.6a51.34,51.34,0,0,0-87.41,46.78A145.63,145.63,0,0,1,17.4,32.79a51.33,51.33,0,0,0,15.88,68.47A50.84,50.84,0,0,1,10,94.84v.65a51.32,51.32,0,0,0,41.15,50.28,51.2,51.2,0,0,1-23.16.88,51.36,51.36,0,0,0,47.92,35.62,103,103,0,0,1-63.7,22A106,106,0,0,1,0,203.53a145.22,145.22,0,0,0,78.62,23"/></symbol><symbol id="write" viewBox="0 0 17 17"><title>write</title><path d="M16.71,4a1,1,0,0,0,0-1.41L14.37.29A1,1,0,0,0,13,.29l-2,2L14.75,6m-1,1L10,3.25l-10,10V17H3.75Z"/></symbol></svg>